<svg xmlns="http://www.w3.org/2000/svg" width="479.7" height="75.67" viewBox="0 0 479.705 75.667" enable-background="new 0 0 479.705 75.667"><path d="m170.05.89v45.555l-42.655-45.58h-6.614l-44.919 64.09c-5.756.127-12.903.246-20.305.246-14.955 0-26.455-2.666-34.5-8.01-8.04-5.336-12.06-12.834-12.06-22.49 0-9.439 4.265-16.876 12.796-22.306 8.529-5.43 20.22-8.143 35.06-8.143 9.503 0 18.573 1.232 27.21 3.699l3.32-4.256c-9.122-2.467-19.462-3.701-31.02-3.701-11.337 0-21.286 1.428-29.843 4.279-8.557 2.855-15.12 6.903-19.68 12.148-4.562 5.245-6.841 11.307-6.841 18.19 0 11.01 4.777 19.59 14.334 25.729 9.556 6.141 22.57 9.273 39.2 9.273 5.311 0 28.348.041 28.348.041l25.732-37.461h39.32l16.424 16.967 14.947-.012v-48.26h-8.26m-60.36 28.28l14.802-21.416c1.347 1.656 19.697 21.416 19.697 21.416h-34.499"/><path d="m471.54.987c0 0-.006 54.41-.006 59.949l-69.791-60.09-8.125-.024v45.44l-42.678-45.46h-8.5l-42.988 45.43-.107.074.041-.041-.061-45.29-12.404.027-41.959 59.51h-.484l-41.952-59.51-12.84-.002v48.05h7.471l.045-42.868h-.051c-.001-.009-.002-.017-.003-.023l.054.023 44.602 62.47h5.264l43.936-61.48.039 41.866 14.877.006 16.482-17.02h48.1l16.44 16.984h14.58v-40.2l70.06 59.816h8.123v-67.66l-8.164.026m-146.14 28c0 0 19.2-20.19 21.379-22.487 2.508 2.734 20.977 22.487 20.977 22.487h-42.36"/><path d="m156.04 69.6l-1.676-6.05c-.203-.641-.57-2.129-1.102-4.465h-.105c-.453 2.109-.813 3.605-1.078 4.488l-1.723 6.02h-3.047l-3.633-12.961h2.813l1.652 6.387c.375 1.578.641 2.93.797 4.055h.07c.078-.57.197-1.225.357-1.963s.299-1.291.416-1.658l1.969-6.82h3.02l1.91 6.82c.117.383.264.969.439 1.758s.279 1.402.311 1.84h.094c.117-.961.391-2.305.82-4.03l1.676-6.387h2.766l-3.656 12.961h-3.093"/><path d="m182.05 69.83c-2.02 0-3.592-.588-4.729-1.764s-1.705-2.795-1.705-4.857c0-2.117.527-3.781 1.582-4.992s2.504-1.816 4.348-1.816c1.711 0 3.063.52 4.055 1.559s1.488 2.469 1.488 4.289v1.488h-8.637c.039 1.258.379 2.225 1.02 2.9s1.543 1.014 2.707 1.014c.766 0 1.479-.072 2.139-.217s1.369-.385 2.127-.721v2.238c-.672.32-1.352.547-2.039.68s-1.473.199-2.356.199m-.504-11.344c-.875 0-1.576.277-2.104.832s-.842 1.363-.943 2.426h5.883c-.016-1.07-.273-1.881-.773-2.432s-1.188-.826-2.063-.826"/><path d="m208.22 56.4c1.617 0 2.877.586 3.779 1.758s1.354 2.816 1.354 4.934c0 2.125-.457 3.779-1.371 4.963s-2.184 1.775-3.809 1.775c-1.641 0-2.914-.59-3.82-1.77h-.188l-.504 1.535h-2.063v-18.234h2.754v4.336c0 .32-.016.797-.047 1.43s-.055 1.035-.07 1.207h.117c.876-1.289 2.165-1.934 3.868-1.934m-.715 2.25c-1.109 0-1.908.326-2.396.979s-.74 1.744-.756 3.275v.188c0 1.578.25 2.721.75 3.428s1.316 1.061 2.449 1.061c.977 0 1.717-.387 2.221-1.16s.756-1.891.756-3.352c-.001-2.946-1.01-4.419-3.02-4.419"/><path d="m279.86 69.832c-1.617 0-2.879-.586-3.785-1.758s-1.359-2.816-1.359-4.934c0-2.125.459-3.779 1.377-4.963s2.189-1.775 3.814-1.775c1.703 0 3 .629 3.891 1.887h.141c-.133-.93-.199-1.664-.199-2.203v-4.723h2.766v18.234h-2.156l-.48-1.699h-.129c-.884 1.29-2.177 1.934-3.881 1.934m.739-2.227c1.133 0 1.957-.318 2.473-.955s.781-1.67.797-3.1v-.387c0-1.633-.266-2.793-.797-3.48s-1.363-1.031-2.496-1.031c-.969 0-1.715.393-2.238 1.178s-.785 1.904-.785 3.357c0 1.438.254 2.533.762 3.287s1.268 1.131 2.284 1.131"/><path d="m307.47 69.832c-2.02 0-3.592-.588-4.729-1.764s-1.705-2.795-1.705-4.857c0-2.117.527-3.781 1.582-4.992s2.504-1.816 4.348-1.816c1.711 0 3.063.52 4.055 1.559s1.488 2.469 1.488 4.289v1.488h-8.637c.039 1.258.379 2.225 1.02 2.9s1.543 1.014 2.707 1.014c.766 0 1.479-.072 2.139-.217s1.369-.385 2.127-.721v2.238c-.672.32-1.352.547-2.039.68s-1.474.199-2.356.199m-.504-11.344c-.875 0-1.576.277-2.104.832s-.842 1.363-.943 2.426h5.883c-.016-1.07-.273-1.881-.773-2.432s-1.188-.826-2.063-.826"/><path d="m335.73 65.906c0 1.266-.461 2.236-1.383 2.912s-2.242 1.014-3.961 1.014c-1.727 0-3.113-.262-4.16-.785v-2.379c1.523.703 2.941 1.055 4.254 1.055 1.695 0 2.543-.512 2.543-1.535 0-.328-.094-.602-.281-.82s-.496-.445-.926-.68-1.027-.5-1.793-.797c-1.492-.578-2.502-1.156-3.03-1.734s-.791-1.328-.791-2.25c0-1.109.447-1.971 1.342-2.584s2.111-.92 3.65-.92c1.523 0 2.965.309 4.324.926l-.891 2.074c-1.398-.578-2.574-.867-3.527-.867-1.453 0-2.18.414-2.18 1.242 0 .406.189.75.568 1.031s1.205.668 2.479 1.16c1.07.414 1.848.793 2.332 1.137s.844.74 1.078 1.189.352.986.352 1.611"/><path d="m349.91 53.2c0-.492.135-.871.404-1.137s.654-.398 1.154-.398c.484 0 .861.133 1.131.398s.404.645.404 1.137c0 .469-.135.838-.404 1.107s-.646.404-1.131.404c-.5 0-.885-.135-1.154-.404s-.404-.638-.404-1.107m2.918 16.395h-2.754v-12.961h2.754v12.961"/><path d="m379.09 56.637v1.512l-2.215.41c.203.273.371.609.504 1.01s.199.82.199 1.266c0 1.336-.461 2.387-1.383 3.152s-2.191 1.148-3.809 1.148c-.414 0-.789-.031-1.125-.094-.594.367-.891.797-.891 1.289 0 .297.139.52.416.668s.787.223 1.529.223h2.262c1.43 0 2.516.305 3.258.914s1.113 1.488 1.113 2.637c0 1.469-.605 2.602-1.816 3.398s-2.961 1.195-5.25 1.195c-1.766 0-3.113-.313-4.04-.938s-1.395-1.516-1.395-2.672c0-.797.252-1.467.756-2.01s1.209-.92 2.115-1.131c-.367-.156-.67-.408-.908-.756s-.357-.713-.357-1.096c0-.484.137-.895.41-1.23s.68-.668 1.219-.996c-.672-.289-1.217-.76-1.635-1.412s-.627-1.416-.627-2.291c0-1.406.443-2.496 1.33-3.27s2.15-1.16 3.791-1.16c.367 0 .752.025 1.154.076s.705.104.908.158h4.49zm-10.184 14.976c0 .594.268 1.051.803 1.371s1.287.48 2.256.48c1.5 0 2.617-.215 3.352-.645s1.102-1 1.102-1.711c0-.563-.201-.963-.604-1.201s-1.15-.357-2.244-.357h-2.086c-.789 0-1.416.186-1.881.557s-.698.873-.698 1.506m1.184-10.781c0 .813.209 1.438.627 1.875s1.018.656 1.799.656c1.594 0 2.391-.852 2.391-2.555 0-.844-.197-1.494-.592-1.951s-.994-.686-1.799-.686c-.797 0-1.4.227-1.811.68s-.615 1.114-.615 1.981"/><path d="m404.27 69.6h-2.766v-7.969c0-1-.201-1.746-.604-2.238s-1.041-.738-1.916-.738c-1.164 0-2.02.344-2.555 1.031s-.809 1.84-.809 3.457v6.457h-2.754v-12.961h2.156l.387 1.699h.141c.391-.617.945-1.094 1.664-1.43s1.516-.504 2.391-.504c3.109 0 4.664 1.582 4.664 4.746v8.45z"/></svg>