<?xml version="1.0" encoding="utf-8"?>
<!-- Generator: Adobe Illustrator 19.2.1, SVG Export Plug-In . SVG Version: 6.00 Build 0)  -->
<svg version="1.1" id="Layer_1" xmlns="http://www.w3.org/2000/svg" xmlns:xlink="http://www.w3.org/1999/xlink" x="0px" y="0px"
	 viewBox="0 0 1024 1024" enable-background="new 0 0 1024 1024" xml:space="preserve">
<circle id="XMLID_1_" fill="#306088" cx="512" cy="512" r="512"/>
<g>
	<path fill="#FFFFFF" d="M232.5,488c-1.6-52,27.9-92,82.5-92c41.6,0,78,26.6,78,71.2c0,34.1-18.2,53-40.6,68.9s-49.1,28.9-65.6,52.3
		h107.6V628h-167c0.3-52.6,32.5-75.1,71.8-101.7c20.1-13.7,47.4-27.6,47.8-55.6c0-21.5-14.3-35.1-34.1-35.1
		c-27.3,0-36.1,28.3-36.1,52.3H232.5z"/>
	<path fill="#FFFFFF" d="M431.7,396h163.1v42.9H482.8v53.6h97.2v39.6h-97.2V628h-51V396z"/>
	<path fill="#FFFFFF" d="M632.6,396h51v189.1h113.1V628H632.6V396z"/>
</g>
</svg>
