<?xml version="1.0" encoding="utf-8"?>
<!-- Generator: Adobe Illustrator 19.2.1, SVG Export Plug-In . SVG Version: 6.00 Build 0)  -->
<svg version="1.1" xmlns="http://www.w3.org/2000/svg" xmlns:xlink="http://www.w3.org/1999/xlink" x="0px" y="0px"
	 viewBox="0 0 1024 1024" enable-background="new 0 0 1024 1024" xml:space="preserve">
<g id="Layer_1">
	<circle id="XMLID_1_" fill="#94E9F9" cx="512" cy="512.5" r="512"/>
	<g id="XMLID_64_">
		<path id="XMLID_103_" fill="#FFFFFF" d="M374.2,485.3c-16.5-16.3-21.7-37.4-24.9-59.2c-12.7-85.2,40.5-136.2,99.9-156
			c52.1-17.4,104.5-18,155.9,2.7c66.3,26.7,96.5,86.1,80.3,156c-1.5,6.7-3.1,13.3-4.6,20c-35.5,3.7-71.3,5.1-106.7,10.1
			c-27.8,3.9-55.8,5.9-83.7,9.7C451.6,473.6,412.9,479.6,374.2,485.3z M515.6,356.1c-16.8,0.7-34.5,7.8-47.5,24.6
			c-14,18.2-11.7,41.6,5.4,56.4c20.6,18,56.2,20.8,79.3,6.2c12.1-7.6,19.2-18.5,19.6-32.8C573.3,380,550.1,356.3,515.6,356.1z"/>
		<path id="XMLID_49_" fill="#FFFFFF" d="M374.2,485.3c38.7-5.6,77.4-11.6,116.2-16.8c27.8-3.7,55.9-5.8,83.7-9.7
			c35.5-4.9,71.2-6.4,106.7-10.1c-5.6,32.3-29.9,49.1-56.3,66.5c47.3,14.3,62.8,49.2,64.6,93.3c-5.9,0.2-11.9,0-17.8,0.6
			c-33.7,3.2-67.3,6.5-100.9,9.8c-11.5-28.8-33-40.7-64.8-36.1c-28.2,4.1-48.6,25.7-51,54c-12,2.2-24.1,4.4-36.1,6.6
			c-25.7,4.7-51.5,9.4-77.2,14.1c-7.9-30-7.9-59.4,8.5-86.8c16-26.7,42.2-40.1,71.4-50.5C404.1,508.7,385.4,501.9,374.2,485.3z"/>
		<path id="XMLID_48_" fill="#FFFFFF" d="M570.3,618.8c33.6-3.3,67.3-6.6,100.9-9.8c5.9-0.6,11.9-0.4,17.8-0.6
			c4.8,52.5-15.2,93.9-57.5,124.1c-69.3,49.5-176.6,49.3-242.8-0.1c-25.2-18.8-42.4-43.3-47.6-75c25.7-4.7,51.5-9.4,77.2-14.1
			c12-2.2,24.1-4.4,36.1-6.6c6.1,25.1,25.9,32,47.9,35.2C540.3,677.6,571.1,653.2,570.3,618.8z"/>
	</g>
</g>
<g id="Layer_2">
</g>
</svg>
