<?xml version="1.0" encoding="utf-8"?>
<!-- Generator: Adobe Illustrator 19.2.1, SVG Export Plug-In . SVG Version: 6.00 Build 0)  -->
<svg version="1.1" xmlns="http://www.w3.org/2000/svg" xmlns:xlink="http://www.w3.org/1999/xlink" x="0px" y="0px"
	 viewBox="0 0 1024 1024" enable-background="new 0 0 1024 1024" xml:space="preserve">
<g id="Layer_1">
	<circle id="XMLID_1_" fill="#445EAA" stroke="#FFFFFF" stroke-width="5" stroke-miterlimit="10" cx="512" cy="507.9" r="512"/>
</g>
<g id="Layer_2">
	<g id="s1JLJc.tif">
		<g id="XMLID_54_">
			<g id="XMLID_76_">
				<path id="XMLID_132_" fill="#445EAA" d="M512.4,682c-10.8,0-20.2-6.7-23.4-16.7c-1.2-3.6-2.8-6.4-5.1-8.6
					c-3.7-3.7-6.6-7.7-8.6-11.8c-1.8-3.8-4.6-7-9.1-10.5c-2.5-1.9-4.8-2.9-6.9-2.9c-2.8,0-5.3,1.9-7.3,5.7c-2.1,3.9-4.9,4.7-6.9,4.7
					c-1,0-2.1-0.2-3.1-0.6c-6.9-2.7-13.6-6.3-15.8-14.8c-1-3.7-3-6.4-6.3-8.6c-4.7-3-8.1-7.4-10.8-11.4c-1.4-2-2.7-2.7-4.7-2.7
					c-0.2,0-0.3,0-0.5,0c-1.6,0.1-3.4,0.1-5.5,0.1c-1.3,0-2.7,0-4.1,0c-0.9,0-1.9,0-2.9,0l-2,4.2l-29.1-1.9c-3.3-0.2-6-1.7-8.4-3
					c-3-1.7-6.1-3.4-9.2-5c-7.8-4.3-15.8-8.7-23.7-13.2c-4.7-2.7-8.9-4-13.2-4c-0.7,0-1.4,0-2.2,0.1c-0.9,0.1-1.8,0.1-2.9,0.1
					c-0.9,0-1.8,0-2.7-0.1c-0.5,0-1.1,0-1.6,0c-5.5-0.1-8.7-2.8-9.6-7.9c-0.3-1.9-0.8-3.6-1.6-5.2c-5.5,3-10.6,4.4-15.5,4.4
					c-1.7,0-3.4-0.2-5.1-0.5c-7.3-1.5-13.2-5.4-17.6-11.8c-7.4,5.2-14.9,8.5-23,10.1c-2.1,0.4-4.2,0.6-6.3,0.6
					c-13.8,0-25.8-8.5-30.6-21.7c-6.1-16.7-1-32,4.7-44.7c8.9-19.7,21.7-35.1,37.9-45.6c6.3-4.1,9.1-9.3,8.8-16.3
					c-0.5-10.4,1.8-20.4,6.9-29.8c4.7-8.6,7.8-18.4,10.5-27.1c1.7-5.4,1.6-10.9,1.5-16.8c0-1.3-0.1-2.7-0.1-4c0-0.7,0-1.4,0-2.1
					c-0.1-2.9-0.2-6.3,0.9-10.1l1-3.7l3,2.4c2,1.6,4.5,2.7,7,3.7c2.8,1.2,5.8,2.4,8.5,4.7c0-1.1-0.1-2.3-0.3-3.5
					c-0.3-2.6-0.6-5.2,0.3-8l0.7-2.2l2.3,0.5c2.4,0.5,4.8,1.1,7.1,1.7c5.1,1.2,10.4,2.5,15.6,3.5c20,3.9,42.1,7.1,69.5,10.2
					c35.8,4,68.5,6.5,100.2,7.6c10.7,0.4,20.1,0.6,28.7,0.6c7.4,0,14.3-0.1,21-0.4c0.8,0,1.7-0.1,2.5-0.1c2.6,0,6.1,0.2,9.7,1.8
					c1.3,0.6,3.1,0.7,5,0.8c0.7,0,1.3,0.1,2,0.1c0,0,0.1,0,0.2,0c0.3,0,0.7-0.1,1.1-0.1c0.5-0.1,1.1-0.1,1.7-0.1
					c1,0,1.8,0.2,2.5,0.6c5,3.1,10.6,3.3,16.6,3.5c3.2,0.1,6.6,0.2,9.8,0.8l0.2,0c1,0.1,3.2,0.5,4.4,3.3l0.8,1.9l-1.7,1.2
					c-0.7,0.5-1.5,1-2.2,1.4c-4.9,3.2-9.6,6.2-12.7,11.1c0.3,0,0.7,0,1,0c1.3,0,2.7,0.1,3.9,0.2c1.2,0.1,2.4,0.2,3.5,0.2
					c2.7,0,4.7-0.5,6.4-1.6c0.5-0.4,1.1-0.7,1.6-1c1.5-0.8,2.3-1.4,2.9-2.5c2.2-4.1,5.9-6.8,11.3-8.1l6.2-1.6l-6.2,9.5
					c3.5,0.9,6.5,2.5,8.9,5c0.1,0,0.3-0.1,0.6-0.2c0.6-0.3,1.1-0.5,1.7-0.8c0.9-0.4,1.8-0.8,2.5-1.2c3.5-2.2,6.9-3.3,10.4-3.3
					c4.7,0,9.4,2.2,13.9,6.4l1.9,1.8l-1.9,1.8c-0.8,0.7-1.7,1.5-2.9,2.2c5.8,0.5,14.3,4.9,15.2,10.3c0.5,3.2,0.9,7.3-0.5,11.4
					c1-0.8,2.4-1.5,4.2-1.5c0.5,0,1.1,0.1,1.7,0.2l1.3,0.3l0.5,1.3c0.4,1.1,0.9,2.3,1.4,3.4c2.3,5.5,4.9,11.8,0.8,19.4
					c-0.8,1.4-0.5,3.9-0.3,6.4c0.1,0.8,0.2,1.6,0.2,2.5c0.1,0,0.3,0,0.4,0c0.3,0,0.7,0,1.1-0.1c6.6-23.2,9.4-24.9,30.2-26.7
					c-0.1-1.7,0.1-3.3,1.1-4.7c1.4-2.1,4-2.8,7.4-3.4c1.2-0.2,2.4-0.3,3.6-0.4c3.4-0.3,6.7-0.6,9.3-2.7c1.7-1.3,2.6-2.5,2.7-3.3
					c0.1-0.8-0.6-2.1-2-3.6l-1-1.1l0.6-1.4c3.3-8.5,8.8-18.5,22.5-20.4c1.1-0.2,2.3-0.6,3.5-1c1.6-0.5,3.3-1.1,5.2-1.2
					c5.3-0.4,9-3.7,12.9-7.1c1-0.9,2-1.8,3-2.6c0.8-0.6,0.8-2.1,0.8-4.2c0-0.7,0-1.3,0-1.9c0.1-2,0.1-3.9,0.1-6
					c0-4.1-0.1-8.4,1.1-12.7c0.6-2.1,1.3-4.4,2.9-7l1.1-1.7l1.9,0.7c1,0.4,2,0.5,3,0.5c1.1,0,2-0.2,2.9-0.6c1.2-0.6,2.3-0.9,3.3-0.9
					c3,0,4.7,2.1,6,3.9l0.1,0.1c0.6,0.9,1.3,1.9,1.7,3.1c2.9,9.3,6.8,15.2,12.6,19c1.2,0.8,1.8,1.9,2.4,3c0.2,0.3,0.4,0.7,0.6,1
					l1.1,1.6l-1.3,1.5c-4.1,4.5-8.4,9.1-14.2,12c-0.1,5-3.9,7.2-6.5,8.7c-0.7,0.4-1.5,0.8-2,1.3c-2.1,1.5-2.3,3.5-2.6,6.6
					c-0.1,1-0.2,2-0.3,3c-0.9,5,1.7,10.5,4.6,12.5l-1.5-7.8l5.1,3.7c3,2.2,3.8,4.8,4.5,6.8c0.1,0.5,0.3,0.9,0.4,1.4l0.8,2.2
					l-2.2,0.9c-1.6,0.7-3.2,1.2-4.7,1.7c-1.7,0.5-3.2,1-4.7,1.7c10.7,2.3,15.6,9.2,15.8,22.1c0.2,14,0.2,28.3,0.1,42
					c0,5.9,0,11.9,0,17.8v3.6c0.6,0.1,1.2,0.2,1.8,0.2c0.7,0,1.5-0.1,2.3-0.1l0.7-0.1c2.5-0.2,5.1-0.3,7.6-0.3
					c3.9,0,7.9,0.3,12.1,0.7c8.2,1,13.7,5.4,15.8,12.8c2.6,9.1,2.8,17.7,0.5,25.7c-2.6,9-8.7,13.8-17.8,13.9
					c-4.3,0.1-8.7,0.2-13,0.3c-6.8,0.2-13.9,0.3-20.8,0.3c-9.7,0-17.7-0.3-25.2-1c-1.4-0.1-2.8-0.2-4.3-0.2c-3.5,0-7,0.3-10.4,0.7
					c-3.5,0.3-7.1,0.7-10.8,0.7c-1.9,0-3.6-0.1-5.2-0.3c-1.3-0.1-2.6-0.5-3.9-0.8c-1.5-0.4-2.9-0.8-4.1-0.8c-1.2,0-2.1,0.3-2.9,1.1
					c-5.4,4.6-8.8,10.6-10.4,18.4c-1.8,8.8,0.5,16.4,7,23c6.4,6.6,10.7,14.5,14.8,22.2c1.7,3.2,3.5,6.6,5.4,9.8
					c3.4,5.6,2.3,12.6,1.1,17.4c-1.6,6.6-8.2,7.5-11.3,8l-1.7,0.2l-0.8-1.5c-2.9-5.4-7.4-9.3-12.2-13.3c-2.2-1.9-4.4-3.8-6.5-5.8
					c-5.3-5.3-8.4-11.5-9.4-19.2c-0.5-3.9-1.3-6.1-3.9-7.5c-1.7-1-3.3-2.1-4.8-3.2c-0.5-0.4-1-0.7-1.5-1.1c-2.4-1.7-4.6-3.1-6.5-3.1
					c-1.4,0-2.8,0.7-4.4,2.3c-1.9,1.9-4.3,2.9-7,2.9c-2.2,0-4.5-0.7-6.8-2.1c-3.6-2.1-7.4-3.2-11.1-3.2c-4.2,0-8.4,1.3-12.7,3.9
					l-1.5,0.9l-3.3-2.7c-2.3,1.1-4.8,1.4-7,1.6c-1.7,0.2-3.2,0.3-4.6,0.8l1.5,1.4l-0.7,1.6c-0.9,2.1-1.3,3-1.2,3.7
					c0.1,0.9,1.1,2.4,2.7,4.9l1.4,2.2l-2.2,1.3c-0.7,0.4-1.5,0.7-2.3,0.7c-1.5,0-2.6-0.7-3.4-1.2c-0.1-0.1-0.3-0.2-0.4-0.3
					c-0.9-0.5-1.5-0.6-1.9-0.6c-0.9,0-2,0.4-3.4,0.9c-2.3,0.8-5.3,1.8-8.4,1.8c-3.2,0-6-1-8.3-2.9c-0.9-0.7-1.6-1-2.8-1
					c-0.3,0-0.7,0-1.2,0.1c-1.1,0.1-2.3,0.2-3.6,0.2c-2.5,0-5-0.2-7.2-0.4c-1.7-0.2-3.4-0.3-4.9-0.3c-8.5,0-15.1,2.6-20.7,8.1
					c-0.5,0.5-1,1-1.5,1.6c-3,3.2-6.8,7.1-12.7,7.1c-0.2,0-0.3,0-0.5,0c-0.9,2.4-2.5,5.1-5.6,5.1c-6.4,7.2-4.7,14.8-2.8,23.5
					c0.2,1.1,0.5,2.2,0.7,3.4l0.5,2.4l-2.4,0.5C516.3,681.7,514.4,682,512.4,682z M256.4,524.2c0.1,7.3,0.7,12.4,2,17.2
					c1,3.5,2.4,6.3,4.4,8.5c1.2,1.3,2.8,2,4.5,2c1.9,0,3.8-0.9,5.3-2.6c0.7-0.8,1.1-1.5,1.1-1.9c-0.1-0.8-1.7-2-2.8-2.9
					c-0.2-0.2-0.5-0.4-0.7-0.6c-3.9-3-4.8-7.2-5.5-10.9l-0.2-1.1c-1.6-7.8-1-15.4,0.3-24.4c0.6-3.9,1.2-7.8,1.8-11.7
					c0.6-4,1.2-8.1,1.8-12.1c0.1-0.9,0.1-1.4,0.1-1.7c-4.6-0.6-7.3-3.5-9.7-6c-0.6-0.7-1.3-1.3-1.9-2c-0.9-0.8-2.2-1-4.3-1
					c-6.7,0-13.1,2.6-19.4,7.9c-11.2,9.4-19.9,21.2-26,35.2c-3,7-4.4,14.2-4.1,21.4c0.4,7.4,5.3,12.4,12.2,12.4c0,0,0,0,0,0
					c1.3,0,2.6-0.2,4-0.5c5.2-1.4,10.3-4.1,15.8-8.6c4.8-3.8,8.6-8.5,13.1-13.8c1.2-1.5,2.5-2.9,3.8-4.5l4.3-5L256.4,524.2z
					 M608,450.2c-14.7,0-29.3,5.2-38.1,13.5c-12.3,11.6-16.8,26.6-14.2,47.3c1.9,15.2,9.3,26.4,22.1,33.1c8,4.2,16.7,6.3,26.7,6.3
					c2.9,0,6-0.2,9.2-0.6c5.3-0.6,10-1.3,14.5-3.2l-2-9.6c-0.4,0.1-0.8,0.2-1.1,0.3c-2.6,0.7-5.1,1.3-7.7,1.7
					c-3.2,0.5-6.4,0.7-9.5,0.7c-22.6,0-36.7-13-38.7-35.5c-1.1-12.5,2.4-23.8,9.8-31.9c7-7.7,17.2-11.9,28.6-11.9
					c2.5,0,5.2,0.2,7.8,0.6c2.5,0.4,4.8,1,7.2,1.6c1.2,0.3,2.4,0.6,3.7,0.9l2.7-9.4C622.8,451.6,615.6,450.2,608,450.2z
					 M319.1,422.7c-1.5,0-2.9,0.8-4.1,2.4c-1.8,2.4-2.6,5.3-3.2,8.1c-4.7,21.9-8.8,45.2-12.6,71.1c-0.4,2.4-0.8,4.9-1.3,7.2
					c-1.9,10.1-3.8,19.7,2.2,29.3c4,6.5,6.7,9.2,12.8,9.5c0.4,0,0.8,0,1.2,0c3.8,0,7.6-0.8,11-2.4c19.2-8.8,32-24.2,38-45.6
					c1.8-6.5,2.2-12.4,1.1-17.9c-1.4-7.3-5.7-11.4-12-11.4c-1.6,0-3.4,0.3-5.2,0.8c-4.1,1.2-8,3.3-12.7,6.6
					c-9.3,6.7-17,15.5-24.9,28.6l-4.6,7.7v-9c0-0.7,0-1.3,0-1.7c0-0.8,0-1.4,0.1-2c3.6-20,7-37.9,13.2-55.4
					c2.7-7.5,4.8-14.3,4.3-21.6c-0.2-3.6-1.2-4.1-2.2-4.3C319.9,422.7,319.5,422.7,319.1,422.7z M494.3,449.8c-7.9,0-15.4,2-22.4,6
					c-15.7,8.9-23.3,23.3-23.9,45.1c0,4.4,0.4,8.7,1.3,13.2c3.6,18.3,16.5,32,32.7,35c4.3,0.8,8.4,1.2,12.2,1.2
					c15.3,0,27.6-6.3,36.4-18.6c8-11.3,10.8-25.2,8.4-42.6C535.9,466.3,517.1,449.8,494.3,449.8z M651.2,548.5c2.6,0,4.8,0,6.8,0.1
					c0,0,0,0,0,0c0.5,0,0.6-0.1,0.6-0.1c0,0,0.2-0.3,0.5-1.2c1.1-3.7,2.2-7.5,3.3-11.2c1.1-3.6,2.3-7.3,3.3-11
					c0.7-2.6,2.2-5.5,6.8-5.5l0.3,0c4,0.1,8.2,0.1,12.8,0.1c4,0,8.3,0,13.3-0.1l0.2,0c3.6,0,5.6,1.6,6.6,5.2c1.3,4.5,2.8,9,4.2,13.3
					c1,3,2,6.1,2.9,9.1l0,0.1c0.1,0.4,0.3,0.9,0.4,1.2c0,0,0.1,0,0.2,0c2.5,0,5,0,7.4,0c1.6,0,3.3,0,5,0c0.6,0,1.3,0,1.9,0
					c-2.5-7.7-5-15.4-7.5-23.1c-7.8-23.7-15.8-48.2-23.6-72.3c-0.4-1.4-0.7-1.4-2-1.4l-1.1,0c-2.6,0.1-5.4,0.1-8.1,0.1
					c-2.6,0-5-0.1-7.1-0.2c-0.2,0-0.4,0-0.5,0c-1.5,0-2,0.1-2.8,2.6c-6.1,19.3-12.5,38.8-18.6,57.7c-2.3,7-4.5,14-6.8,21
					c-1.3,4.2-2.7,8.3-4,12.6l-1,3c0.6,0,1.2,0,1.7,0C648.2,548.5,649.7,548.5,651.2,548.5z M803.8,548.3v-10.4h-42.1V452H749v96.3
					H803.8z M438.9,548.2v-10h-41.7v-86.1h-13v96.1H438.9z M604.4,428.7c0.7,0,1.4,0,2,0c1.9,0,3.7-0.1,4.1-0.5
					c0.6-0.6,1-2.9,1.6-5.8c0.1-0.4,0.1-0.7,0.2-1.1c0.5-3,1.3-7,6.5-8.9c0.4-0.3,1.1-2.1,1.6-3.1c0.4-1,0.8-2,1.3-2.9
					c0.1-0.1,0.1-0.3,0.2-0.5c0.3-0.6,0.7-1.6,1.5-2.2c-0.7-0.1-1.5-0.2-2.3-0.5c-0.6-0.2-1.1-0.3-1.7-0.3c-1.5,0-3.1,0.6-5.1,1.9
					c-0.5,0.3-1,0.8-1.5,1.4c-1.4,1.4-3.3,3.4-7,3.4c-0.1,0-0.2,0-0.4,0c-0.4,0.6-1,1.9-1.4,3.1l0.9,0l0.7,0.7
					c0.2,0.2,0.3,0.3,0.5,0.5l1,0.9L604.4,428.7z"/>
				<path id="XMLID_114_" fill="#FFFFFF" d="M770.7,345.4c1.7,0,2.8,1.2,3.9,2.8c0.6,0.8,1.2,1.7,1.4,2.6
					c2.5,8.2,6.2,15.5,13.7,20.4c1,0.7,1.5,2.1,2.3,3.2c-4.3,4.6-8.4,9-13.9,11.7c-0.4,0.2-1.1,0.1-1,0.7c0.8,5.7-4.3,6.9-7.5,9.3
					c-4.1,3-3.2,7.3-3.9,11.2c-1.1,6.4,2.2,13.4,6.6,15.5c0.7,0.3,1.3,0.6,2.1,0.6c0.4,0,0.9-0.1,1.5-0.4c-0.3-1.3-0.5-2.7-1-5
					c3,2.1,3.1,4.7,4,7.1c-4.8,2.1-10.1,2.4-14.1,6.6c1.4,0.5,2.4,1,3.5,1.2c9.7,1.6,15.2,6.4,15.5,20c0.3,19.9,0.1,39.9,0.1,59.8
					c0,1.8,0,3.6,0,5.3c1.5,0.8,2.9,1,4.3,1c1.1,0,2.2-0.1,3.2-0.2c2.5-0.2,5-0.3,7.4-0.3c3.9,0,7.9,0.3,11.8,0.7
					c6.9,0.8,11.8,4.4,13.7,11c2.3,8,2.8,16.2,0.5,24.3c-2.2,7.7-7.3,12-15.5,12.1c-11.3,0.2-22.6,0.6-33.8,0.6
					c-8.3,0-16.7-0.2-24.9-1c-1.5-0.1-3-0.2-4.5-0.2c-7.2,0-14.1,1.3-21.2,1.3c-1.6,0-3.3-0.1-4.9-0.2c-2.6-0.3-5.5-1.6-8.2-1.6
					c-1.6,0-3.1,0.4-4.5,1.7c-6.1,5.2-9.6,12-11.2,19.8c-2,9.8,0.7,18.1,7.6,25.3c8.9,9.1,13.5,20.9,19.9,31.6
					c2.8,4.6,2.1,10.3,0.8,15.5c-1.1,4.5-5.1,5.5-9.2,6.1c-4.5-8.5-12.7-13.3-19.1-19.8c-5.1-5.1-7.8-11-8.7-17.7
					c-0.6-4-1.4-7.3-5.2-9.4c-2.2-1.2-4.1-2.7-6.1-4.2c-2.7-1.9-5.2-3.6-8-3.6c-1.9,0-3.9,0.8-6.1,3c-1.5,1.5-3.2,2.2-5.2,2.2
					c-1.7,0-3.6-0.6-5.6-1.7c-4.1-2.4-8.2-3.6-12.4-3.6c-4.7,0-9.3,1.4-14,4.3c-1.1-0.9-2.1-1.8-3.3-2.7c-4.8,3.5-11.3,0.7-16,5.1
					c0.9,0.8,1.8,1.6,2.7,2.4c-2,4.9-2,4.9,1.7,10.9c-0.4,0.2-0.7,0.3-1.1,0.3c-1,0-1.8-0.7-2.5-1.2c-1.1-0.7-2.1-0.9-3.1-0.9
					c-1.3,0-2.6,0.4-4.2,1c-2.3,0.8-4.9,1.6-7.6,1.6c-2.3,0-4.6-0.6-6.7-2.4c-1.4-1.2-2.8-1.6-4.4-1.6c-0.5,0-0.9,0-1.4,0.1
					c-1.1,0.1-2.2,0.2-3.4,0.2c-2.3,0-4.6-0.2-6.9-0.4c-1.7-0.2-3.5-0.3-5.1-0.3c-8.4,0-15.9,2.3-22.5,8.8
					c-3.4,3.4-6.8,7.9-12.4,7.9c-0.7,0-1.4-0.1-2.2-0.2c-0.9,2.7-1.8,5.3-4,5.3c-0.3,0-0.6,0-0.9-0.1c-9.3,9.4-5.6,19.8-3.6,30
					c-1.8,0.4-3.5,0.6-5.2,0.6c-9.6,0-18.1-5.8-21-14.9c-1.2-3.7-2.9-6.9-5.7-9.7c-3.3-3.3-6.1-7-8.1-11.1
					c-2.3-4.8-5.7-8.2-9.8-11.4c-2.9-2.3-5.8-3.4-8.4-3.4c-3.7,0-7,2.3-9.5,7c-1.2,2.2-2.7,3.4-4.7,3.4c-0.7,0-1.4-0.1-2.2-0.5
					c-6.4-2.5-12.4-5.6-14.3-13.1c-1.1-4.3-3.5-7.6-7.4-10c-4.2-2.7-7.3-6.7-10.2-10.7c-1.7-2.5-3.7-3.8-6.7-3.8c-0.2,0-0.4,0-0.7,0
					c-1.8,0.1-3.5,0.1-5.3,0.1c-2.7,0-5.5-0.1-8.5-0.1c-0.3,0.7-1,2.2-1.9,4.1c-9-0.6-18.2-1.2-27.4-1.8c-2.7-0.2-5-1.4-7.3-2.7
					c-10.9-6-22-11.9-32.8-18.2c-4.6-2.7-9.3-4.3-14.5-4.3c-0.8,0-1.6,0-2.4,0.1c-0.9,0.1-1.8,0.1-2.7,0.1c-1.4,0-2.8-0.1-4.2-0.1
					c-3.9-0.1-6.5-1.6-7.2-5.8c-0.5-2.7-1.2-5.5-3.3-8.1c-5.1,3.1-10.5,5.2-16.3,5.2c-1.5,0-3.1-0.1-4.6-0.5
					c-7.6-1.5-13.4-6-17.4-12.9c-7.4,5.7-15.3,9.5-24.2,11.2c-1.9,0.4-3.9,0.6-5.8,0.6c-12.5,0-23.8-7.8-28.2-20.1
					c-5.5-15.1-1.5-29.3,4.7-42.9c8.2-18.1,20-33.6,37-44.6c6.7-4.3,10.3-10.2,9.9-18.6c-0.5-10,1.7-19.5,6.6-28.5
					c4.7-8.7,7.7-18.1,10.7-27.5c2.2-7.1,1.6-14.3,1.5-21.6c0-3.6-0.4-7.2,0.8-11.6c5.9,4.8,14,4.6,18.3,11.9
					c2.9-5.6-0.5-10.9,1.1-16.2c7.6,1.7,15.2,3.7,22.8,5.2c23.1,4.5,46.3,7.6,69.7,10.2c33.4,3.7,66.8,6.4,100.4,7.6
					c9.6,0.3,19.2,0.6,28.8,0.6c7,0,14.1-0.1,21.1-0.4c0.8,0,1.6-0.1,2.4-0.1c2.9,0,5.8,0.3,8.7,1.6c2.3,1,5.1,0.9,7.7,1.2
					c0.1,0,0.3,0,0.4,0c0.9,0,2-0.3,2.8-0.3c0.4,0,0.8,0.1,1.2,0.3c8.5,5.3,18.2,3,27.3,4.6c0.8,0.2,2,0.1,2.8,1.9
					c-6.9,4.6-14.5,8.7-17.9,17.9c1.8-0.6,3.6-0.8,5.4-0.8c2.5,0,5,0.3,7.5,0.3c2.6,0,5.2-0.4,7.8-2c2-1.3,4.1-1.9,5.4-4.3
					c1.8-3.4,4.8-5.7,9.7-6.9c-1.8,2.8-3.1,4.7-4.8,7.4c4.6,0.4,8.5,2,11.6,5.1c0.4,0.4,0.9,0.5,1.4,0.5c0.6,0,1.3-0.2,1.9-0.5
					c1.5-0.7,3.1-1.3,4.4-2.1c3.1-2,6.1-2.9,9-2.9c4.3,0,8.3,2,12.2,5.7c-1.7,1.6-3.6,2.7-5.8,2.7c-0.7,0-1.5-0.1-2.4-0.4
					c-0.8-0.3-1.6-0.4-2.4-0.4c-2.3,0-4.4,1-6.4,2.2c-2.3,1.5-3.3,4.3-7.2,4.3c-0.2,0-0.4,0-0.6,0c0,0-0.1,0-0.1,0
					c-2.4,0-3.4,5.6-4.8,8.7c0.4,0.2,0.8,0.3,1.1,0.3c1,0,1.6-0.9,2.4-0.9c0,0,0,0,0,0c0.2,0.2,0.4,0.4,0.6,0.6c-1,5-2,10-3,15.1
					c1.1,0.1,1.9,0.3,2.7,0.3c0.8,0,1.6,0,2.2,0c6.6,0,6.7-0.7,8.2-8.3c0.6-3.3,0.7-6.5,5.1-8.1c2-0.7,2.8-4.6,4.2-7.1
					c0.4-0.7,0.6-1.7,1.2-2c0.7-0.4,1.7-0.6,2.8-0.6c5.1,0,13.1,4.3,13.7,8.3c0.7,4.3,0.7,8.5-1.4,12.5c-0.8,1.5-2,3.1-1.4,5.1
					c0,0,0,0,0,0c2.4,0,3.2-2.1,4.6-3.2c1.3-1,2.4-2.4,4.3-2.4c0.3,0,0.7,0,1.1,0.1c2.4,6.7,6.6,12.8,2.3,20.8
					c-1.6,3-0.3,7.7-0.3,11.9c0.9,0.5,1.8,0.7,2.8,0.7c1,0,2-0.2,3.1-0.3c6.8-24.4,8.2-24.8,31.1-26.7c-1.1-5.5,0-7,6-7.9
					c4.8-0.7,9.9-0.3,14.1-3.6c4.5-3.5,4.8-6.3,1-10.5c3.7-9.6,9.3-17.2,20.5-18.8c2.9-0.4,5.7-2,8.6-2.2c7.5-0.6,12.1-6,17.3-10.3
					c2.2-1.8,1.6-5.2,1.8-7.9c0.4-6.1-0.5-12.2,1.1-18.2c0.6-2.1,1.2-4.1,2.6-6.3c1.2,0.4,2.5,0.7,3.8,0.7c1.4,0,2.7-0.3,4-0.9
					C769.3,345.6,770.1,345.4,770.7,345.4 M314.1,552.8c4.2,0,8.3-0.9,12.1-2.6c20.6-9.5,33.3-25.7,39.4-47.2
					c1.7-6.2,2.4-12.5,1.2-19c-1.7-8.6-7-13.4-14.4-13.4c-1.8,0-3.8,0.3-5.9,0.9c-5,1.5-9.3,4-13.5,7c-10.5,7.5-18.3,17.3-25.6,29.3
					c0-2-0.1-2.6,0-3.3c3.3-18.6,6.8-37.1,13.1-55c2.6-7.3,5-14.7,4.5-22.6c-0.2-2.8-0.8-5.8-4.1-6.6c-0.6-0.1-1.1-0.2-1.7-0.2
					c-2.4,0-4.5,1.3-6.1,3.4c-2,2.7-3,5.8-3.7,9.1c-5,23.6-9.1,47.4-12.7,71.3c-1.9,12.6-6.7,25.4,1.3,38.2
					c3.9,6.3,7.2,10.4,14.8,10.7C313.2,552.8,313.7,552.8,314.1,552.8 M494.3,552.8c15.2,0,28.5-5.8,38.4-19.7
					c9.4-13.3,11-28.6,8.8-44.4c-3.5-24.9-24.5-41.4-47.2-41.4c-7.9,0-16,2-23.7,6.3c-18.3,10.4-24.6,27.3-25.2,47.2
					c0,4.7,0.5,9.2,1.4,13.8c3.7,18.9,17.3,33.8,34.7,36.9C486,552.4,490.2,552.8,494.3,552.8 M604.5,552.9c3.1,0,6.3-0.2,9.5-0.6
					c5.7-0.7,11.6-1.5,17-4.3c-1-4.8-1.9-9.3-2.9-14c-3.9,0.9-7.5,2-11.2,2.5c-3.1,0.5-6.2,0.7-9.1,0.7c-19.6,0-34.2-10.5-36.2-33.3
					c-2.1-24,13.4-41.1,35.9-41.1c2.4,0,4.9,0.2,7.4,0.6c4.3,0.7,8.5,2.1,13,3c1.3-4.6,2.6-9,3.9-13.7c-7.1-3.4-15.4-5.1-23.9-5.1
					c-14.9,0-30.1,5-39.8,14.1c-14.4,13.6-17.3,30.8-14.9,49.4c2,15.5,9.4,27.6,23.4,35C585.4,551,594.8,552.9,604.5,552.9
					 M641.5,551c3.5,0,6.7,0,9.8,0c2.3,0,4.5,0,6.7,0.1c0.1,0,0.1,0,0.1,0c2.2,0,2.9-1.1,3.4-3.1c2.1-7.4,4.5-14.7,6.6-22.2
					c0.7-2.5,1.7-3.7,4.4-3.7c0.1,0,0.2,0,0.2,0c4.3,0.1,8.6,0.2,12.9,0.2c4.4,0,8.9,0,13.3-0.1c0.1,0,0.1,0,0.2,0
					c2.5,0,3.5,0.9,4.2,3.4c2.2,7.6,4.8,15,7.1,22.5c0.5,1.7,0.9,3,3,3c0,0,0,0,0.1,0c2.5,0,4.9,0,7.4,0c3.3,0,6.6,0,10,0
					c-0.2-1-0.2-1.7-0.4-2.3c-10.5-32.1-21-64.2-31.4-96.4c-0.8-2.5-2.1-3.1-4.3-3.1c-0.1,0-0.2,0-0.3,0c-2.9,0.1-5.9,0.1-8.8,0.1
					c-2.3,0-4.6,0-7-0.2c-0.2,0-0.5,0-0.7,0c-2.9,0-4.2,1.3-5.2,4.3c-8.3,26.3-16.9,52.4-25.4,78.7
					C645.5,538.2,643.6,544.4,641.5,551 M746.5,550.8c20.1,0,39.8,0,59.8,0c0-5.3,0-10.1,0-15.4c-14.1,0-27.9,0-42.1,0
					c0-28.9,0-57.3,0-85.9c-6.2,0-11.8,0-17.7,0C746.5,483.4,746.5,517,746.5,550.8 M381.8,550.7c20.1,0,39.9,0,59.7,0
					c0-5.1,0-10,0-15c-13.9,0-27.4,0-41.7,0c0-29,0-57.4,0-86.1c-6.4,0-12.2,0-18,0C381.8,483.5,381.8,517,381.8,550.7 M215.3,552.5
					c1.5,0,3-0.2,4.6-0.6c6.3-1.7,11.7-5,16.7-9c6.3-5.1,11.1-11.5,17.2-18.6c0.1,6.9,0.6,12.4,2.1,17.8c1,3.5,2.5,6.8,5,9.5
					c1.8,1.9,4,2.8,6.3,2.8c2.5,0,5.1-1.1,7.2-3.4c4-4.5,0.1-6.8-2.8-9c-3.5-2.7-4-6.7-4.8-10.5c-1.6-7.8-0.8-15.7,0.3-23.5
					c1.2-8,2.4-15.9,3.6-23.8c0.3-1.9,0.2-4.3-1.8-4.5c-5-0.5-7.3-4.4-10.4-7.4c-1.6-1.6-3.8-1.7-6-1.7c0,0,0,0,0,0
					c-8.1,0-15,3.4-21,8.5c-11.8,9.9-20.6,22.1-26.7,36.2c-3.1,7.1-4.6,14.7-4.3,22.6C201,546.7,207.3,552.5,215.3,552.5
					 M758.5,340.2l-2.1,3.4c-1.7,2.8-2.5,5.3-3.2,7.6c-1.2,4.6-1.2,9.1-1.1,13.4c0,2,0,3.9-0.1,5.8c0,0.7,0,1.4,0,2.1
					c0,0.7,0,1.9-0.1,2.4c-1,0.8-2,1.7-2.9,2.5c-3.7,3.3-7,6.2-11.4,6.5c-2.2,0.2-4.1,0.8-5.8,1.4c-1.1,0.4-2.2,0.7-3.1,0.9
					c-15.2,2.1-21.2,13.6-24.5,22l-1.1,2.9l2.1,2.3c0.8,0.9,1.1,1.4,1.3,1.7c-0.2,0.3-0.6,0.8-1.6,1.6c-1.9,1.5-4.3,1.8-8,2.2
					c-1.2,0.1-2.5,0.2-3.8,0.4c-3.5,0.5-7,1.4-9,4.4c-0.8,1.2-1.3,2.5-1.4,3.9c-9,0.8-14.9,1.8-19.5,5.6c-2.1,1.7-3.7,3.9-5.1,6.6
					c0.1-4.7-1.7-8.9-3.2-12.5c-0.5-1.2-0.9-2.2-1.3-3.3l-0.9-2.5l-2.6-0.6c-0.8-0.2-1.5-0.3-2.2-0.3c-0.3,0-0.6,0-0.8,0
					c0.3-3,0-5.7-0.4-7.9c-0.9-5.1-6.5-9.2-12.1-11.2l2.9-2.7l-3.9-3.6c-5-4.7-10.3-7.1-15.7-7.1c-3.9,0-7.8,1.2-11.7,3.7
					c-0.6,0.4-1.4,0.7-2.2,1.1c-0.3,0.1-0.5,0.2-0.8,0.4c-1.7-1.4-3.5-2.5-5.6-3.4l0.9-1.5l7-10.8l-12.4,3.2
					c-6.1,1.6-10.3,4.6-12.9,9.4c-0.3,0.5-0.6,0.7-2,1.5c-0.5,0.3-1.1,0.6-1.8,1c-1.4,0.9-2.8,1.2-5.1,1.2c-1.1,0-2.2-0.1-3.4-0.2
					c0,0,0,0,0,0c2.6-2.6,5.7-4.6,8.9-6.7c0.7-0.5,1.5-1,2.2-1.5l3.5-2.3l-1.6-3.8c-1.8-4.1-5.2-4.6-6.3-4.8l-0.1,0
					c-3.5-0.6-6.9-0.7-10.2-0.8c-5.8-0.2-10.9-0.3-15.3-3.1c-1.1-0.7-2.4-1-3.8-1c-0.8,0-1.5,0.1-2,0.2c-0.2,0-0.6,0.1-0.8,0.1
					c-0.7-0.1-1.3-0.1-2-0.1c-1.6-0.1-3.2-0.2-4.1-0.6c-4-1.8-7.9-2-10.8-2c-0.8,0-1.6,0-2.6,0.1c-6.7,0.3-13.5,0.4-20.9,0.4
					c-8.5,0-17.9-0.2-28.6-0.6c-31.6-1.1-64.3-3.6-100-7.6c-27.3-3.1-49.3-6.3-69.3-10.1c-5.2-1-10.4-2.2-15.5-3.5
					c-2.4-0.6-4.8-1.1-7.2-1.7l-4.5-1l-1.4,4.5c-0.8,2.6-0.8,5.1-0.5,7.3c-1.6-0.8-3.1-1.5-4.6-2.1c-2.4-1-4.6-1.9-6.4-3.4l-6-4.8
					l-2,7.4c-1.1,4.2-1,7.8-1,10.9c0,0.7,0,1.4,0,2c0,1.4,0,2.7,0.1,4.1c0.1,5.7,0.2,11-1.4,16c-2.7,8.5-5.8,18.2-10.4,26.6
					c-5.3,9.7-7.7,20.2-7.2,31.1c0.3,6.1-2.1,10.5-7.7,14.1c-16.7,10.8-29.8,26.5-38.9,46.7c-3.8,8.4-6,15.5-7.1,22.2
					c-1.3,8.6-0.6,16.6,2.3,24.5c5.1,14.2,18.1,23.4,32.9,23.4c2.2,0,4.5-0.2,6.7-0.6c7.7-1.5,14.9-4.5,22-9.1
					c4.6,5.7,10.5,9.3,17.6,10.8c1.9,0.4,3.7,0.6,5.6,0.6c4.6,0,9.3-1.1,14.2-3.5c0.2,0.7,0.3,1.4,0.4,2.1c0.6,3.7,3,9.8,12,10
					c0.5,0,1,0,1.6,0c0.9,0,1.8,0.1,2.8,0.1c1.2,0,2.2,0,3.1-0.1c0.6-0.1,1.3-0.1,1.9-0.1c3.9,0,7.7,1.2,12,3.6
					c7.8,4.5,15.9,8.9,23.7,13.2c3.1,1.7,6.1,3.3,9.2,5c2.5,1.4,5.6,3.1,9.4,3.3c6.6,0.4,13.3,0.9,19.9,1.3l7.5,0.5l3.4,0.2l1.4-3.1
					l0.6-1.2c0.4,0,0.8,0,1.3,0c1.4,0,2.8,0,4.1,0c2.2,0,4,0,5.6-0.2c0.1,0,0.2,0,0.4,0c0.9,0,1.6,0.1,2.7,1.7
					c2.9,4.1,6.5,8.8,11.5,12c2.8,1.8,4.4,4,5.2,7.1c2.8,10.8,12.6,14.6,17.3,16.4c1.4,0.5,2.7,0.8,4,0.8c2.2,0,6.3-0.8,9.1-6
					c1.6-2.9,3.3-4.4,5.1-4.4c1.5,0,3.3,0.8,5.3,2.4c4.2,3.3,6.7,6.2,8.4,9.6c2.1,4.4,5.2,8.7,9.1,12.5c2,2,3.4,4.4,4.4,7.6
					c3.5,11,13.9,18.4,25.8,18.4c2.1,0,4.2-0.2,6.3-0.7l4.8-1.1l-1-4.8c-0.2-1.1-0.5-2.3-0.7-3.4c-1.9-8.9-2.9-14.9,1.6-20.6
					c3.1-0.5,4.9-2.8,6-5c6.3-0.5,10.3-4.7,13.3-7.8c0.5-0.5,1-1,1.5-1.5c5.1-5,11.1-7.4,19-7.4c1.5,0,3,0.1,4.6,0.2
					c2.2,0.2,4.8,0.5,7.4,0.5c1.4,0,2.7-0.1,3.9-0.2c0.4,0,0.7-0.1,0.9-0.1c0.6,0,0.8,0.1,1.2,0.4c2.8,2.3,6.1,3.5,9.9,3.5
					c3.5,0,6.8-1,9.3-1.9c0.8-0.3,2-0.7,2.5-0.7c0.2,0,0.4,0.1,0.6,0.3c0.1,0.1,0.2,0.1,0.3,0.2c0.9,0.6,2.5,1.7,4.7,1.7
					c1.3,0,2.5-0.3,3.6-1l4.4-2.6l-2.7-4.4c-1-1.6-2-3.2-2.3-3.9c0.1-0.5,0.6-1.5,1-2.4l0.9-2.2c0.2,0,0.5,0,0.7-0.1
					c1.9-0.2,4.1-0.4,6.3-1.2l0.7,0.6l2.7,2.3l3.1-1.9c3.9-2.4,7.7-3.5,11.4-3.5c3.3,0,6.6,1,9.9,2.9c2.7,1.6,5.5,2.4,8.1,2.4
					c3.3,0,6.3-1.3,8.7-3.7c0.7-0.7,1.7-1.6,2.6-1.6c1.3,0,3.6,1.6,5.1,2.7c0.5,0.3,1,0.7,1.5,1.1c1.6,1.2,3.2,2.4,5.1,3.4
					c1.5,0.8,2.1,1.8,2.6,5.7c1.1,8.2,4.4,14.9,10.1,20.6c2.2,2.1,4.4,4.1,6.7,6c4.6,3.9,8.9,7.6,11.6,12.6l1.6,3.1l3.5-0.5
					c3.4-0.5,11.4-1.5,13.4-9.8c1.3-5.2,2.5-12.8-1.4-19.2c-1.9-3.1-3.6-6.3-5.4-9.6c-4.2-7.9-8.5-16-15.2-22.8
					c-6-6.1-8-12.7-6.3-20.8c1.5-7.2,4.6-12.8,9.6-17c0.4-0.3,0.7-0.5,1.3-0.5c0.9,0,2.2,0.3,3.5,0.7c1.3,0.3,2.7,0.7,4.2,0.9
					c1.7,0.2,3.5,0.3,5.5,0.3c3.8,0,7.4-0.3,11-0.7c3.5-0.3,6.8-0.6,10.2-0.6c1.4,0,2.8,0.1,4.1,0.2c7.6,0.7,15.6,1,25.4,1
					c7,0,14-0.2,20.9-0.3c4.3-0.1,8.7-0.2,13-0.3c10.1-0.1,17.3-5.7,20.2-15.7c2.4-8.4,2.2-17.5-0.5-27c-2.4-8.3-8.7-13.5-17.9-14.6
					c-4.2-0.5-8.4-0.8-12.4-0.8c-2.6,0-5.3,0.1-7.9,0.3c-0.2,0-0.5,0-0.7,0.1c-0.5,0-0.9,0.1-1.4,0.1v-1.3c0-6,0-11.9,0-17.9
					c0-13.8,0.1-28-0.1-42c-0.2-11-3.6-18.2-10.8-22.1c1-0.3,1.9-0.7,2.9-1.1l4.4-1.9l-1.7-4.5c-0.1-0.4-0.3-0.8-0.4-1.2
					c-0.7-2.2-1.7-5.5-5.4-8.1l-7.3-5.2c0-0.2,0.1-0.4,0.1-0.6c0.2-1.1,0.3-2.2,0.4-3.3c0.2-3.1,0.4-3.9,1.6-4.7
					c0.5-0.4,1.1-0.7,1.8-1.1c2.5-1.5,6.9-4,7.7-9.4c5.5-3.1,9.6-7.5,13.6-11.9l2.7-2.9l-2.2-3.3c-0.1-0.2-0.3-0.5-0.5-0.8
					c-0.6-1.2-1.5-2.7-3.2-3.9c-5.4-3.6-8.9-8.8-11.6-17.6c-0.5-1.6-1.4-2.9-2-3.8l-0.1-0.1c-0.8-1.2-3.4-4.9-8-4.9
					c-1.4,0-2.9,0.4-4.4,1.1c-0.5,0.3-1.1,0.4-1.8,0.4c-0.7,0-1.4-0.1-2.2-0.4L758.5,340.2L758.5,340.2z M607.6,412
					c3.5-0.6,5.6-2.6,6.9-3.9c0.4-0.4,0.8-0.8,1.1-1c1.6-1,2.7-1.4,3.7-1.5c-0.5,0.9-0.9,1.9-1.3,2.8c-0.3,0.6-0.6,1.5-0.9,2
					c-5.9,2.5-6.8,7.5-7.3,10.5c-0.1,0.3-0.1,0.7-0.2,1c-0.3,1.6-0.6,3.3-0.9,4.2c-0.3,0-0.7,0-1.3,0.1l0.2-1.1l1.7-8.3l0.5-2.7
					l-2-1.9C607.8,412.1,607.7,412,607.6,412L607.6,412z M314.1,547.8c-0.4,0-0.8,0-1.1,0c-4.9-0.2-7-2.3-10.8-8.3
					c-5.5-8.8-3.8-17.5-1.9-27.5c0.5-2.4,0.9-4.8,1.3-7.3c3.8-25.9,7.9-49.1,12.6-71c0.5-2.5,1.2-5.1,2.8-7.1c1-1.4,1.8-1.4,2.1-1.4
					c0.2,0,0.3,0,0.5,0.1c0.1,0.2,0.2,0.8,0.3,2c0.5,6.8-1.6,13.3-4.2,20.6c-6.2,17.6-9.7,35.7-13.3,55.8c-0.2,0.9-0.1,1.6-0.1,2.5
					c0,0.4,0,0.9,0,1.6v18l9.3-15.4c7.7-12.8,15.2-21.4,24.2-27.8c4.5-3.2,8.2-5.2,12-6.3c1.6-0.5,3.1-0.7,4.5-0.7
					c6.4,0,8.7,5.1,9.5,9.4c1,5.1,0.6,10.6-1.1,16.7c-5.9,21-17.9,35.4-36.6,44C321,547.1,317.6,547.8,314.1,547.8L314.1,547.8z
					 M450.5,500.9c0.6-20.9,7.8-34.5,22.6-43c6.6-3.8,13.8-5.7,21.2-5.7c10.1,0,19.9,3.6,27.6,10.2c8,6.8,13.2,16.3,14.7,26.9
					c2.3,16.7-0.3,30.1-7.9,40.8c-8.4,11.8-19.7,17.6-34.3,17.6c-3.7,0-7.7-0.4-11.8-1.1c-15.3-2.8-27.3-15.7-30.7-33
					C450.9,509.3,450.5,505.2,450.5,500.9L450.5,500.9z M604.5,547.9c-9.6,0-17.9-2-25.5-6c-12-6.4-19-16.9-20.8-31.2
					c-2.5-19.8,1.8-34.2,13.4-45.2c8.4-7.9,22.3-12.8,36.4-12.8c6.5,0,12.6,1,17.9,3l-1,3.6l-0.4,1.3c-0.4-0.1-0.9-0.2-1.3-0.3
					c-2.4-0.6-4.8-1.3-7.4-1.7c-2.8-0.4-5.5-0.7-8.2-0.7c-12.1,0-22.9,4.5-30.4,12.7c-7.9,8.6-11.6,20.6-10.4,33.8
					c1.1,12.3,5.5,21.9,13.2,28.5c7.1,6.1,16.7,9.3,27.9,9.3c3.2,0,6.5-0.3,9.8-0.8c2.2-0.3,4.4-0.8,6.6-1.4l1,5
					c-3.7,1.3-7.6,1.8-11.9,2.3C610.3,547.7,607.3,547.9,604.5,547.9L604.5,547.9z M678,454.1C678,454.1,678,454.1,678,454.1
					c0.2,0,0.3,0,0.5,0c2.2,0.1,4.6,0.2,7.2,0.2c2.7,0,5.5-0.1,8.1-0.1l0.7,0c7.8,24,15.7,48.3,23.4,71.9c2.2,6.6,4.3,13.3,6.5,19.9
					c-1.1,0-2.3,0-3.4,0c-2.2,0-4.1,0-5.9,0c-0.9-2.9-1.8-5.8-2.8-8.7c-1.4-4.3-2.9-8.8-4.1-13.3c-1.3-4.6-4.4-7-9-7l-0.2,0
					c-4.9,0.1-9.3,0.1-13.2,0.1c-4.6,0-8.7,0-12.7-0.1c-0.1,0-0.2,0-0.4,0c-4.7,0-7.8,2.5-9.2,7.4c-1,3.7-2.2,7.4-3.3,11
					c-1.1,3.5-2.2,7.1-3.2,10.7c-1.7,0-3.5,0-5.6,0c-1,0-2,0-3,0c1.4-4.3,2.6-8.3,4-12.4c2.3-7,4.5-14,6.8-21
					c6.1-18.9,12.5-38.4,18.6-57.7C677.8,454.6,677.9,454.3,678,454.1L678,454.1z M751.5,454.5h7.7v80.9v5h5h37.1v5.4h-49.8V454.5
					L751.5,454.5z M386.8,454.6h8v81.1v5h5h36.7v5h-49.7V454.6L386.8,454.6z M215.3,547.5c-5.5,0-9.4-4-9.7-10.1
					c-0.3-6.8,1-13.7,3.9-20.3c5.9-13.7,14.4-25.2,25.3-34.3c6-5,11.6-7.3,17.8-7.3c1.9,0,2.5,0.2,2.6,0.3c0.6,0.6,1.2,1.2,1.8,1.8
					c2,2.2,4.7,5.1,8.9,6.3c-0.6,3.8-1.1,7.7-1.7,11.5c-0.6,3.9-1.2,7.8-1.8,11.7c-1.4,9.3-1.9,17.2-0.3,25.3c0.1,0.3,0.1,0.7,0.2,1
					c0.7,3.7,1.7,8.8,6.4,12.4c0.2,0.2,0.5,0.4,0.8,0.6c0.4,0.3,1,0.7,1.4,1.1c0,0,0,0,0,0c-1,1.1-2.3,1.8-3.5,1.8
					c-1,0-1.9-0.4-2.7-1.2c-1.7-1.8-3-4.3-3.9-7.4c-1.3-4.5-1.8-9.5-1.9-16.5l-0.2-13.3l-8.6,10.1c-1.3,1.5-2.6,3-3.8,4.5
					c-4.4,5.3-8.2,9.8-12.8,13.5c-5.4,4.3-10,6.8-14.9,8.1C217.5,547.4,216.4,547.5,215.3,547.5L215.3,547.5z"/>
			</g>
			<path id="XMLID_43_" fill="#445EAA" d="M603.8,415.2c0.2-0.4,0.3-0.9,0.8-0.5c0.1,0.1-0.1,0.7-0.2,1.1
				C604.2,415.6,604,415.4,603.8,415.2z"/>
			<path id="XMLID_72_" fill="#FFFFFF" d="M445.5,500.9c0.6-19.9,6.9-36.8,25.2-47.2c29.5-16.8,66.2,1.4,70.9,35
				c2.2,15.9,0.6,31.1-8.8,44.4c-12.6,17.7-30.6,22.2-51.1,18.5c-17.4-3.2-31-18-34.7-36.9C446,510.1,445.5,505.5,445.5,500.9z
				 M465.2,502.1c-0.2,7.6,1.9,16.2,7.1,24c10,15.4,31.6,16.2,42.5,1.4c10.5-14.2,10.7-39.2,0.5-53.6c-11-15.5-32.8-15.2-43.2,0.7
				C467,482.4,465.3,491.2,465.2,502.1z"/>
			<path id="XMLID_69_" fill="#FFFFFF" d="M731,551c-5.9,0-11.7-0.1-17.4,0c-2.2,0-2.6-1.3-3.1-3c-2.3-7.5-4.9-15-7.1-22.5
				c-0.7-2.5-1.8-3.4-4.4-3.4c-8.7,0.1-17.5,0.2-26.2,0c-3-0.1-3.9,1.2-4.7,3.7c-2.1,7.4-4.5,14.7-6.6,22.2c-0.6,2-1.2,3.2-3.6,3.1
				c-5.3-0.1-10.5,0-16.5,0c2.1-6.6,4.1-12.8,6-18.9c8.5-26.2,17.1-52.4,25.4-78.7c1-3.2,2.4-4.5,5.8-4.3c5.3,0.3,10.5,0.2,15.8,0
				c2.4-0.1,3.8,0.5,4.6,3.1c10.4,32.2,20.9,64.3,31.4,96.4C730.8,549.3,730.9,550,731,551z M685.5,465.4
				c-3.8,14.2-8.5,28.1-12.9,42.5c9.1,0,17.5,0,26.3,0C694.4,493.5,689.6,479.7,685.5,465.4z"/>
			<path id="XMLID_66_" fill="#FFFFFF" d="M307.4,507.8c7.2-12,15.1-21.9,25.6-29.3c4.2-3,8.5-5.5,13.5-7
				c10.4-3.1,18.2,1.8,20.3,12.5c1.3,6.5,0.6,12.9-1.2,19c-6.1,21.6-18.8,37.7-39.4,47.2c-4.2,1.9-8.7,2.8-13.4,2.6
				c-7.6-0.3-10.9-4.4-14.8-10.7c-8-12.9-3.1-25.6-1.3-38.2c3.5-23.9,7.6-47.7,12.7-71.3c0.7-3.2,1.6-6.4,3.7-9.1
				c1.9-2.6,4.6-3.9,7.8-3.2c3.3,0.8,4,3.8,4.1,6.6c0.5,7.9-1.9,15.3-4.5,22.6c-6.3,17.9-9.8,36.4-13.1,55
				C307.3,505.2,307.4,505.8,307.4,507.8z M355.7,494.2c-0.1-10-4.7-12.9-12.5-9.2c-2.2,1-4.3,2.4-6.2,3.9
				c-13.5,11-23.7,24.4-30.5,40.5c-1,2.4-2.9,4.9-0.1,7.6c2.9,2.8,5.5,5.5,10.2,4.6c6.8-1.3,12.8-4.2,17.8-8.8
				C346.2,522,353.5,508.8,355.7,494.2z"/>
			<path id="XMLID_19_" fill="#FFFFFF" d="M631.9,452.8c-1.3,4.7-2.6,9.1-3.9,13.7c-4.5-0.9-8.7-2.3-13-3
				c-26.3-4.2-45.6,13.9-43.3,40.5c2.3,26.2,21.2,36.1,45.3,32.6c3.7-0.5,7.3-1.6,11.2-2.5c1,4.7,1.9,9.2,2.9,14
				c-5.5,2.8-11.3,3.6-17,4.3c-13,1.5-25.7,0.2-37.3-6c-14-7.4-21.4-19.5-23.4-35c-2.3-18.6,0.6-35.8,14.9-49.4
				C583.4,447.5,612.4,443.3,631.9,452.8z"/>
			<path id="XMLID_62_" fill="#FFFFFF" d="M253.9,524.3c-6.1,7.1-10.9,13.5-17.2,18.6c-5,4-10.4,7.4-16.7,9
				c-10.2,2.7-18.8-3.6-19.4-14.2c-0.4-7.9,1.2-15.4,4.3-22.6c6.1-14.1,14.9-26.3,26.7-36.2c6-5.1,12.9-8.5,21-8.5
				c2.2,0,4.4,0.1,6,1.7c3.1,3,5.4,6.8,10.4,7.4c2.1,0.2,2.1,2.7,1.8,4.5c-1.2,8-2.4,15.9-3.6,23.8c-1.2,7.8-1.9,15.7-0.3,23.5
				c0.8,3.8,1.3,7.8,4.8,10.5c2.9,2.3,6.8,4.6,2.8,9c-3.9,4.3-9.8,4.5-13.5,0.6c-2.5-2.7-4-6-5-9.5
				C254.5,536.7,254,531.2,253.9,524.3z M256.4,491.6c-0.4-3.2-0.1-7.4-4.2-9.4c-3.8-1.9-7.4-0.2-10.6,2c-1.9,1.3-3.8,2.6-5.4,4.2
				c-9,9.3-16.1,19.9-20.7,32.1c-1.4,3.7-2.3,7.5-2.1,11.6c0.3,7.3,4.1,9.7,10.8,6.6c1.6-0.8,3.2-1.7,4.6-2.9
				c8.7-6.9,16.1-15.1,21.7-24.7C254,505.4,256.4,499.1,256.4,491.6z"/>
			<path id="XMLID_15_" fill="#FFFFFF" d="M399.7,535.7c14.4,0,27.9,0,41.7,0c0,5.1,0,9.9,0,15c-19.8,0-39.6,0-59.7,0
				c0-33.7,0-67.2,0-101.1c5.8,0,11.6,0,18,0C399.7,478.2,399.7,506.6,399.7,535.7z"/>
			<path id="XMLID_14_" fill="#FFFFFF" d="M806.3,550.8c-20.1,0-39.8,0-59.8,0c0-33.8,0-67.4,0-101.3c5.9,0,11.6,0,17.7,0
				c0,28.6,0,57,0,85.9c14.2,0,28,0,42.1,0C806.3,540.7,806.3,545.6,806.3,550.8z"/>
			<path id="XMLID_13_" fill="#445EAA" d="M465.2,502.1c0.1-10.9,1.8-19.7,6.9-27.5c10.3-15.9,32.2-16.2,43.2-0.7
				c10.2,14.5,10,39.4-0.5,53.6c-10.9,14.8-32.5,14.1-42.5-1.4C467.1,518.2,465,509.6,465.2,502.1z"/>
			<path id="XMLID_11_" fill="#445EAA" d="M685.5,465.4c4.1,14.3,8.9,28.2,13.5,42.5c-8.9,0-17.3,0-26.3,0
				C677,493.5,681.7,479.6,685.5,465.4z"/>
			<path id="XMLID_10_" fill="#445EAA" d="M355.7,494.2c-2.2,14.6-9.5,27.8-21.3,38.5c-5.1,4.6-11,7.6-17.8,8.8
				c-4.6,0.9-7.3-1.7-10.2-4.6c-2.8-2.7-0.9-5.2,0.1-7.6c6.7-16,17-29.5,30.5-40.5c1.9-1.5,4-2.9,6.2-3.9
				C351,481.3,355.5,484.2,355.7,494.2z"/>
			<path id="XMLID_4_" fill="#445EAA" d="M256.4,491.6c0,7.5-2.4,13.7-5.8,19.6c-5.7,9.6-13,17.8-21.7,24.7c-1.4,1.1-3,2.1-4.6,2.9
				c-6.6,3.1-10.5,0.7-10.8-6.6c-0.2-4,0.7-7.9,2.1-11.6c4.6-12.2,11.7-22.7,20.7-32.1c1.6-1.6,3.5-3,5.4-4.2
				c3.2-2.2,6.7-3.9,10.6-2C256.2,484.2,256,488.4,256.4,491.6z"/>
		</g>
	</g>
</g>
</svg>
