<?xml version="1.0" encoding="utf-8"?>
<!-- Generator: Adobe Illustrator 19.2.1, SVG Export Plug-In . SVG Version: 6.00 Build 0)  -->
<svg version="1.1" xmlns="http://www.w3.org/2000/svg" xmlns:xlink="http://www.w3.org/1999/xlink" x="0px" y="0px"
	 viewBox="0 0 1024 1024" enable-background="new 0 0 1024 1024" xml:space="preserve">
<g id="Layer_1">
	<circle id="XMLID_1_" fill="#58C2F8" cx="512" cy="512" r="512"/>
</g>
<g id="Layer_2">
	<path id="XMLID_11_" fill="#FFFFFF" d="M514,929.1c-56,0-110.4-11-161.6-32.6c-49.4-20.9-93.8-50.8-131.9-88.9s-68-82.5-88.9-131.9
		C109.9,624.4,98.9,570,98.9,514c0-56,11-110.4,32.6-161.6c20.9-49.4,50.8-93.8,88.9-131.9c38.1-38.1,82.5-68,131.9-88.9
		C403.6,109.9,458,98.9,514,98.9s110.4,11,161.6,32.6c49.4,20.9,93.8,50.8,131.9,88.9c38.1,38.1,68,82.5,88.9,131.9
		c21.7,51.2,32.6,105.6,32.6,161.6c0,56-11,110.4-32.6,161.6c-20.9,49.4-50.8,93.8-88.9,131.9s-82.5,68-131.9,88.9
		C624.4,918.1,570,929.1,514,929.1z M514,198.9c-84.2,0-163.3,32.8-222.8,92.3c-59.5,59.5-92.3,138.6-92.3,222.8
		c0,84.2,32.8,163.3,92.3,222.8s138.6,92.3,222.8,92.3s163.3-32.8,222.8-92.3s92.3-138.6,92.3-222.8c0-84.2-32.8-163.3-92.3-222.8
		C677.3,231.7,598.2,198.9,514,198.9z"/>
	<path id="XMLID_10_" fill="#FFFFFF" d="M494.2,329.8c6.5-0.7,13.1-1,19.8-1c102.3,0,185.2,82.9,185.2,185.2S616.3,699.2,514,699.2
		c-102.3,0-185.2-82.9-185.2-185.2c0-40.3,12.9-77.7,34.8-108.1L471,468.4c0,0,21.5,6.5,21.8-14L494.2,329.8z"/>
</g>
</svg>
