<?xml version="1.0" encoding="utf-8"?>
<!-- Generator: Adobe Illustrator 19.2.1, SVG Export Plug-In . SVG Version: 6.00 Build 0)  -->
<svg version="1.1" xmlns="http://www.w3.org/2000/svg" xmlns:xlink="http://www.w3.org/1999/xlink" x="0px" y="0px"
	 viewBox="0 0 1024 1024" enable-background="new 0 0 1024 1024" xml:space="preserve">
<g id="Layer_1">
	<circle id="XMLID_1_" fill="#1F9EC9" cx="512.5" cy="512.3" r="512"/>
	<path id="XMLID_5_" fill="#FFFFFF" d="M670.4,806.8c-5.8,0-11.3-0.4-16.4-1.1l-5.5-0.7L393.3,673.8l-1.2-0.8
		c-1.9-1.2-45.8-29.3-82.8-80.5c-50.3-69.6-64.3-148.4-40.5-228.1l0.4-1.3l0.5-1.2c0.7-1.7,16.3-41.1,52.4-77.7
		C370.6,234.9,433,213,502.4,221c10.2,0.5,55.6,4.2,103.5,33.6c31.1,19.1,57.2,45.1,77.6,77.2c24.7,39,40.7,87,47.7,142.8l0.1,1.1
		l0.1,1.1l13.9,248.8c1.1,8.9,2.7,38.1-18.3,59.9C711.1,802.1,689.5,806.8,670.4,806.8z M667.1,743.7c9.8,0.6,13.9-1.2,14.5-1.9
		c1.2-1.3,1.5-7,1.3-8.1l-0.3-1.8l-0.1-1.8l-13.9-248.9c-5.9-46-18.7-85-38.3-115.8c-15.2-23.9-34.4-43.2-57.3-57.2
		C535,285,500,284,499.6,283.9l-1.7,0l-1.7-0.2c-50.6-6.1-94.1,8.9-129.3,44.7C343,352.7,331,378.7,328.7,384
		c-17.4,59.9-7.1,117.1,30.5,170c27,38.1,59.6,61.1,65.7,65.2L667.1,743.7z"/>
</g>
<g id="Layer_2">
</g>
</svg>
