<?xml version="1.0" encoding="utf-8"?>
<!-- Generator: Adobe Illustrator 19.2.1, SVG Export Plug-In . SVG Version: 6.00 Build 0)  -->
<svg version="1.1" id="Layer_1" xmlns="http://www.w3.org/2000/svg" xmlns:xlink="http://www.w3.org/1999/xlink" x="0px" y="0px"
	 viewBox="0 0 1024 1024" enable-background="new 0 0 1024 1024" xml:space="preserve">
<circle id="XMLID_1_" fill="#E8E8EB" cx="512" cy="515.1" r="512"/>
<g>
	<path fill="#0E3450" d="M553.7,534.5c-1.1,32-24.9,57.1-56.9,60c-34.8,3.1-63.6-16.2-70.7-47.4c-7.7-33.7,16-67.4,50.9-72.9
		c29.9-4.7,57.2,8.4,69.6,31.3C550.6,513.1,553.9,525.9,553.7,534.5z M465,533.4c-0.1,14.7,10.7,26.5,24.4,26.5
		c13.6,0.1,24.2-11.2,24.2-25.9c0-14.7-10.8-26.3-24.5-26.4C475.3,507.6,465.1,518.5,465,533.4z"/>
	<path fill="#0E3450" d="M751.2,581.1c-13.1,12.2-27.9,15.7-44.5,12.2c-17.6-3.7-27.8-16-28.5-34.2c-0.6-17,9.5-30.6,26.4-35.3
		c15.6-4.3,31-2.8,46.4,1.4c1.6-11-4.5-18.4-16.1-19.6c-11.4-1.2-22.6,0.2-33.3,4.4c-3.6,1.4-5.2,1.1-6.1-3
		c-1.5-6.7-3.6-13.3-5.7-19.9c-1-3-0.3-4.7,2.7-5.7c21.1-7.4,42.8-10,64.7-4.9c24.2,5.7,34.6,21,35.1,45.3c0.5,21.7,0,43.4,0.2,65.2
		c0,4-1.3,5.1-5.1,5c-9.2-0.3-18.5-0.4-27.7,0c-5.8,0.3-9.4-0.7-8-7.6C751.8,583.6,751.4,582.8,751.2,581.1z M736.8,541.7
		c-4.1-0.4-8.8,0.4-13,3.2c-4.8,3.1-6.3,7.8-5.6,13.2c0.7,5.1,3.8,8.5,8.6,9.8c7,1.8,13.8,0.8,19.5-4.1c5.3-4.7,7.4-11.3,5.4-17.6
		c-1.6-5.3-8.1-3.7-12.7-4.5C738.6,541.6,738.2,541.7,736.8,541.7z"/>
	<path fill="#C45B18" d="M253.6,544.9c-10.9,0-21.7,0.3-32.6-0.1c-6.3-0.2-5.8,2.3-3.6,6.5c5.9,11.2,20.1,15.7,33.8,10.5
		c2.6-1,5.5-2,7.2-3.9c6-6.9,10.6-4.2,15.7,1c3.2,3.3,6.9,6.2,10.6,8.8c3.1,2.2,3.8,3.7,0.9,6.9c-18.3,19.7-41.1,23.9-66,18
		c-23.7-5.6-39-21-43.1-45.3c-8.3-49.3,30.2-85.7,77.9-71.3c23.7,7.2,34.7,25.9,37.8,49.6c0.6,4.6,0.5,9.2,0.9,13.8
		c0.4,4.2-1.3,5.6-5.6,5.5C276.2,544.7,264.9,544.9,253.6,544.9z M234.2,523.9c5.1,0,10.1-0.3,15.2,0.1c4.4,0.3,5-1.6,4.1-5.3
		c-2.3-9.5-10.8-16.1-20-15.6c-8.8,0.5-17.1,8.5-18.6,17.6c-0.5,3.3,1.2,3.3,3.5,3.3C223.6,523.9,228.9,523.9,234.2,523.9z"/>
	<path fill="#0E3450" d="M305.1,516.3c0-22.9,0.2-45.7-0.1-68.6c-0.1-4.9,1.3-6.2,6.1-6c9.7,0.4,19.4,0.4,29.1,0
		c4.8-0.2,6.1,1.2,6.1,6c-0.1,33.5,0.3,67,0.2,100.4c0,5.3,1.2,7.1,6.8,7c20.3-0.3,40.6,0,61-0.2c4.4,0,6,1,5.8,5.7
		c-0.4,9-0.3,18,0,27c0.1,3.4-1,4.2-4.3,4.2c-35.6-0.1-71.1-0.2-106.7,0.1c-5,0-4.2-2.8-4.2-5.7c0-23.3,0-46.6,0-70
		C304.9,516.3,305,516.3,305.1,516.3z"/>
	<path fill="#0E3450" d="M629.4,594.9c-41.8-0.2-68-25.5-69.2-58.9c-1.1-32.4,23.1-59.2,56.3-62c20.9-1.8,38.9,3.8,52.7,20.6
		c2.6,3.2,3.4,5.2-0.8,8c-6.8,4.5-13.3,9.6-19.6,14.7c-2.9,2.4-4.4,2.3-7-0.7c-8-9.2-19.9-11.4-29.2-6c-10.2,5.9-14.7,20-10.7,33
		c3.5,11,12.7,17.3,24.2,16.4c6.8-0.5,12.3-3.9,16.7-8.9c2.5-2.7,4.2-2.5,6.9-0.5c6.4,4.9,12.9,9.8,19.6,14.2
		c3.7,2.4,3.7,4.3,1.1,7.6C657.8,588.2,641.2,595.1,629.4,594.9z"/>
	<path fill="#0E3450" d="M807.6,512.8c0-23.8,0.1-47.6-0.1-71.4c0-4.7,1.1-6.4,6.1-6.2c9.9,0.4,19.9,0.3,29.8,0
		c4-0.1,4.9,1.3,4.9,5.1c0,49,0.1,98,0.3,146.9c0,3.6-0.9,4.7-4.6,4.7c-10.4-0.2-20.8-0.3-31.2,0c-4.5,0.1-5.8-1.1-5.8-5.7
		c0.2-24.5,0.1-49,0.1-73.5C807.3,512.8,807.4,512.8,807.6,512.8z"/>
</g>
</svg>
