<?xml version="1.0" encoding="utf-8"?>
<!-- Generator: Adobe Illustrator 19.2.1, SVG Export Plug-In . SVG Version: 6.00 Build 0)  -->
<svg version="1.1" id="Layer_1" xmlns="http://www.w3.org/2000/svg" xmlns:xlink="http://www.w3.org/1999/xlink" x="0px" y="0px"
	 viewBox="0 0 1024 1024" enable-background="new 0 0 1024 1024" xml:space="preserve">
<circle id="XMLID_1_" fill="#5CA0EA" cx="512" cy="512" r="512"/>
<path id="XMLID_24_" fill="#FFFFFF" d="M219.4,531.5c1.2-3.6-0.6-6.4-2.3-9.3c-4.7-8.1-8.5-16.5-8.6-26.1
	c-0.1-8.9,3.4-15.9,11.4-19.9c3.5-1.8,4.8-3.9,5.1-7.6c2.3-26.8,5-53.5,9.2-80.1c1-6.6-0.9-12.8-2.1-19
	c-3.7-20.4,1.5-30.4,20.5-38.2c14.7-6,30.2-8.5,45.8-10.1c29.2-2.9,58.5-3.9,87.8-2.8c18.8,0.7,37.4,2.4,53.8,13
	c3.6,4.5,5.8,9.7,6.4,15.5c-0.2,11.3-3.5,21.6-10.9,30.4c-5,6-10.7,8.5-19.4,7.2c-30.6-4.7-61.3-3-92,0.1
	c-7.4,0.7-10.6,4.6-11.7,11.9c-2.9,19.3-4.3,38.8-6.5,58.2c-0.3,2.3,0,4.7-1.8,6.6c7.6,0,14.6-0.1,21.6,0
	c22.9,0.3,45.8-1.8,68.5,2.8c5.3,1.1,29.6,0.2,35.1-1.1c12-2.9,24-3.4,36.1-0.2c17.8,4.7,29.8,20.8,31.2,39.1c2.3,29,0.1,58,0.6,87
	c0.2,9.6,1.5,18.5,8.3,25.8c4.3,4.7,3.2,9.3-1,13.2c-9.2,8.5-20,12.9-32.7,10.9c-8.5-1.3-12.8-7.6-16.2-15.4c-3,2.1-5.7,4.3-8.6,6.1
	c-20,12.2-41.3,13.1-62.5,5.1c-30.8-11.7-31.6-43.6-19.2-64.9c11.7-19.9,30.9-29.7,51.9-36.8c9.7-3.2,19.8-4.9,30.1-7
	c0-5.4,0.1-10.4,0-15.4c-0.1-5.9-3.2-7.4-8.5-5.5c-7.9,2.8-14.2,7.7-19,14.5c-9.8,13.8-25,16.1-38,5.8c-1.2-1-2.4-1.5-3.8-1.5
	c-25.5,0-51-0.2-76.4,2.9c-0.2,0-0.4,0.2-1.5,0.9c-0.4,10.8-1.1,22.1-1.3,33.4c-0.2,18.8-0.7,37.7,0.3,56.5
	c0.2,3.8,1.3,6.9,3.3,10.2c5.9,9.6,4,15.9-6.5,20.6c-15.4,6.9-31.6,6.1-47.7,3.4c-11.1-3.5-20.4-9.4-25.2-20.4
	c-3.9-8.8-4-18.4-4.4-27.8C217.5,579.5,219.2,555.5,219.4,531.5z M445.6,562.1c-16.6,0.9-25.5,7.1-28.6,19.8
	c-1.1,4.6-2.8,9.7,1.8,13.2c4.5,3.6,9.9,2.6,14.9,0.8c2.8-1,4.7-3.1,6.4-5.4C446.5,581.9,446.9,572.2,445.6,562.1z"/>
<path id="XMLID_21_" fill="#FFFFFF" d="M715.2,657.8c-17.2-2.2-33.6-6.4-47.1-18.2c-15.9-13.9-23.1-31.9-21.9-52.7
	c3.1-53.8,27.4-95.6,74.3-122.3c25.8-14.7,52.9-14,77.7,5c14.2,15.6,16.3,33.5,9.6,52.9c-5.3,15.5-15.6,27.6-26.7,39.1
	c-0.5,0.4-0.9,0.8-1.4,1.3l0.1-0.1c-21.9,18.9-47.1,31.7-75.5,38.6c12.1,14.3,40.3,12.8,59.5-2.4c10.1-6,19.7-12.4,24.1-24.2
	c5.2-14.1,8.6-16,23.4-13.7c23.8,5.3,30.9,26.1,18,46.7c-11.8,19-29.8,30.8-49.8,39.7c-9.5,4.2-19.5,6.6-29.3,9.8
	C738.5,657.3,726.9,660.2,715.2,657.8z M704.7,554.9c20.7-9.3,38.2-22.3,49.7-42.1c2.3-3.9,6.6-8.8,2.4-12.9
	c-4.6-4.4-9.5,0.4-13.3,3.1C725.1,516,713.5,534.4,704.7,554.9z"/>
<path id="XMLID_11_" fill="#FFFFFF" d="M580.8,565.7c6.7-17.9,12.7-35.8,20.3-53.2c5.5-12.4,11.3-24.7,16.9-37
	c8.2-18,26.6-19,42.2-14.1c3.7,1.2,7.1,3.4,10.6,5.2c8.8,4.5,11.8,13.3,6.4,21.3c-23.9,35.1-39.2,74.3-54.8,113.5
	c-4.6,11.5-8.6,23.2-8.7,35.8c-0.1,5.7-3.2,9.4-8.2,11.4c-13.2,5.4-26.7,6.4-40.5,2.2c-9.3-2.9-15.6-8.9-18.7-18.1
	c-7.8-23.6-15.3-47.3-23.5-70.8c-9.3-26.7-19.7-53-25.6-80.7c-3.1-14.4,2-21.7,16.5-24.2c12.4-2.1,24.7-1.6,36.6,2.6
	c8.9,3.1,11.6,7,11.7,16.4c0.3,16.8,4.9,32.9,7.8,49.3C572.2,538.9,576.3,552.1,580.8,565.7z"/>
<path id="XMLID_10_" fill="#FFFFFF" d="M721.1,671.4c12.2,2.5,24.3-0.5,36.5-0.5c-24.2,27.1-53,48.1-84.7,65.6
	c-40.9,22.6-85.4,34-130.8,42.4c-26.9,5-54,7.9-81.4,9.5c-17,1-33.9,1.5-50.8,0.9c-50.5-2-100.2-8.8-145.8-32.8
	c-32.6-17.1-57.6-41.7-70.7-76.8c-5.7-15.2-8.3-31-9.3-47.3c-1.7-29.3,3.6-57.3,13.7-84.5c1.1-3,2.7-5.8,4.1-8.7
	c-0.3,25.1-2,50.2-0.9,75.4c0.4,9.8,0.6,19.9,4.6,29.1c5.1,11.5,14.8,17.7,26.4,21.4c4.7,19.3,17,33.7,31.4,46.2
	c33.9,29.5,75.2,41.5,118.6,48.5c24.4,3.9,49,6,73.5,5.4c61.5-1.6,121.9-10,179.2-34.2c25-10.6,47.5-25.3,68.3-42.6
	C709.5,683,716,678,721.1,671.4z"/>
<path id="XMLID_5_" fill="#FFFFFF" d="M819,505.7c7-20.3,4.9-39-10-55.4c-2.7-53.6-19-101.2-61.3-136.9
	c-30.6-25.8-66.7-40.4-105-50.2c-40.4-10.3-81.6-12.2-123-10.6c-27.3,1.1-53.3,8.7-79.2,17c-8,2.6-16,5.4-24.7,5.4
	c-3.3,0-5.7-0.6-7.3-3.9c-1.8-3.6,0.4-5.6,2.5-7.8c8.9-8.8,20.7-11.9,32.2-14.9c28.6-7.5,57.5-13.4,87.1-15.4
	c66.6-4.5,130.7,4.5,190.9,34.4c45.3,22.5,79.7,56,98.5,103.9c13.5,34.4,18.6,70.2,16.4,106.9c-1.4,23.2-6.7,45.7-13.5,67.8
	C807.1,543.6,813.4,521.8,819,505.7z"/>
<path id="XMLID_4_" fill="#FFFFFF" d="M440.8,321.7c-0.6-6.1-14-6-17.8-10.7c14.3-5.8,39.3-18.1,54.4-21.4c2.2-0.5,4.5-1,6.6-0.7
	c3.3,0.4,6.5,1.4,7.1,5.4c0.6,3.8-0.4,6.6-4.2,8.5c-9.1,4.7-19.2,6.8-28.6,10.7C452.3,316,447.5,321,440.8,321.7z"/>
</svg>
