<?xml version="1.0" encoding="utf-8"?>
<!-- Generator: Adobe Illustrator 19.2.1, SVG Export Plug-In . SVG Version: 6.00 Build 0)  -->
<svg version="1.1" id="Layer_1" xmlns="http://www.w3.org/2000/svg" xmlns:xlink="http://www.w3.org/1999/xlink" x="0px" y="0px"
	 viewBox="0 0 1024 1024" enable-background="new 0 0 1024 1024" xml:space="preserve">
<circle id="XMLID_1_" fill="#296D9F" cx="512" cy="512" r="512"/>
<g id="XMLID_4_">
	<path id="XMLID_14_" fill="#FFFFFF" d="M681,514.4c-12.4,0-23.2,0-36,0c0-39.1,0-77.4,0-117.5c-31.2,0-60.3,0-93.4,0
		c-34.3,37.6-71.1,77.8-107.5,117.7c0,12.4,0,23.2,0,36.8c-32.3,2.3-63.9,0.6-96.4-1.9c13.5-7.3,27.2-14.3,40.5-22.1
		c11.6-6.7,23.6-13.2,33.7-21.8c28-23.7,26.3-65.5-3.6-86.9c-31.8-22.8-68.5-26.7-106-22.2c-25.6,3.1-50.6,10.2-72,28.5
		c21.7-79.5,125.4-164.8,249.2-144C628.2,304.2,692.1,432.5,681,514.4z"/>
	<path id="XMLID_13_" fill="#FFFFFF" d="M246,607.6c64.4,0,128.2,0,193.5,0c1.3-15.1,2.4-28.8,3.7-43.7c40.1,0,77.6,0,118,0
		c0,13.8,0,27.6,0,42.4c28.4,0,54.1,0,81.7,0c0-13.6,0-26.7,0-41.8c11.2,0,20.6,0,30.2,0c-4.1,77.2-92.5,159.6-189.3,173.1
		C383.8,751.6,282.3,695.5,246,607.6z"/>
	<path id="XMLID_12_" fill="#FFFFFF" d="M773.2,454.3c-28.7,0-52.9,0-78,0c-6.9-18.3-13.4-35.3-20.2-53.2c4.9-0.4,9-1,13.2-1
		c56.4-0.1,112.8,0,170.7,0c0,13.2,0,25.4,0,40c-44.7,43.8-76.9,96.2-75.3,165.6c-31.1,0-61.8,0-94,0c-4.2-15.9,1.2-31,6.6-45.5
		c10.8-29.5,27.1-55.8,49.4-78.1C753.8,473.8,761.9,465.6,773.2,454.3z"/>
	<path id="XMLID_10_" fill="#FFFFFF" d="M224,553.7c0-29.8,0-54.7,0-81.5c23,3.1,44.2,6,66.8,9.1c6-17.3,12-35.3,35.2-35.5
		c13.5-0.1,18.8,3.6,29.2,23.3c-7.5,8.1-15.2,17.7-24.2,25.8c-6.1,5.5-14,9.2-21.3,13.2C282.5,522.6,255.3,537,224,553.7z"/>
	<path id="XMLID_5_" fill="#FFFFFF" d="M561.2,514.3c-15.7,0-28.8,0-47,0c16.3-19.1,30.3-35.5,47-55
		C561.2,480.3,561.2,496,561.2,514.3z"/>
</g>
</svg>
