<?xml version="1.0" encoding="utf-8"?>
<!-- Generator: Adobe Illustrator 19.2.1, SVG Export Plug-In . SVG Version: 6.00 Build 0)  -->
<svg version="1.1" id="Layer_1" xmlns="http://www.w3.org/2000/svg" xmlns:xlink="http://www.w3.org/1999/xlink" x="0px" y="0px"
	 viewBox="0 0 1024 1024" enable-background="new 0 0 1024 1024" xml:space="preserve">
<circle id="XMLID_1_" fill="#F0F2F4" cx="512" cy="512" r="512"/>
<g>
	<path fill="#1790BF" d="M743.1,757.8c24.5,28.2,54.4,49,88.7,64.4c-3.1,0.7-5.7,0.9-8.3,1.2c-13.3,1.4-26.6,2.1-39.9,1.8
		c-13.3-0.2-26.5-1.2-39.6-3c-28.2-3.9-55.5-11.2-81.6-22.7c-1-0.4-1.8-0.5-2.8-0.1c-19.1,7-38.7,12.5-58.6,16.6
		c-10.9,2.3-21.8,4.1-32.9,5.5c-11.6,1.5-23.2,2.5-34.9,3.1c-13.5,0.7-27,0.7-40.5,0.2c-11-0.5-21.9-1.3-32.9-2.6
		c-45.6-5.4-89.3-17.5-130.9-37.2c-27.6-13.1-53.4-29.1-77-48.4c-30.2-24.7-55.6-53.6-75.2-87.4c-14.7-25.4-25.2-52.3-31.3-81
		c-2-9.3-3.4-18.6-4.3-28.1c-1.1-11-1.6-21.9-1.3-32.9c1-36.8,9.2-72,24.6-105.5c12.2-26.6,28.2-50.7,47.4-72.6
		c22.7-25.8,48.8-47.6,78-65.7c36.8-22.9,76.4-39.1,118.4-49.3c12.5-3,25.1-5.5,37.9-7.4c9.2-1.4,18.4-2.4,27.7-3.2
		c11.6-1,23.2-1.5,34.8-1.6c9.3-0.1,18.6,0.1,27.9,0.6c13.2,0.8,26.3,2.1,39.3,4c36.1,5.2,71,14.8,104.5,29.2
		c39.1,16.7,74.7,39,106.1,67.7c22.8,20.9,42.4,44.4,58.2,71c15,25.1,25.9,51.8,32.4,80.4c2.6,11.4,4.4,22.9,5.5,34.6
		c1.1,11.4,1.4,22.8,0.9,34.3c-1.6,41.3-12.4,80.1-31.8,116.5c-17.3,32.5-40.1,60.7-67.4,85.4c-12.5,11.3-25.7,21.6-39.6,30.9
		C744.1,756.9,743.5,757.1,743.1,757.8z M544.5,500.9c-0.9-0.2-1.1-0.7-1.4-1.1c-3.7-4.7-8.4-8.2-14.1-10.1c-11.8-4-22.8-2.1-33,4.8
		c-7.2,4.9-11.9,11.8-15.2,19.7c-4.1,10-5.3,20.3-4.2,31c0.8,7.4,2.7,14.4,6.2,21c3.7,7,8.7,12.9,15.5,17c9,5.4,18.8,6.5,28.9,4.3
		c7-1.5,12.6-5.1,16.3-11.5c0.2-0.3,0.2-0.7,0.8-0.7c0.3,0.5,0.1,1.2,0.1,1.8c0,1.4,0,2.9,0.1,4.3c0.4,4,3.2,6.7,7.1,7
		c4.3,0.3,7.6-1.9,8.6-5.7c0.3-1.2,0.4-2.5,0.4-3.7c0-41.8,0-83.6,0-125.3c0-1.1-0.1-2.3-0.3-3.4c-0.8-3.7-3.6-6-7.5-6.1
		c-4-0.1-6.9,2-8,5.6c-0.4,1.3-0.4,2.6-0.4,3.9c0,15,0,29.9,0,44.9C544.5,499.3,544.5,500,544.5,500.9z M298.1,510.9
		c0-0.9,0-1.6,0-2.3c0-14.8,0-29.7,0-44.5c0-0.9,0-1.8-0.1-2.6c-0.4-4.2-3.3-7-7.4-7.2c-4.7-0.2-7.7,2.1-8.5,6.5
		c-0.2,0.9-0.2,1.9-0.2,2.8c0,38.6,0,77.1,0,115.7c0,1.1,0.1,2.1,0.3,3.2c0.8,3.6,3.5,5.9,7.2,6.1c4.1,0.2,7.1-1.8,8.3-5.4
		c0.4-1.3,0.4-2.7,0.4-4.1c0-17.3,0-34.7,0-52c0-0.7-0.1-1.3,0.1-2c0.7,0.2,1,0.7,1.4,1.1c2.8,2.7,5.6,5.5,8.3,8.2
		c16.8,16.7,33.7,33.3,50.5,50c0.8,0.8,1.7,1.6,2.7,2.4c2.1,1.6,4.4,2.2,6.9,1.9c2.9-0.4,5.3-1.8,6.4-4.6c1.1-2.7,0.6-5.3-1.2-7.6
		c-0.7-0.9-1.5-1.7-2.3-2.5c-18.7-18.2-37.4-36.5-56.2-54.7c-0.5-0.5-1.2-1-1.6-1.8c0.3-0.3,0.7-0.6,1.1-0.9
		c14.2-12.9,28.5-25.8,42.7-38.8c3.5-3.2,7-6.3,10.4-9.5c2.8-2.6,3.2-5.9,2.3-9.4c-0.5-1.9-1.9-3.3-3.7-4c-2.3-0.9-4.6-0.7-6.7,0.6
		c-1.4,0.8-2.6,1.8-3.7,2.9c-18.5,17.1-37,34.2-55.5,51.3C299.4,510,299,510.6,298.1,510.9z M460.1,524.6
		C460.1,524.6,460.1,524.6,460.1,524.6c0-9.2,0-18.5,0-27.7c0-1.3-0.1-2.5-0.5-3.7c-1-3.4-3.9-5.5-7.7-5.5c-3.8,0-6.7,2.2-7.7,5.8
		c-0.3,1.2-0.4,2.5-0.4,3.7c0,12,0,24,0,36c0,5.7,0,11.4,0,17.2c0,4.2-0.7,8.3-2.3,12.2c-2.2,5.5-6.2,9.3-11.9,10.9
		c-5.2,1.5-10.5,1.5-15.8,0.2c-6.7-1.6-11.1-5.9-13.3-12.4c-1.4-4-1.8-8.1-1.8-12.2c0-17,0-33.9,0-50.9c0-1,0-2-0.1-3
		c-0.4-4.4-3.3-7.3-7.7-7.4c-4.8-0.1-7.5,2.7-8.2,6.5c-0.2,0.9-0.2,1.7-0.2,2.6c0,17.6,0,35.2,0,52.8c0,3.7,0.3,7.3,1.1,10.9
		c2.7,12.6,9.8,21.5,22.2,25.7c10.8,3.7,21.6,3.5,32.3-0.4c9.2-3.4,15.6-9.8,19.1-19.1c2-5.1,2.8-10.4,2.9-15.9
		C460.2,542,460.1,533.3,460.1,524.6z M737.3,524.3C737.3,524.3,737.3,524.3,737.3,524.3c0-9.2,0-18.3,0-27.5c0-1.3-0.1-2.6-0.5-3.9
		c-1.1-3.3-4-5.3-7.7-5.3c-3.8,0.1-6.6,2.2-7.6,5.6c-0.3,1.2-0.4,2.5-0.4,3.7c0,10.9,0,21.7,0,32.6c0,6.8,0,13.6,0,20.4
		c0,4.2-0.6,8.4-2.2,12.4c-2.3,5.8-6.5,9.6-12.6,11.2c-3.7,1-7.6,1.1-11.4,0.8c-8.7-0.7-15-5.6-17.5-14c-1.2-3.8-1.5-7.7-1.5-11.7
		c0-17.2,0-34.3,0-51.5c0-1.4-0.1-2.8-0.5-4.1c-1.1-3.4-4-5.5-7.7-5.4c-3.8,0.1-6.6,2.2-7.6,5.6c-0.3,1.2-0.4,2.5-0.4,3.7
		c0,17.5,0,34.9,0,52.4c0,3.7,0.3,7.4,1.1,11c2.7,12.7,10,21.5,22.4,25.7c10.3,3.5,20.8,3.4,31.1-0.1c10.9-3.8,18-11.4,21.2-22.5
		c1.3-4.4,1.9-8.8,1.9-13.4C737.3,541.6,737.3,533,737.3,524.3z M623.4,503.1c-0.1,0.7-0.6,1.2-0.9,1.7
		c-11.1,16.8-22.3,33.6-33.4,50.4c-4.1,6.2-8.2,12.3-12.3,18.5c-1.4,2-2.6,4.1-3,6.6c-0.5,3.3,1,5.7,4.1,6.6
		c1.3,0.4,2.7,0.5,4.1,0.5c19.1,0,38.2,0,57.3,0c0.8,0,1.5,0,2.3-0.1c2.9-0.4,5.2-1.5,6.1-4.5c0.3-1.1,0.3-2.2,0.2-3.4
		c-0.2-2.8-1.7-4.6-4.3-5.6c-1.4-0.5-2.8-0.5-4.3-0.5c-13.8,0-27.6,0-41.5,0c-0.7,0-1.5,0.2-2.2-0.4c0.1-0.8,0.6-1.3,1-1.9
		c15.2-22.5,30.3-45,45.5-67.5c1-1.5,2-3,2.8-4.7c0.5-1,0.8-2.1,0.9-3.2c0.4-3.3-1.2-5.6-4.4-6.5c-1.3-0.3-2.6-0.5-3.9-0.5
		c-17.8,0-35.6,0-53.3,0c-1.1,0-2.3,0.1-3.4,0.3c-3.4,0.7-5.4,3.1-5.4,6.7c0,3.6,1.9,6.1,5.3,6.8c1.2,0.3,2.5,0.3,3.7,0.3
		c12.3,0,24.5,0,36.8,0C622,503,622.7,502.8,623.4,503.1z M768.4,487.9c7.7,0,14-6.4,14-14.1c0-7.7-6.3-14-13.9-14
		c-7.6,0-13.9,6.2-13.9,13.9C754.5,481.5,760.7,487.9,768.4,487.9z"/>
	<path fill="#FDFEFE" d="M544.5,500.9c0-0.9,0-1.5,0-2.2c0-15,0-29.9,0-44.9c0-1.3,0-2.6,0.4-3.9c1.1-3.6,4-5.7,8-5.6
		c3.9,0.1,6.7,2.4,7.5,6.1c0.2,1.1,0.3,2.2,0.3,3.4c0,41.8,0,83.6,0,125.3c0,1.3-0.1,2.5-0.4,3.7c-1,3.9-4.2,6-8.6,5.7
		c-3.9-0.3-6.7-3-7.1-7c-0.1-1.4-0.1-2.9-0.1-4.3c0-0.6,0.1-1.2-0.1-1.8c-0.6,0-0.7,0.4-0.8,0.7c-3.7,6.3-9.3,10-16.3,11.5
		c-10.1,2.1-19.9,1-28.9-4.3c-6.9-4.1-11.9-10-15.5-17c-3.4-6.6-5.4-13.6-6.2-21c-1.1-10.7,0.1-21.1,4.2-31
		c3.3-7.9,8-14.8,15.2-19.7c10.2-6.9,21.2-8.8,33-4.8c5.7,1.9,10.3,5.4,14.1,10.1C543.4,500.1,543.6,500.6,544.5,500.9z
		 M492.5,537.5c0,3.1,0.1,5.6,0.4,8.1c0.7,5.3,2,10.3,4.5,15.1c4.3,8.2,10.8,13.2,20.3,13.7c6.2,0.4,11.8-1.1,16.7-5.1
		c3.6-2.9,6.1-6.7,7.9-10.9c3.4-8,4.3-16.3,3.7-24.9c-0.4-5.7-1.6-11.2-4-16.4c-1.9-4.1-4.4-7.8-8-10.6c-4.8-3.8-10.4-5.1-16.4-4.8
		c-5,0.3-9.6,1.9-13.5,5.1c-3.3,2.7-5.6,6.1-7.4,9.9C493.6,523.6,492.5,530.7,492.5,537.5z"/>
	<path fill="#FDFEFE" d="M298.1,510.9c1-0.3,1.4-0.9,1.8-1.3c18.5-17.1,37-34.2,55.5-51.3c1.2-1.1,2.3-2.1,3.7-2.9
		c2.1-1.3,4.4-1.5,6.7-0.6c1.9,0.7,3.2,2,3.7,4c0.9,3.5,0.5,6.8-2.3,9.4c-3.5,3.2-7,6.4-10.4,9.5c-14.2,12.9-28.5,25.9-42.7,38.8
		c-0.4,0.3-0.8,0.6-1.1,0.9c0.5,0.8,1.1,1.3,1.6,1.8c18.7,18.2,37.4,36.5,56.2,54.7c0.8,0.8,1.6,1.6,2.3,2.5
		c1.8,2.3,2.3,4.9,1.2,7.6c-1.2,2.8-3.5,4.2-6.4,4.6c-2.5,0.3-4.9-0.3-6.9-1.9c-1-0.7-1.8-1.5-2.7-2.4c-16.8-16.7-33.6-33.3-50.5-50
		c-2.8-2.7-5.5-5.5-8.3-8.2c-0.4-0.4-0.7-0.9-1.4-1.1c-0.2,0.7-0.1,1.3-0.1,2c0,17.3,0,34.7,0,52c0,1.4,0,2.8-0.4,4.1
		c-1.1,3.7-4.1,5.6-8.3,5.4c-3.7-0.2-6.4-2.5-7.2-6.1c-0.2-1-0.3-2.1-0.3-3.2c0-38.6,0-77.1,0-115.7c0-0.9,0.1-1.9,0.2-2.8
		c0.9-4.4,3.9-6.7,8.5-6.5c4.1,0.2,7,3,7.4,7.2c0.1,0.9,0.1,1.8,0.1,2.6c0,14.8,0,29.7,0,44.5C298.1,509.3,298.1,510,298.1,510.9z"
		/>
	<path fill="#FDFEFF" d="M460.1,524.6c0,8.7,0,17.5,0,26.2c0,5.4-0.9,10.7-2.9,15.9c-3.5,9.2-9.9,15.6-19.1,19.1
		c-10.7,4-21.5,4.1-32.3,0.4c-12.3-4.2-19.5-13.1-22.2-25.7c-0.8-3.6-1.1-7.2-1.1-10.9c0-17.6,0-35.2,0-52.8c0-0.9,0.1-1.7,0.2-2.6
		c0.7-3.8,3.4-6.6,8.2-6.5c4.4,0.1,7.4,3,7.7,7.4c0.1,1,0.1,2,0.1,3c0,17,0,33.9,0,50.9c0,4.2,0.5,8.3,1.8,12.2
		c2.3,6.5,6.6,10.7,13.3,12.4c5.3,1.3,10.6,1.3,15.8-0.2c5.7-1.7,9.7-5.4,11.9-10.9c1.6-3.9,2.2-8,2.3-12.2c0.1-5.7,0-11.4,0-17.2
		c0-12,0-24,0-36c0-1.3,0.1-2.5,0.4-3.7c0.9-3.6,3.8-5.7,7.7-5.8c3.8,0,6.7,2,7.7,5.5c0.4,1.2,0.5,2.5,0.5,3.7
		C460.1,506.1,460.1,515.3,460.1,524.6C460.1,524.6,460.1,524.6,460.1,524.6z"/>
	<path fill="#FDFEFF" d="M737.3,524.3c0,8.6,0,17.2,0,25.8c0,4.5-0.6,9-1.9,13.4c-3.3,11.1-10.3,18.7-21.2,22.5
		c-10.3,3.6-20.8,3.6-31.1,0.1c-12.4-4.2-19.6-13-22.4-25.7c-0.8-3.6-1.1-7.3-1.1-11c0-17.5,0-34.9,0-52.4c0-1.3,0.1-2.5,0.4-3.7
		c0.9-3.5,3.8-5.6,7.6-5.6c3.8-0.1,6.7,2,7.7,5.4c0.4,1.3,0.5,2.7,0.5,4.1c0,17.2,0,34.3,0,51.5c0,4,0.4,7.9,1.5,11.7
		c2.5,8.3,8.8,13.3,17.5,14c3.9,0.3,7.7,0.2,11.4-0.8c6.1-1.6,10.2-5.4,12.6-11.2c1.6-4,2.2-8.1,2.2-12.4c0-6.8,0-13.6,0-20.4
		c0-10.9,0-21.7,0-32.6c0-1.3,0.1-2.5,0.4-3.7c1-3.5,3.8-5.6,7.6-5.6c3.7,0,6.6,1.9,7.7,5.3c0.4,1.3,0.5,2.6,0.5,3.9
		C737.3,506,737.3,515.2,737.3,524.3C737.3,524.3,737.3,524.3,737.3,524.3z"/>
	<path fill="#FDFEFE" d="M623.4,503.1c-0.7-0.3-1.4-0.1-2.1-0.1c-12.3,0-24.5,0-36.8,0c-1.3,0-2.5-0.1-3.7-0.3
		c-3.4-0.7-5.3-3.2-5.3-6.8c0-3.6,2-6,5.4-6.7c1.1-0.2,2.2-0.3,3.4-0.3c17.8,0,35.6,0,53.3,0c1.3,0,2.6,0.1,3.9,0.5
		c3.2,0.9,4.8,3.1,4.4,6.5c-0.1,1.1-0.5,2.2-0.9,3.2c-0.8,1.7-1.8,3.2-2.8,4.7c-15.2,22.5-30.3,45-45.5,67.5c-0.4,0.6-1,1.1-1,1.9
		c0.7,0.6,1.5,0.4,2.2,0.4c13.8,0,27.6,0,41.5,0c1.4,0,2.9,0,4.3,0.5c2.6,0.9,4.1,2.8,4.3,5.6c0.1,1.1,0.1,2.3-0.2,3.4
		c-0.9,3-3.3,4.1-6.1,4.5c-0.7,0.1-1.5,0.1-2.3,0.1c-19.1,0-38.2,0-57.3,0c-1.4,0-2.8-0.1-4.1-0.5c-3.1-0.9-4.6-3.4-4.1-6.6
		c0.4-2.5,1.6-4.6,3-6.6c4.1-6.2,8.2-12.4,12.3-18.5c11.1-16.8,22.3-33.6,33.4-50.4C622.8,504.3,623.3,503.8,623.4,503.1z"/>
	<path fill="#F6FBFD" d="M768.4,487.9c-7.7,0-13.9-6.4-13.8-14.2c0-7.7,6.3-13.9,13.9-13.9c7.6,0,13.8,6.3,13.9,14
		C782.4,481.5,776.1,487.9,768.4,487.9z M779.2,474.1c0.1-6.2-4.7-11.3-10.7-11.3c-5.8,0-10.8,5.1-10.8,11.1c0,5.9,4.8,11,10.6,11.1
		C774.2,485,779.1,480.2,779.2,474.1z"/>
	<path fill="#1890BF" d="M492.5,537.5c0-6.8,1.2-13.9,4.3-20.6c1.8-3.8,4.1-7.2,7.4-9.9c3.9-3.2,8.4-4.9,13.5-5.1
		c6-0.3,11.6,1,16.4,4.8c3.6,2.8,6.1,6.5,8,10.6c2.4,5.2,3.6,10.7,4,16.4c0.6,8.6-0.3,16.9-3.7,24.9c-1.8,4.2-4.3,8-7.9,10.9
		c-4.9,4-10.5,5.4-16.7,5.1c-9.5-0.5-16-5.5-20.3-13.7c-2.5-4.7-3.8-9.8-4.5-15.1C492.6,543.1,492.5,540.6,492.5,537.5z"/>
	<path fill="#2094C2" d="M779.2,474.1c-0.1,6.1-5,10.9-10.9,10.8c-5.8-0.1-10.6-5.2-10.6-11.1c0-6,5-11.1,10.8-11.1
		C774.4,462.8,779.3,467.9,779.2,474.1z M770.6,475.2c0.7-0.2,1.1-0.4,1.5-0.5c1.1-0.5,1.8-1.3,2.2-2.4c1-3.3-0.6-5.9-4.1-6.1
		c-1.9-0.1-3.8-0.1-5.7-0.1c-1.7,0-1.8,0-1.8,1.8c0,4,0,8,0,12.1c0,0.4,0,0.9,0.1,1.3c0.2,0.6,0.7,0.7,1.2,0.7c0.5,0,0.9-0.2,1-0.7
		c0.1-0.4,0.1-0.9,0.1-1.3c0-1.3,0-2.5,0-3.8c0-0.4,0-0.7,0.5-0.9c0.9-0.3,2.1,0,2.6,0.9c0.9,1.4,1.8,2.9,2.7,4.3
		c0.2,0.4,0.5,0.8,0.8,1.1c0.5,0.5,1.8,0.6,2.3,0.2c0.6-0.6,0-1.2-0.3-1.7C772.7,478.5,771.7,476.9,770.6,475.2z"/>
	<path fill="#F8FCFD" d="M770.6,475.2c1.1,1.7,2.1,3.2,3.1,4.8c0.3,0.5,0.9,1,0.3,1.7c-0.4,0.5-1.7,0.4-2.3-0.2
		c-0.3-0.3-0.5-0.7-0.8-1.1c-0.9-1.4-1.8-2.9-2.7-4.3c-0.5-0.8-1.7-1.2-2.6-0.9c-0.5,0.2-0.5,0.5-0.5,0.9c0,1.3,0,2.5,0,3.8
		c0,0.4,0,0.9-0.1,1.3c-0.1,0.5-0.5,0.7-1,0.7c-0.5,0-1-0.1-1.2-0.7c-0.1-0.4-0.1-0.9-0.1-1.3c0-4,0-8,0-12.1c0-1.8,0-1.8,1.8-1.8
		c1.9,0,3.8-0.1,5.7,0.1c3.4,0.3,5.1,2.8,4.1,6.1c-0.3,1.2-1.1,2-2.2,2.4C771.7,474.9,771.3,475,770.6,475.2z M767.8,472.8
		c0.6,0,1.3,0.1,1.9,0c1.5-0.2,2.2-1,2.3-2.3c0-1.2-0.7-2-2.2-2.1c-1.2-0.1-2.5-0.1-3.8-0.1c-0.5,0-0.8,0.3-0.8,0.8
		c0,0.4,0,0.8,0,1.1C765.3,473.2,764.8,472.8,767.8,472.8z"/>
	<path fill="#2396C2" d="M767.8,472.8c-3,0-2.5,0.4-2.6-2.5c0-0.4,0-0.8,0-1.1c0-0.5,0.3-0.8,0.8-0.8c1.3,0,2.5-0.1,3.8,0.1
		c1.5,0.2,2.2,0.9,2.2,2.1c0,1.3-0.7,2.1-2.3,2.3C769.1,472.9,768.4,472.8,767.8,472.8z"/>
</g>
</svg>
