<svg id="Layer_1" data-name="Layer 1" xmlns="http://www.w3.org/2000/svg" viewBox="0 0 1024 1024"><defs><style>.cls-1{fill:#f0f2f4;}.cls-2{fill:#6eae47;}.cls-3{fill:#3371b7;}</style></defs><title>localpages</title><circle id="_Path_" data-name="&lt;Path&gt;" class="cls-1" cx="512" cy="512" r="512"/><g id="c4qo6z.tif"><g id="_Group_" data-name="&lt;Group&gt;"><path id="_Path_2" data-name="&lt;Path&gt;" class="cls-2" d="M256,260.89c17.07,0,31.37-.13,45.66.07,5.5.08,11,.92,21,1.81v42.62c0,109,.32,218-.25,327-.13,23.83.09,46.26,24.13,59.68,26.57,14.83,51.88,13.6,75.89-5.88,4.27-3.46,9.3-6,17.85-11.36v66.22c-48,30.25-97.94,33.84-148,2.83-23.85-14.79-40.45-34.65-40.25-66.25.85-133.38.4-266.77.57-400.15C252.61,273.44,254.2,269.41,256,260.89Z" transform="translate(0 0)"/></g></g><g id="_Group_2" data-name="&lt;Group&gt;"><path id="_Compound_Path_" data-name="&lt;Compound Path&gt;" class="cls-3" d="M553.72,565.78V758.08H466.46V260.84h141.2q47.28,0,82,11.11t57.59,30.62a121.16,121.16,0,0,1,34,46.49q11.1,27,11.11,58.7a155.4,155.4,0,0,1-36.17,97.57q-14,17-35.7,30.46t-52,21.74q-30.31,8.26-71.24,8.25Zm0-63.78,44.11-.32a152.28,152.28,0,0,0,44.11-6q20-6,34.27-17.77A79.24,79.24,0,0,0,698.26,449Q706,431.88,706,410a98.64,98.64,0,0,0-5.39-32.84,66.87,66.87,0,0,0-17.77-27q-12.38-11.58-32.52-18.4t-50-6.82H553.72Z" transform="translate(0 0)"/></g></svg>