<?xml version="1.0" encoding="utf-8"?>
<!-- Generator: Adobe Illustrator 19.2.1, SVG Export Plug-In . SVG Version: 6.00 Build 0)  -->
<svg version="1.1" id="Layer_1" xmlns="http://www.w3.org/2000/svg" xmlns:xlink="http://www.w3.org/1999/xlink" x="0px" y="0px"
	 viewBox="0 0 1024 1024" enable-background="new 0 0 1024 1024" xml:space="preserve">
<circle id="XMLID_1_" cx="512" cy="512" r="512"/>
<g id="XMLID_13_">
	<path id="XMLID_14_" fill="#FFFFFF" d="M187,404.4c16.4,0,32.2-0.2,47.9,0.2c2,0,4.4,2.5,5.9,4.4c1.8,2.3,3,5.1,4.8,8.4
		c14.8-12.3,31.7-16.8,50.4-16.1c19.2,0.6,34.8,8.3,47.2,22.7c37.3-37.4,97.9-25.1,117.4,18.6c14.6-21.4,34.5-34.3,59.4-39
		c25.1-4.8,48.3,0.4,70.5,15.2c3.6-14.1,14.3-12.4,24.7-12.2c18.8,0.3,37.7,0.4,56.5-0.1c9.6-0.2,18.3-0.2,21.8,11.8
		c24.9-16,50.9-21,78.8-13.2c19.5,5.5,35.4,16.5,47.7,32.5c24.6,31.7,25.5,75.9,2.5,108.8c-13.5,19.3-31.9,31.8-54.8,37
		c-22.5,5.1-44.3,2-66-9.4c0,16.4,0,31.6,0,47.1c-23.2,0-45.4,0-68.6,0c0-14,0-28.2,0-43.1c-7.6,0-14.4-0.4-21,0.1
		c-8.8,0.7-16.5-0.3-20.6-10.1c-20.9,13.6-42.7,19.8-67,16.3c-24-3.5-43.3-15-59.9-34.5c0,10,0,18.5,0,27.6c-31.1,0-61.3,0-92.2,0
		c0-5.4,0-10.8,0-18.3c-9,5.2-17,9-24.1,14.2c-8,5.8-14.6,6.1-22.6,0c-6.9-5.2-15-8.9-23.7-13.9c0,6.5,0,12,0,18.1
		c-38.7,0-76.5,0-114.8,0C187,520,187,462.7,187,404.4z M205.4,422.8c0,46.3,0,91.3,0,136.4c26.1,0,51.5,0,77.7,0
		c0-10.5,0-20.7,0-30.7c1.2-0.1,1.8-0.4,2.1-0.2c10.4,6,20.8,12,31.2,18c6.7,3.9,13.5,10.7,20.2,10.7c6.7,0,13.5-6.8,20.2-10.6
		c10.7-6.2,21.4-12.5,33.3-19.4c0,11.6,0,21.8,0,32.1c18.9,0,37,0,55.7,0c0-30.8,0-61.1,0-91.5c0-20.1-12-36.9-30.8-43.7
		c-23.3-8.5-47.4-1.4-64.8,19.1c-2.8,3.3-5.4,6.8-8.3,10.4c-21.1-38.6-66.5-47.6-100.7-4.9c-4-7.2-7.7-14.2-11.8-21
		c-1.1-1.9-3.3-4.3-5.1-4.4C218.2,422.5,212,422.8,205.4,422.8z M682.5,537.1c0.6-0.4,1.2-0.8,1.7-1.2c16.5,16.6,34.5,30.3,59,31.2
		c24.6,0.9,45-8.5,60.7-27.3c22.9-27.4,21.6-69.2-3-95.7c-11.8-12.7-26.3-20.7-43.6-23c-26.3-3.6-48.1,5.9-66.8,24.6
		c-4-5.7-7.4-11-11.2-15.9c-1.2-1.7-3.2-3.8-4.9-3.9c-7.6-0.4-15.3-0.2-22.8-0.2c0,59.7,0,118.3,0,177.1c10.5,0,20.4,0,30.9,0
		C682.5,580.5,682.5,558.8,682.5,537.1z M594,445.4c-39.5-40.1-88-26.9-110.6-1.7c-26.5,29.5-25.8,73.6,2.1,101.4
		c27.1,27,73.6,31.8,108.2-4c8,16.5,20.8,22.5,38.5,17.4c0-44.1,0-88.4,0-132.3c-15.6-3.2-28.8-1.7-35.3,14.9
		C596.4,442.5,595.2,443.7,594,445.4z"/>
</g>
</svg>
