<svg id="Layer_1" data-name="Layer 1" xmlns="http://www.w3.org/2000/svg" viewBox="0 0 1024 1024"><defs><style>.cls-1{fill:#ffcd0a;}.cls-2{fill:#4a4f42;}.cls-3{fill:#f7f7f7;}.cls-4{fill:#585948;}.cls-5{fill:#088d5b;}.cls-6{fill:#7b7e65;}.cls-7{fill:#c7c7a3;}.cls-8{fill:#299169;}.cls-9{fill:#cdcba0;}.cls-10{fill:#dfdcc2;}.cls-11{fill:#e4f4ef;}.cls-12{fill:#ceefe2;}.cls-13{fill:#cac9a1;}.cls-14{fill:#eac039;}</style></defs><title>mylocalservices</title><circle id="_Path_" data-name="&lt;Path&gt;" class="cls-1" cx="512" cy="512" r="512"/><polygon class="cls-2" points="672.25 548.43 710.61 560.1 880.22 595.32 890.65 593.18 895.36 579.95 886.16 567.43 789.98 554.99 749.71 544.29 697.55 532.71 688.29 533.7 678.52 532.73 668.64 538.1 672.25 548.43"/><path class="cls-3" d="M753.12,513.16c4.44,11-1.31,21.07-3.41,31.13-.77,3.72-8.23.8-12.47,2.18l-4.73-3.28-32.09-8.67,12.29-10.64-.41,0c1.6-.1,2.1-1.36,2.35-2.85a14.14,14.14,0,0,0,6.61-7.63c2.85-2.25,5.87-6,11.5-4.65,1.82,3.51,1.4,3.42,4.41,1.83C743.36,507.34,747.87,512.1,753.12,513.16Z" transform="translate(0 0)"/><path class="cls-4" d="M672.5,537.49l-.25-2.8c5.77-2.62,11.92-2.85,18.1-2.91,6.17,3.34,9.36,1.23,10.06-5.47l1.88-.49c4,5.31,8.32-1.53,12.39.42l-10.79,8.35c10.2,2.67,36,8.71,45.07,10.58,0,7.76-28.27-3.48-33.85-4.23" transform="translate(0 0)"/><path class="cls-5" d="M624.91,603.6Q648,598.78,671,594c1.62-.33,3.25-.44,3.77-2.41l11.94,0c2,1.76,4.37,1,6.62.94a241.7,241.7,0,0,1,90.56,13.07c12.7,4.43,25.17,9.52,37.74,14.31.28,3.54,2.42,4.82,5.74,5.28a16.37,16.37,0,0,1,10.74,5.85c8,3.19,14.68,8.45,21,14.18-2.2,6.36,5.29,8.27,6.81,13.77H635.7q-214.71,0-429.42.18c-8.55,0-13.1-.94-10.45-10.57.24-2.51,2-3.37,4.14-3.85,1.5-.5,3.27-.64,4.46-1.54,15.27-11.55,32.2-19.83,49.83-27.2,9-3.78,19.3-4.54,27.31-10.84,3.21-.09,6.63,1.26,9.44-1.44,37.42-11.11,75.17-13.68,113.31-4.12,3,.74,5.51,1.94,8.06-.52l2.21.52c10.3,5.75,21.56,8.65,32.88,11.55,18.38,4.7,36.62,9.88,55.79,10.31,6.25.14,12.5.75,18.75,1.15a84,84,0,0,0,27-1.42l5.88-.36c4.13,0,8.48,1.92,12.18-1.5,6.29-1.74,13.19-1.58,18.62-6,10.33.83,18.95-5.34,28.66-7C617.71,604.79,621.86,606.28,624.91,603.6Z" transform="translate(0 0)"/><path class="cls-2" d="M686.73,591.61l-11.94,0c-6.84-4-11.05-9.49-10.73-17.76l.44-6.25,1.52-.31-.61-1.15-.77,1.62-7.53-.4c-.24-1.11-2.11-2-.54-3.36l.1-.25h-.33c-5.29-2-5.66-5-.48-7.12,6.22-2.57,7.55-6.17,6.25-12.64-1.5-7.43,5.89-7.05,10.14-9.26l.25,2.8c-4.41,6.06,2,4.43,3.87,4.86q102.41,23.45,204.91,46.49c3.35.75,7.88,3.39,9.4-3.19s-3.1-6.93-7.26-7.85c-30.32-6.72-60.72-13.09-90.94-20.21-18.77-4.43-38.13-6.51-56.25-13.63,3.73-1.09,10.27,1.2,11-1.71,1.84-7.89,6.89-15.75,3-24.41-.14-5.32,1.62-8.72,7.77-7.71,1.57,3,6.41-2.22,9.93-1.34,10.64,2.64,11.79,7.84,23.22,6,2,3.58,17.53,4.44,20.26,5,9.79,7.62,14.9,10.69,26,8.11,1.41,6.56,1.41,6.56,7.72,5.95,4.29,5.62,9.56.7,14.31,1.31.8,2.94,3.09,7.13,4.83,6.75,9-2,16.78,2.69,25.14,3.76,7.33,2.68,8.5,9.12,7.95,15.36-1.56,17.74-3.92,35.41-5.81,53.12-.53,5-3.23,5.94-7.5,5.08-3.89-.79-7.82-1.37-11.69-2.23-8-1.78-16-4.91-20.44,6.22-2.23,5.58-10.86,2-13.7,7.81a16.39,16.39,0,0,0-10.75-5.85c-3.31-.47-5.45-1.75-5.74-5.28,3.35-10.82,2.12-13.75-7.55-15.88-31.29-6.87-62.75-13-93.87-20.57C707,580.26,695.75,580,686.73,591.61Zm-18.24-30c.58-.16,1.9.33,1-1.14l-.86,1.28c-.69.31-2.36.15-.72,1.55Zm158.06-17.37c-1.11-7.32-5.45-11.67-12.54-11.52s-11.36,4.94-11.77,12.12c-.37,6.58,6.33,12.7,12.91,11.93C822.43,555.94,825.95,551.28,826.55,544.25ZM681,585.73c6-1.45,10.53-4.6,10.43-11-.09-5.45-3.61-9.25-9.44-9.25-6.44,0-10.82,4.49-11,10C670.88,580.58,675.08,584.75,681,585.73ZM840.55,601c-6.2.25-9.88,3.59-10.27,9.09-.45,6.32,3.76,10,9.79,10,5.62,0,9.3-3.49,9.39-9.38S845.65,602.06,840.55,601ZM675,558.58a3.49,3.49,0,0,0-.8-.18c-.09,0-.19.27-.28.42a3.51,3.51,0,0,0,.8.16C674.8,559,674.89,558.72,675,558.58Z" transform="translate(0 0)"/><path class="cls-6" d="M281.58,605.18c-8,6.29-18.26,7.05-27.31,10.84-17.63,7.37-34.56,15.65-49.83,27.2-1.19.9-3,1-4.46,1.54-13.32-31.52-26.13-63.27-40.26-94.43-4.64-10.23-6.49-22-14.76-30.49-.5-2.47-.59-5.12-2.92-6.8a7.2,7.2,0,0,1-.44-1.13c0-.08.34-.25.53-.39q.07-3.2.13-6.39l6-.45a30,30,0,0,1,2.52,4.11q24.42,59,48.71,118.08c1.56,3.8,2.35,7.72,8.17,5.63s5.13-5.19,3.18-9.9c-15.67-37.8-30.92-75.77-46.79-113.48-2.68-6.37-1.3-9.14,4.6-11.06a29,29,0,0,0,6.45-2.51c7.74-4.83,10.85-2.22,13.94,6,13.53,36.17,27.83,72.05,42.05,108,1.35,3.41,1.4,9.39,8.26,7,6.68-2.31,3.63-6.67,2.22-10.41-12.78-34-26-67.8-38.41-101.9-7.44-20.39-8.66-15.34,10-23.07,8.15-3.38,10.65-1.45,12.84,6.33,10.19,36.19,20.8,72.25,31.42,108.32,1,3.31.65,8.89,7.07,6.89,5.54-1.73,5.23-5.29,3.86-10.17-10.43-37.16-20.34-74.47-31-111.56-1.66-5.77-.46-8.43,4.25-10.71l7.22-.57C261,514.58,271.37,559.86,281.58,605.18Zm-65.73-13.62c-4.34-11.88-8.68-24-13.23-36.06-1.09-2.89-1.91-7-6.8-4.7-3.78,1.75-7.1,3.44-5.09,8.86,4.25,11.46,8.09,23.07,12.14,34.6.82,2.33,1.09,6,5,4.1C210.91,596.9,215.12,596.45,215.84,591.56ZM178.12,498.3c-3.87,2.15-10,2.55-7.19,10.09,3.77,10.23,7.11,20.62,10.65,30.94.85,2.47,1.53,6,5.15,3.87,4.76-2.76,11.37-4.35,6.91-13.07-4.18-8.17-6.44-17.31-9.75-25.94C182.91,501.62,182.53,498.09,178.12,498.3Zm51.31,22.32c-3.72-9.15-7.78-19.55-12.24-29.78-1-2.29-.61-8.06-6-4.56-3.19,2.07-9.15,2.64-6.74,8.92q5.65,14.72,11.66,29.29c1.7,4.12,5,3.58,8.28,2.13C226.61,525.64,230,525.86,229.44,520.61Zm18.32,54.26c-3.84-10.71-7.77-21.16-11.31-31.73-1.53-4.56-3.73-6.74-8.64-4.91-5.31,2-4.24,5.73-2.95,9.71,3.13,9.66,6.11,19.36,9.27,29,.83,2.54.79,6.35,5.47,4.64C243.18,580.28,247.55,580,247.75,574.88Z" transform="translate(0 0)"/><path class="cls-2" d="M281.58,605.18c-10.2-45.32-20.59-90.61-32.74-135.46.91-3.51-2.28-6.4-2.32-8.94-.16-11.62-6.2-8.21-12.59-6-29,9.85-58,19.53-87.05,29.25-13,4.34-13,4.32-8.58,16.68l-3.23,2.71c-8.62-17.36-8.62-17.36,9.82-23.55,2.19-.73,4.38-1.45,6.57-2.19,9.85-3.35,11.09-8.09,5.06-17-2.91-4.32-5.79-1.5-8.58-.63-15.15,4.72-15.13,4.78-19.8-10.66-6.26-20.69-6.27-20.7,14.54-27.37,22.92-7.35,45.93-14.43,68.72-22.18,6.18-2.1,9-1.18,10.49,5.2a87,87,0,0,0,4.83,14c3.47,8.16,6.5,15.69-6.94,17-5,.51-4.54,4.31-2.48,7.27,2.35,3.39-.37,11.43,8,9.53,5.75-1.31,11.38-3.18,17.06-4.79,5.39.71,5.24-3.39,5.9-6.79l10.15,39.26q13.62,58.1,27.27,116.2c.72,3.05.72,6.89,5.38,7C288.2,606.44,284.78,605.09,281.58,605.18ZM172.45,422.92c-6.6-3.17-8,6.23-13.48,5.64-6.14,1.65-12.35,4.13-18.23,5.27-8.63,1.67-4.73,5.75-4.28,9.64.63,5.42,2.93,8.9,9.12,6.82,22.19-7.47,44.4-14.88,66.51-22.59,7-2.45,3.8-8.14,2.77-12.62-1.11-4.83-4.58-4.6-8.56-3.25C195.05,415.64,183.74,419.24,172.45,422.92Zm30.83,18.36c-12.12,4.13-24,7.29-35,12.3-5.92,2.69.22,7.89.78,11.92.52,3.71,2.42,5.72,6.88,4.12,10.22-3.68,20.55-7,30.91-10.31,3.63-1.14,5.05-2.87,3.13-6.38C207.78,449,208.73,443.09,203.28,441.28Z" transform="translate(0 0)"/><path class="cls-7" d="M624.91,603.6c-3.05,2.68-7.2,1.19-10.53,2.77-2.21-3.3-1.52-7-1.42-10.61.67-22.79,1.42-45.57,2.07-68.35.1-3.52,1-7.76-4.09-8.8-22.93-4.71-45.87-9.43-68.86-13.88-5.55-1.07-4,2.37-2.55,5.28-1.53,2.84-4.32,5.08-4,8.8,1.13,13.21-3.46,26.14-1.9,39.37l-1.95,3c-.38,6.54-.58,13-1.79,19.56-2.85,15.4-1,18.79,9.59,22.62-2.06.83-5.53-.45-5.43,3.62-4,.26-6.94,1.4-6.56,6.37.29,3.79-.44,7.28-5.11,8.1-1.51-2.81-1-5.81-.74-8.75,1.29-15.76,2.58-31.52,4-47.27,2.4-26.89,4.66-53.79,7.43-80.64,1.24-12,.76-12.9-11.75-11.58l-9.62-.69c-3-3.26-6.66-2-10.22-1.49l-7.64-.6c-2.44-2.74-5.36-2.08-8.31-1.15l-9.56-.86c-3.09-3-6.69-2-10.25-1.3l-7.64-.46c-4.71-3.11-9.43-4.27-14.18-.09l-5.19.1c-.4-4.18-3.58-3.93-6.55-4.25-5.87-.64-11.72-1.46-17.57-2.2l0-5.47c5.53.56,11.06,1.1,16.59,1.67q50.34,5.19,100.67,10.46c3.44.37,7.57.53,7.69,5.71.4,7.23-2.75,15.37.77,21.47,3.74,6.49,12.77,3.36,19.26,5.39,17.32,5.42,35.35,7.54,53.09,11,7.2,1.41,12.12,2.77,10.86,13.16-1.93,16-.63,32.34-1,48.53-.18,7.89-1.05,15.77-1.52,23.66C620.84,599.06,620.32,602.64,624.91,603.6Z" transform="translate(0 0)"/><path class="cls-4" d="M248.22,441.26c-.66,3.4-.51,7.5-5.9,6.79,4.22-3.21,2-7.26,1.16-10.9-3.62-16.12-8-32.08-11-48.32-1.47-8.2-4.63-10.55-12.34-8.6-3.08.78-6.43.47-9.88.67,0-5.28,3.8-8,6.13-11.4q40.05-57.3,80.37-114.42c3-4.3,5-7.79,11.22-2.82,42.09,33.47,84.53,66.49,126.84,99.69a14.07,14.07,0,0,1,2,2.59c-8,3.76-17.36,0-24.74,5.19l-3.65-.55c-3.93.11-7.9-.07-11.8.37-22.44,2.5-44.86,5.15-67.28,7.75l-21.95,2.55c-8.44,1.08-16.94,1.86-25.32,3.33-11.39,2-23.31.86-34.18,5.84l-2.67.26c-9.94-2.32-10.49,2.21-8.46,10.38C241,406.76,244.44,424.05,248.22,441.26Zm-17.15-84.69-2.42,3.61c-3.66,4.35-7.92,8.38-8.75,15.85l205-24.11c-1-1.76-1.22-2.85-1.91-3.39q-57.58-45.33-115.17-90.65c-3.92-3.1-6-2.38-8.6,1.45-11.36,16.61-22.94,33.07-34.43,49.58L259,317l-4.11,5.82-4.17,5.81c-2.56,2.93-5.15,5.84-6.4,9.63L241,342.67a25.46,25.46,0,0,0-6.5,9.51Z" transform="translate(0 0)"/><path class="cls-6" d="M539.55,472.58c-.11-5.18-4.25-5.34-7.69-5.71q-50.32-5.35-100.67-10.46c-5.53-.57-11.06-1.11-16.59-1.67,1-4.93-3.4-11.3,3.88-14.55,23.88,2.15,47.77,4.17,71.63,6.49,18.29,1.78,36.52,4,54.81,5.86,4.5.45,5.71,2.6,6.76,6.75,1.94,7.69-3.83,9.6-8.1,12.87Z" transform="translate(0 0)"/><path class="cls-2" d="M543.58,472.15c4.27-3.26,10-5.18,8.1-12.87-1-4.15-2.26-6.31-6.76-6.75-18.28-1.81-36.52-4.08-54.81-5.86-23.86-2.32-47.75-4.34-71.63-6.48l-1.91-10.86c24.14-29.65,54.87-36.46,82.63-18.31a87,87,0,0,1,26.2,26.64c4.11,6.55,8.79,9.36,16.49,9.85,12.68.82,20.09,14,13.8,24.53C553,476.56,547.69,475.1,543.58,472.15ZM469.1,405c-15.31,1.46-29.38,6.37-40.31,18.13-2.55,2.75-7.87,4.9-6,9.26,1.8,4.11,7.16,3.78,11.38,4.19,12.76,1.24,25.5,2.81,38.29,3.64,14.79,1,29.52,2.2,44.21,4.17,2.4.32,8.86,1.34,5.06-4.2C509.07,421.72,493,407.55,469.1,405Z" transform="translate(0 0)"/><path class="cls-8" d="M195.83,648.61c-2.65,9.64,1.91,10.59,10.45,10.57Q421,658.75,635.7,659H866c-1.52-5.5-9-7.41-6.81-13.77,6.19,3.34,10.57,8.63,17,14.86H181c3.63-5.39,8.64-8.61,14-11.43Z" transform="translate(0 0)"/><path class="cls-4" d="M416.58,429.33l1.91,10.86c-7.29,3.25-2.9,9.61-3.88,14.55q0,2.74,0,5.48c.19,15.42.57,30.8,1.31,46.22,1.39,28.89.53,57.89.59,86.85,0,2.29.22,4.66-1.88,6.33l-2.21-.52q-1.15-83.2-2.3-166.4l3.15-3.52Z" transform="translate(0 0)"/><path class="cls-4" d="M195.83,648.61l-.88.05c-6.49-22.17-17.41-42.55-25.92-63.9-8.65-21.69-17.84-43.17-26.79-64.74l2.71-.19c8.27,8.51,10.12,20.26,14.76,30.49,14.13,31.15,26.94,62.91,40.26,94.43C197.84,645.24,196.06,646.09,195.83,648.61Z" transform="translate(0 0)"/><path class="cls-4" d="M889.32,545.69c-8.37-1.06-16.1-5.79-25.14-3.76-1.73.39-4-3.81-4.83-6.74,2.24,0,4.44-.07,6.43-2.65-1.36-.26-2.59-.19-3.48-.71-5.25-3,1-1.38,1-2.29,12.08,0,23.56,3.57,35.05,6.57,5.86,1.53.85,4.52-.6,6.12C895.61,544.56,891.2,542.17,889.32,545.69Z" transform="translate(0 0)"/><path class="cls-2" d="M413.23,429.18l-3.15,3.52q-.53-13.56-1.07-27.11-.17-4.89-.33-9.8l-.1-16.76.56-.26c1.81-2.58,2-5.1-.33-7.5l-.4-12.09,3.65.55Q412.65,394.46,413.23,429.18Z" transform="translate(0 0)"/><path class="cls-4" d="M931.94,613.05c-10.71-1.17-21.42-2.26-32.11-3.59-2-.24-2.13-2.23-1.67-3.95.69-2.61,2.76-2.46,4.71-2,9.84,2.1,19.66,4.29,29.48,6.45Z" transform="translate(0 0)"/><path class="cls-4" d="M935.87,593.18c-10.91-1.15-21.82-2.24-32.71-3.49-2.63-.3-2.69-2.43-2.29-4.51.49-2.51,2-2.93,4.36-2.37,10.34,2.5,20.71,4.91,31.06,7.35Z" transform="translate(0 0)"/><path class="cls-7" d="M657.11,567.33l7.53.4-.13-.16-.44,6.25C659.59,574,656.19,573,657.11,567.33Z" transform="translate(0 0)"/><path class="cls-2" d="M142.25,505.13q-.07,3.19-.13,6.39c-6.73,1.09-5.18-5-7.06-8.13l3.23-2.71Z" transform="translate(0 0)"/><path class="cls-2" d="M144.95,519.84l-2.71.19c-1.05-2.3-3.76-4.55-.21-7C144.36,514.73,144.44,517.37,144.95,519.84Z" transform="translate(0 0)"/><path class="cls-9" d="M409,405.59q.54,13.56,1.07,27.12,1.15,83.2,2.3,166.4c-2.56,2.46-5.1,1.26-8.06.52-38.14-9.56-75.89-7-113.31,4.12-4.66-.13-4.67-4-5.39-7q-13.69-58.09-27.26-116.2c4.4-2,10.76.15,13.07-6.23,17-4.21,34-7.92,51.39-10,6.94.57,13.47-1.55,20.08-3.12,16.89-2.2,34-.12,50.92-2.54,7.35-1,11.66-2.65,10.94-11.17a110,110,0,0,1,0-22.64C405.57,418.39,403,410.94,409,405.59Zm-42,76.78v.22c-4.61,0-9.23-.22-13.83.07-3.84.24-8.34-1.52-11.39,1.51-4.08,4,3.32,23.89,9,24.87,12.68,2.18,25.66-.22,38.35,2.37,3.12.64,4.46-1.39,4.57-4.77.76-24.64.82-24.64-23.79-24.26C369,482.38,368,482.37,367,482.37Zm-49,3.78c-3.89.65-7.77,1.38-11.67,1.94-4.23.61-8.5.93-12.72,1.6-22,3.48-21.77,3.45-15.1,24.54,1.7,5.37,4.22,6.74,9.32,5.21,7.88-2.36,15.82-4.51,23.77-6.63,14.93-4,14.71-3.92,13.83-19.28C325.15,488.22,324,485.14,318,486.15Z" transform="translate(0 0)"/><path class="cls-6" d="M414.6,599.62c2.1-1.67,1.89-4,1.88-6.33-.07-29,.8-58-.59-86.85-.74-15.42-1.12-30.81-1.31-46.22,5.86.74,11.71,1.56,17.57,2.2,3,.33,6.15.07,6.55,4.25-1.77,14.17,1.5,27.47,7,40.39A37.14,37.14,0,0,1,447,532.18c-1.43,5.18-7,7.85-7.81,13.36,14.43.56,18.48-2.64,19.43-15.49a50.42,50.42,0,0,0-5.1-25.9c-4.35-9-5-18.26-2.68-27.85a108,108,0,0,1,10.82.08c15.41,1.6,31.06,1.41,46,6.26-1.53.46-3.18,1.53-4.57,1.27-7.86-1.46-10.19,1.55-9.48,9.35.78,8.53.38,17.18.17,25.77-.14,5.52,1.22,9.19,7.65,8.57,5.31-.52,11.4,1.19,12.56-7.47.89-6.67.07-13.81,3.76-20,2.52,2,2,4.84,1.69,7.35-1.59,15-3.36,30-5.08,45.06-2.13,18.62-4.3,37.23-6.4,55.85-.31,2.77,0,5.8,3.49,6s3.91-2.92,4.05-5.64c.22-4.29,0-8.62.51-12.87,4.09-35.92,8.66-71.78,12-107.79.7-7.48-.43-11.73-6.77-14.86,12.51-1.32,13-.4,11.75,11.58-2.77,26.85-5,53.75-7.43,80.64-1.4,15.75-2.69,31.51-4,47.27-.24,2.94-.77,5.94.74,8.75a8.81,8.81,0,0,1-.36,1.18c-6.25-.4-12.49-1-18.75-1.15-19.17-.44-37.42-5.61-55.79-10.31C436.16,608.27,424.9,605.37,414.6,599.62Zm51.73-36.35c7.13,5.72,20.16,4.82,21.23-1.4,1.88-11,2.84-22.21,4.16-33.33.4-3.35-.27-5.58-4.39-6.13-17.13-2.27-19.47-.34-19.39,16.8.1,19.42.11,19.58-18.81,20.44-4.86.22-7.24,1.32-7,6.74.38,10.24.37,20.5.18,30.75-.11,5.69,3,7,7.53,6.06s11.31,3.43,12.29-5.53C463.33,586.54,464.82,575.43,466.33,563.27Zm-39.89-79.7,1.68-.58c.35-3.25.08-6.74,1.25-9.66.9-2.25,2.64-3.93-.21-5.6a4.34,4.34,0,0,0-3.6-.26c-2.06,1.11-4,3-3.24,5.54C423.39,476.62,425,480.06,426.45,483.57Z" transform="translate(0 0)"/><path class="cls-6" d="M531.68,561.18l1.95-3a25,25,0,0,1,2.95.13c23.06,3.64,23.06,3.64,25-18.71,2.12-24.61,2.12-24.61-22-29.59-1.48-2.91-3-6.35,2.55-5.28,23,4.44,45.92,9.17,68.86,13.88,5.06,1,4.19,5.28,4.09,8.8-.65,22.79-1.4,45.57-2.07,68.35-.11,3.6-.79,7.31,1.42,10.61-9.73,1.67-18.35,7.84-28.68,7-5.18-5.66-12.09-3.43-18.35-3.91-3.31-.25-7.35-1.34-7.85,4.41-.57,6.54,3.82,5.38,7.59,5.48-3.7,3.41-8.05,1.54-12.18,1.5,1-12.61,1-12.63-11.8-13.47-1.91-.13-3.83-.05-5.75-.07l-3.3-.34c-.11-4.08,3.37-2.79,5.43-3.62,17.23.24,17.18.23,18.13-16.9A105.29,105.29,0,0,1,559,574.69c1-5.69.24-9.28-7-9.72C545.19,564.54,538.46,562.5,531.68,561.18Zm33.48-9.3c-1.33,6.53-.52,11.9,9.87,12.14,13.88.32,13.85,1,14.31-13.6a104,104,0,0,1,.61-10.84c2.58-18.83,2.63-18.82-15-22.62-.32-.07-.62-.22-.94-.31-4.73-1.31-6.5.62-6.73,5.39C566.86,531.55,566,541,565.17,551.88Zm21.71,32c.79-14.7.76-14.48-14.24-16.25-6.57-.77-9.77.65-9.63,8a102.85,102.85,0,0,1-1.78,18.58c-1.86,11.23-.79,11.83,10.59,13.35,10.78,1.44,14.8-3,15-12.85C586.95,591.09,586.87,587.48,586.87,583.86Zm22.21-39.28q0-7.91,0-15.82c0-6.1-5.28-4.92-8.65-5.91-4-1.2-5.08,1.77-5.3,5.08-.69,10.51-1.18,21-2.13,31.52-.6,6.64,3.53,7.42,8.46,8.19,6.07.94,6.4-3.47,6.84-7.25C608.91,555.15,608.86,549.85,609.08,544.58Zm-2.12,44h.26c0-2.63-.16-5.27,0-7.88.36-5,.14-8.67-6.64-9.37-7.12-.73-8.62,3.08-9,8.39-.48,6.22-.1,12.52-.81,18.7-.79,6.93,1.76,9.11,8.65,9.32,7.62.23,7.79-3.92,7.56-9.3C606.85,595.19,607,591.9,607,588.62Z" transform="translate(0 0)"/><path class="cls-10" d="M537.36,607.32c1.92,0,3.84-.06,5.75.07,12.79.84,12.79.85,11.8,13.47l-5.88.36C536.41,619.86,533.78,616.73,537.36,607.32Z" transform="translate(0 0)"/><path class="cls-7" d="M567.08,619.36c-3.76-.09-8.15,1.07-7.59-5.48.5-5.75,4.54-4.66,7.85-4.41,6.26.48,13.18-1.75,18.35,3.91C580.27,617.78,573.37,617.61,567.08,619.36Z" transform="translate(0 0)"/><path class="cls-10" d="M537.36,607.32c-3.58,9.41-1,12.54,11.66,13.9a84,84,0,0,1-27,1.42,9.18,9.18,0,0,0,.36-1.18c4.68-.82,5.4-4.32,5.11-8.1-.38-5,2.57-6.11,6.56-6.37Z" transform="translate(0 0)"/><path class="cls-11" d="M826.55,544.25c-.6,7-4.11,11.68-11.4,12.53-6.58.77-13.29-5.36-12.91-11.93.41-7.18,4.57-12,11.77-12.12S825.44,536.93,826.55,544.25Z" transform="translate(0 0)"/><path class="cls-11" d="M681,585.73c-5.9-1-10.09-5.15-10-10.21.14-5.53,4.52-10,11-10,5.83,0,9.36,3.8,9.44,9.25C691.51,581.13,686.93,584.28,681,585.73Z" transform="translate(0 0)"/><path class="cls-12" d="M840.55,601c5.09,1.05,9,3.78,8.91,9.74s-3.77,9.41-9.39,9.38c-6,0-10.24-3.72-9.79-10C830.68,604.6,834.35,601.26,840.55,601Z" transform="translate(0 0)"/><path class="cls-2" d="M675,558.58c-.09.14-.19.4-.28.41a3.51,3.51,0,0,1-.8-.16c.09-.15.19-.42.28-.42A3.49,3.49,0,0,1,675,558.58Z" transform="translate(0 0)"/><path class="cls-2" d="M668.64,561.76l.86-1.28c.9,1.47-.43,1-1,1.14Z" transform="translate(0 0)"/><polygon class="cls-7" points="656.35 563.71 656.67 563.72 656.57 563.97 656.35 563.71"/><path class="cls-2" d="M668.49,561.62l-.57,1.68c-1.64-1.39,0-1.24.72-1.55Z" transform="translate(0 0)"/><path class="cls-7" d="M664.64,567.72l.77-1.62.61,1.15-1.52.31Z" transform="translate(0 0)"/><path class="cls-13" d="M241.61,470.29c-4.71,2.27-5.91,4.94-4.25,10.71,10.67,37.09,20.59,74.4,31,111.56,1.37,4.87,1.68,8.44-3.86,10.17-6.43,2-6.1-3.58-7.07-6.89C246.81,559.77,236.2,523.7,226,487.52c-2.19-7.78-4.69-9.71-12.84-6.33-18.67,7.73-17.45,2.68-10,23.07,12.44,34.1,25.63,67.92,38.41,101.9,1.41,3.74,4.46,8.1-2.22,10.41-6.86,2.37-6.91-3.61-8.26-7-14.23-35.91-28.52-71.79-42.05-108-3.09-8.26-6.2-10.86-13.94-6a29,29,0,0,1-6.45,2.51c-5.9,1.91-7.28,4.68-4.6,11.06,15.87,37.71,31.11,75.68,46.79,113.48,2,4.72,2.63,7.82-3.18,9.9s-6.6-1.82-8.17-5.63q-24.27-59.08-48.71-118.08a30.41,30.41,0,0,0-2.52-4.12q0-2.76,0-5.51l91.07-33.55Z" transform="translate(0 0)"/><path class="cls-7" d="M148.33,499.16q0,2.75,0,5.51l-6,.45-4-4.44c-4.38-12.36-4.38-12.34,8.59-16.69,29-9.72,58.07-19.4,87.05-29.25,6.39-2.17,12.43-5.58,12.59,6,0,2.53,3.22,5.42,2.32,8.94l-7.23.57-2.21-4.67c3.81-5.14.95-5.72-3.33-4.48-7.86,2.28-15.65,4.83-23.4,7.44-20.82,7-41.6,14.15-62.41,21.19C144.1,491.85,140.82,494.36,148.33,499.16Z" transform="translate(0 0)"/><path class="cls-13" d="M215.84,591.56c-.72,4.89-4.93,5.34-8,6.81-3.9,1.88-4.17-1.77-5-4.1-4.06-11.53-7.89-23.15-12.14-34.6-2-5.43,1.3-7.12,5.09-8.86,4.89-2.25,5.7,1.81,6.8,4.7C207.16,567.55,211.51,579.68,215.84,591.56Z" transform="translate(0 0)"/><path class="cls-13" d="M178.12,498.3c4.4-.21,4.79,3.32,5.77,5.89,3.31,8.63,5.57,17.77,9.75,25.94,4.46,8.73-2.16,10.32-6.91,13.07-3.63,2.1-4.31-1.4-5.15-3.87C178,529,174.7,518.62,170.93,508.39,168.15,500.85,174.25,500.45,178.12,498.3Z" transform="translate(0 0)"/><path class="cls-13" d="M229.44,520.61c.52,5.25-2.83,5-5,6-3.3,1.45-6.58,2-8.28-2.13q-6-14.57-11.66-29.29c-2.41-6.28,3.55-6.85,6.74-8.92,5.4-3.51,5,2.27,6,4.56C221.65,501.06,225.71,511.46,229.44,520.61Z" transform="translate(0 0)"/><path class="cls-7" d="M247.75,574.88c-.2,5.13-4.57,5.4-8.16,6.71-4.68,1.71-4.64-2.1-5.47-4.64-3.15-9.65-6.14-19.35-9.27-29-1.29-4-2.37-7.74,2.95-9.71,4.91-1.83,7.11.35,8.64,4.91C240,553.72,243.91,564.17,247.75,574.88Z" transform="translate(0 0)"/><path class="cls-14" d="M172.45,422.92c11.29-3.68,22.6-7.28,33.84-11.1,4-1.35,7.45-1.58,8.56,3.25,1,4.48,4.26,10.17-2.77,12.62-22.11,7.71-44.32,15.12-66.51,22.59-6.19,2.08-8.5-1.4-9.12-6.82-.45-3.88-4.34-8,4.28-9.64,5.88-1.14,12.09-3.62,18.23-5.27,1,4.15,4.95,7.78,1.82,13.11,5.12-8,13.29-7.21,20.07-7.19,7.7,0,10.85-2.58,11.19-9.75l.37-.8-.42.75C185.41,424.83,178,434.29,172.45,422.92Z" transform="translate(0 0)"/><path class="cls-3" d="M203.28,441.28c5.46,1.82,4.51,7.72,6.65,11.65,1.92,3.51.49,5.24-3.13,6.38-10.36,3.26-20.69,6.63-30.91,10.31-4.46,1.6-6.36-.41-6.88-4.12-.56-4-6.7-9.23-.78-11.92C179.27,448.56,191.16,445.41,203.28,441.28Z" transform="translate(0 0)"/><path class="cls-7" d="M271.43,474.3c-2.3,6.38-8.67,4.24-13.07,6.23q-5.08-19.63-10.15-39.26c-3.77-17.21-7.22-34.5-11.45-51.6-2-8.17-1.48-12.7,8.46-10.38-3.75,2.18-5.72,4.06-4.33,9.67q9.28,37.42,16.75,75.27C259.35,472.81,263,476.18,271.43,474.3Z" transform="translate(0 0)"/><path class="cls-4" d="M192,424.73c-.33,7.17-3.49,9.78-11.19,9.75-6.78,0-15-.82-20.07,7.19,3.13-5.33-.83-9-1.82-13.11,5.53.59,6.88-8.81,13.49-5.64,5.54,11.38,13,1.91,19.54,1.76Z" transform="translate(0 0)"/><path class="cls-2" d="M521.31,473.22c6.33,3.13,7.46,7.38,6.77,14.86-3.35,36-7.91,71.87-12,107.79-.49,4.26-.29,8.58-.51,12.87-.14,2.72-.54,5.81-4.05,5.64s-3.8-3.2-3.49-6c2.09-18.62,4.26-37.24,6.4-55.85,1.72-15,3.48-30,5.08-45.06.27-2.51.83-5.36-1.69-7.35l.41-5.68c5-5.83,4.68-8.9-1.15-11.58l-9.36-.24c-15-4.85-30.62-4.66-46-6.26a108,108,0,0,0-10.82-.08l1.23-7.8c1.35-2.74,4.76,1.27,6-1.84l7.64.46c2.84,4.9,6.42,4.07,10.25,1.31l9.56.86c2.26,4,5.09,4,8.31,1.15l7.64.59c2.75,5,6.37,4,10.22,1.5Z" transform="translate(0 0)"/><path class="cls-10" d="M539.53,510c24.15,5,24.15,5,22,29.59-1.92,22.35-1.92,22.34-25,18.71a25,25,0,0,0-2.95-.13c-1.56-13.23,3-26.17,1.9-39.37C535.21,515.08,538,512.85,539.53,510Z" transform="translate(0 0)"/><path class="cls-10" d="M531.68,561.18c6.78,1.33,13.51,3.36,20.34,3.79,7.2.45,7.92,4,7,9.72a105.29,105.29,0,0,0-1.36,11.77c-.95,17.14-.9,17.14-18.13,16.9-10.6-3.83-12.44-7.21-9.59-22.62C531.11,574.19,531.3,567.71,531.68,561.18Z" transform="translate(0 0)"/><path class="cls-3" d="M452.08,468.5l-1.23,7.8c-2.29,9.59-1.67,18.83,2.68,27.85a50.42,50.42,0,0,1,5.1,25.9c-1,12.85-5,16.05-19.43,15.49.83-5.51,6.38-8.18,7.81-13.36a37.14,37.14,0,0,0-1.34-25.12c-5.46-12.93-8.73-26.22-7-40.39l5.19-.1C446.27,468.71,449.23,468.34,452.08,468.5Z" transform="translate(0 0)"/><path class="cls-6" d="M452.08,468.5c-2.84-.15-5.81.22-8.19-1.93,4.75-4.18,9.48-3,14.18.09C456.84,469.77,453.43,465.76,452.08,468.5Z" transform="translate(0 0)"/><path class="cls-6" d="M511.69,472.53c-3.84,2.47-7.46,3.46-10.22-1.5C505,470.49,508.68,469.27,511.69,472.53Z" transform="translate(0 0)"/><path class="cls-6" d="M476,468.43c-3.82,2.76-7.4,3.59-10.25-1.31C469.27,466.44,472.87,465.46,476,468.43Z" transform="translate(0 0)"/><path class="cls-6" d="M493.83,470.44c-3.22,2.84-6,2.88-8.31-1.15C488.47,468.36,491.38,467.7,493.83,470.44Z" transform="translate(0 0)"/><path class="cls-6" d="M271.43,474.3c-8.44,1.88-12.08-1.49-13.79-10.07q-7.52-37.81-16.75-75.27c-1.39-5.61.58-7.48,4.33-9.67l2.67-.26c11.64,2.22,23.11-1.56,34.53-1.45,1,2.65-.4,4.28-1.4,5.88-20.21,32,1.89,74.51,36.53,77.21,2.45.19,4.51,1,5.28,3.66C305.45,466.38,288.39,470.09,271.43,474.3Z" transform="translate(0 0)"/><path class="cls-7" d="M322.82,464.32c-.77-2.65-2.83-3.46-5.28-3.66C282.91,458,260.81,415.5,281,383.45c1-1.59,2.45-3.23,1.4-5.88-11.42-.1-22.89,3.68-34.53,1.45,10.87-5,22.8-3.85,34.18-5.84,8.38-1.47,16.87-2.24,25.31-3.33,1.76,5.22-3.41,4.62-5.54,6.14-19.33,13.82-23.83,40.16-9.75,58.57,14.81,19.38,40.68,22.2,59.49,6.47,23.62-19.74,16.59-58.67-12.52-69.54-3.31-1.23-7.27-1-9.73-4.2,22.43-2.6,44.85-5.25,67.28-7.75,3.9-.43,7.86-.26,11.8-.37l.4,12.09-.76-.35L404.22,369c-.24-3.4-2.28-4.28-5.38-4.13a276.53,276.53,0,0,0-39.29,4.88c-.1,3.59,2.22,4.72,3.67,6.38,23.92,27.43,14.31,67-19.61,80.59-2.95,1.18-2,2.7-.7,4.42C336.3,462.77,329.77,464.88,322.82,464.32Z" transform="translate(0 0)"/><path class="cls-7" d="M264.82,308.91c11.5-16.51,23.07-33,34.44-49.58,2.62-3.83,4.68-4.55,8.6-1.45Q365.35,303.32,423,348.52c.69.54.95,1.64,1.91,3.39L219.89,376c.84-7.46,5.09-11.5,8.75-15.85l1.71,1.5c-2.24,4.69-.06,5.82,4.25,5.31,5.83-.68,11.71-1,17.48-2,13-2.28,26.54-1.52,39.27-5.88l-.14.12c37.81-2,75.19-7.48,115.57-12.46C371.65,318.51,339,292.32,306.51,266c-4.84-3.92-6.3.19-8.3,2.88-10.43,14-20.76,28.12-31.12,42.19Z" transform="translate(0 0)"/><path class="cls-6" d="M329.33,367.3c2.46,3.2,6.42,3,9.73,4.2,29.11,10.87,36.14,49.8,12.52,69.54-18.82,15.73-44.68,12.91-59.49-6.47-14.07-18.42-9.58-44.76,9.75-58.57,2.13-1.52,7.3-.93,5.54-6.14Zm-40.51,42.53c-.1,21,15.06,36.78,35.5,36.92s36.63-15.59,36.81-35.89c.19-21.18-15.31-37.29-36.28-37.7C305,372.76,288.92,389.12,288.82,409.84Z" transform="translate(0 0)"/><path class="cls-7" d="M244.33,338.28c1.27-3.79,3.85-6.7,6.42-9.63l2.23,2-6.71,9.18Z" transform="translate(0 0)"/><path class="cls-7" d="M259,317l5.79-8.11,2.27,2.14-5.88,8Z" transform="translate(0 0)"/><path class="cls-7" d="M234.44,352.18a25.74,25.74,0,0,1,6.52-9.5l2,1.88-6.76,9.11Z" transform="translate(0 0)"/><path class="cls-7" d="M254.92,322.84,259,317l2.17,2-4.07,5.82Z" transform="translate(0 0)"/><path class="cls-7" d="M250.75,328.65l4.17-5.81,2.21,2-4.15,5.8Z" transform="translate(0 0)"/><path class="cls-7" d="M241,342.67l3.37-4.39,1.93,1.59L243,344.56Z" transform="translate(0 0)"/><path class="cls-7" d="M231.06,356.57l3.4-4.39,1.76,1.48-3.28,4.67Z" transform="translate(0 0)"/><path class="cls-7" d="M228.64,360.18l2.42-3.61,1.87,1.75-2.57,3.36Z" transform="translate(0 0)"/><path class="cls-6" d="M469.1,405c23.89,2.52,40,16.69,52.67,35.19,3.8,5.54-2.65,4.52-5.06,4.2-14.69-2-29.43-3.21-44.21-4.17-12.79-.83-25.53-2.4-38.29-3.64-4.22-.41-9.59-.08-11.38-4.19-1.91-4.36,3.42-6.51,6-9.26C439.72,411.4,453.79,406.49,469.1,405Z" transform="translate(0 0)"/><path class="cls-4" d="M714.32,526.25l2.07-2.24C716.16,525.18,715.73,526.17,714.32,526.25Z" transform="translate(0 0)"/><path class="cls-10" d="M797.74,518c-7-.18-14.22.15-19.62-5.67C784.77,513.84,791.91,513.64,797.74,518Z" transform="translate(0 0)"/><path class="cls-6" d="M821.78,524.45c-1.88,1.93-4,1.84-6.15.62.07-1.46-.36-3.42,1.32-4C819.68,520.23,819.79,523.83,821.78,524.45Z" transform="translate(0 0)"/><path class="cls-10" d="M823.4,525.26l.12-.54a10.78,10.78,0,0,1,7.72-.25l-1.91,1.61Z" transform="translate(0 0)"/><path class="cls-6" d="M849.46,531.72l4.36.94-.15,1-4.58-.28A12.66,12.66,0,0,1,849.46,531.72Z" transform="translate(0 0)"/><path class="cls-10" d="M797.68,519.82a2.1,2.1,0,0,1,0-1.9l1.47.25Z" transform="translate(0 0)"/><path class="cls-6" d="M342.91,461.2c-1.35-1.72-2.25-3.24.7-4.42,33.92-13.57,43.53-53.16,19.61-80.59-1.45-1.66-3.77-2.8-3.67-6.38a276.53,276.53,0,0,1,39.29-4.88c3.09-.16,5.14.72,5.38,4.13.43,2.76-1.18,6.94,4.31,6.16l.61,3.57-.56.26c-6.23,4-6.19,11.67.1,16.76q.16,4.9.33,9.8c-6,5.35-3.45,12.8-4.25,19.25a110,110,0,0,0,0,22.64c.72,8.53-3.6,10.12-10.94,11.17C376.89,461.07,359.8,459,342.91,461.2Z" transform="translate(0 0)"/><path class="cls-9" d="M408.68,395.79c-6.29-5.09-6.34-12.81-.1-16.76Q408.63,387.41,408.68,395.79Z" transform="translate(0 0)"/><path class="cls-4" d="M409.14,378.78l-.61-3.57-.48-4.28.76.35C411.17,373.68,411,376.19,409.14,378.78Z" transform="translate(0 0)"/><path class="cls-6" d="M367,482.37c1,0,2,0,3,0,24.61-.37,24.54-.37,23.79,24.26-.1,3.38-1.45,5.41-4.57,4.77-12.7-2.59-25.67-.2-38.35-2.37-5.73-1-13.13-20.82-9-24.87,3.06-3,7.55-1.28,11.39-1.51,4.59-.28,9.22-.07,13.83-.07Z" transform="translate(0 0)"/><path class="cls-6" d="M318,486.15c6-1,7.13,2.07,7.44,7.37.88,15.36,1.09,15.31-13.83,19.28-8,2.11-15.89,4.27-23.77,6.63-5.1,1.53-7.63.16-9.32-5.21-6.67-21.09-6.86-21.05,15.1-24.54,4.22-.67,8.49-1,12.72-1.6C310.25,487.52,314.13,486.8,318,486.15Z" transform="translate(0 0)"/><path class="cls-7" d="M466.33,563.27c-1.51,12.16-3,23.27-4.22,34.4-1,9-7.88,4.63-12.29,5.53s-7.64-.37-7.53-6.06c.19-10.25.19-20.51-.18-30.75-.2-5.42,2.18-6.52,7-6.74,18.92-.86,18.91-1,18.81-20.44-.09-17.14,2.25-19.07,19.39-16.8,4.12.55,4.79,2.78,4.39,6.13-1.33,11.12-2.28,22.31-4.16,33.33C486.49,568.09,473.46,569,466.33,563.27ZM448,580.85h.2c0,3.29-.11,6.58,0,9.86.13,2.78-.72,6.38,3.93,6.4,4.34,0,4.15-3.38,4.54-6.25.9-6.5,1.68-13,2.64-19.52.52-3.54-.18-5.73-4.38-5.69-3.79,0-7.46-.32-7,5.33C448.26,574.26,448,577.57,448,580.85Zm25.78-36.19H474c0,3.28,0,6.56,0,9.84,0,2.62-.18,5.5,3.74,5.55,3.55.05,4.2-2.36,4.54-5.17.78-6.51,1.5-13,2.5-19.51.52-3.38.48-5.83-3.89-6-4-.16-7.34.08-7.08,5.44C473.95,538.1,473.82,541.38,473.82,544.66Z" transform="translate(0 0)"/><path class="cls-7" d="M507.7,482.65l9.36.24q.58,5.79,1.15,11.58l-.41,5.68c-3.7,6.18-2.87,13.32-3.76,20-1.16,8.66-7.25,7-12.56,7.47-6.43.62-7.79-3-7.65-8.57.21-8.59.61-17.24-.17-25.77-.71-7.8,1.62-10.81,9.48-9.35C504.52,484.17,506.17,483.1,507.7,482.65Zm3,15c.9-5.27.41-7.83-3.88-7.81-3.78,0-7.35-.21-7.11,5.39.3,6.89.14,13.8.19,20.7,0,2.43.4,4.76,3.4,5.08,3.44.37,4.53-1.89,4.91-4.8C509.14,509.43,510.06,502.6,510.72,497.68Z" transform="translate(0 0)"/><path class="cls-10" d="M426.45,483.57c-1.4-3.51-3.06-6.95-4.12-10.56-.76-2.58,1.17-4.43,3.24-5.54a4.34,4.34,0,0,1,3.6.26c2.85,1.68,1.11,3.35.21,5.6-1.17,2.92-.9,6.41-1.25,9.66Z" transform="translate(0 0)"/><path class="cls-9" d="M565.17,551.88c.81-10.84,1.69-20.33,2.14-29.84.23-4.77,2-6.7,6.73-5.39.32.09.62.24.94.31,17.61,3.81,17.56,3.8,15,22.62a104,104,0,0,0-.61,10.84c-.46,14.58-.43,13.92-14.31,13.6C564.65,563.78,563.83,558.41,565.17,551.88Z" transform="translate(0 0)"/><path class="cls-9" d="M586.87,583.86c0,3.61.08,7.23,0,10.84-.24,9.83-4.26,14.29-15,12.85-11.38-1.52-12.45-2.12-10.59-13.35A102.85,102.85,0,0,0,563,575.63c-.14-7.36,3.06-8.79,9.63-8C587.63,569.38,587.66,569.17,586.87,583.86Z" transform="translate(0 0)"/><path class="cls-13" d="M609.09,544.58c-.23,5.27-.17,10.57-.78,15.79-.44,3.78-.76,8.19-6.84,7.25-4.93-.76-9.06-1.54-8.46-8.19.95-10.48,1.44-21,2.13-31.52.22-3.31,1.25-6.28,5.3-5.08,3.36,1,8.64-.18,8.65,5.91Q609.09,536.67,609.09,544.58Z" transform="translate(0 0)"/><path class="cls-9" d="M607,588.62c0,3.29-.12,6.58,0,9.86.23,5.38.06,9.54-7.56,9.3-6.9-.21-9.44-2.4-8.65-9.32.7-6.18.32-12.48.81-18.7.41-5.31,1.91-9.12,9-8.39,6.78.69,7,4.36,6.64,9.37-.19,2.62,0,5.26,0,7.88Z" transform="translate(0 0)"/><path class="cls-4" d="M767.87,512.1l-.49.77.44-.82Z" transform="translate(0 0)"/><path class="cls-2" d="M773.77,514.08l-.35.72.37-.7Z" transform="translate(0 0)"/><path class="cls-6" d="M823.4,525.26l5.94.83C826.92,529,824.94,528.72,823.4,525.26Z" transform="translate(0 0)"/><path class="cls-6" d="M148.33,499.16c-7.5-4.8-4.22-7.31,1.92-9.39,20.81-7,41.59-14.17,62.41-21.19,7.76-2.61,15.54-5.17,23.4-7.44,4.28-1.24,7.14-.66,3.33,4.48Z" transform="translate(0 0)"/><path class="cls-4" d="M192,424.68l.42-.75-.37.8Z" transform="translate(0 0)"/><path class="cls-6" d="M518.21,494.46q-.57-5.79-1.15-11.58C522.88,485.56,523.19,488.63,518.21,494.46Z" transform="translate(0 0)"/><path class="cls-9" d="M408.05,370.92l.48,4.28c-5.49.78-3.89-3.4-4.31-6.16Z" transform="translate(0 0)"/><path class="cls-4" d="M230.36,361.69l2.57-3.36,3.28-4.66,6.76-9.11,3.29-4.68,6.71-9.18,4.16-5.8,4.07-5.82,5.88-8c10.37-14.07,20.69-28.17,31.13-42.19,2-2.69,3.47-6.8,8.3-2.88,32.51,26.34,65.14,52.53,100.27,80.81-40.38,5-77.76,10.5-115.57,12.46.53-4.31,4-3.64,6.81-4,27.15-3.2,54.3-6.34,81.44-9.6,4.75-.57,9.84.48,15.37-2.76-29.6-24-58.55-47.49-87.47-71-3.57-2.9-5.61-1.35-7.92,1.87C282.14,298,264.62,322,247.33,346.23c-3.34,4.67-7.86,8.74-9.42,15,18.25,1.16,35.62-6.56,53.43-2.11-12.73,4.36-26.23,3.6-39.27,5.88-5.77,1-11.65,1.32-17.48,2C230.29,367.5,228.11,366.38,230.36,361.69Z" transform="translate(0 0)"/><path class="cls-9" d="M288.82,409.84c.1-20.72,16.16-37.07,36-36.68,21,.42,36.48,16.53,36.28,37.7-.19,20.3-16.32,36-36.81,35.89S288.72,430.85,288.82,409.84Zm22.7,19.05c.48,3.86,1.68,6.5,6.13,3.61,16.43.51,27.53-5.45,29.23-15.7,2.58-15.54-3.57-24.69-20.1-29.91-.31-2.29-.86-4.63-3.63-4.77-2.92-.15-3.63,1.92-3.4,4.46C300.84,393.44,296.71,414.7,311.52,428.89Z" transform="translate(0 0)"/><path class="cls-2" d="M448,580.85c0-3.29.21-6.59,0-9.86-.45-5.65,3.21-5.29,7-5.33,4.21,0,4.91,2.15,4.38,5.69-1,6.49-1.74,13-2.64,19.52-.4,2.87-.2,6.27-4.54,6.25-4.65,0-3.81-3.62-3.93-6.4-.15-3.28,0-6.57,0-9.86Z" transform="translate(0 0)"/><path class="cls-2" d="M473.82,544.66c0-3.28.13-6.57,0-9.84-.26-5.36,3.07-5.6,7.08-5.44,4.37.17,4.41,2.62,3.89,6-1,6.48-1.72,13-2.5,19.51-.34,2.8-1,5.22-4.54,5.17-3.93-.06-3.69-2.94-3.74-5.55-.06-3.28,0-6.56,0-9.84Z" transform="translate(0 0)"/><path class="cls-2" d="M510.72,497.68c-.66,4.91-1.58,11.74-2.48,18.57-.38,2.9-1.47,5.17-4.91,4.8-3-.33-3.38-2.65-3.4-5.08-.05-6.9.1-13.81-.19-20.7-.24-5.6,3.34-5.38,7.11-5.39C511.13,489.86,511.62,492.41,510.72,497.68Z" transform="translate(0 0)"/><path class="cls-7" d="M291.35,359.13c-17.81-4.46-35.18,3.27-53.43,2.11,1.56-6.27,6.08-10.33,9.42-15,17.28-24.21,34.8-48.25,52.11-72.44,2.31-3.22,4.35-4.77,7.92-1.87,28.92,23.51,57.87,47,87.47,71-5.53,3.24-10.62,2.19-15.37,2.76-27.14,3.26-54.29,6.4-81.44,9.6-2.82.33-6.28-.33-6.81,4Zm-38-7.87,1.53,2L375.5,338.43c-17.74-14.13-33.53-27-49.63-39.46-20.32-15.74-20.42-15.59-36,4.79Q271.62,327.52,253.39,351.26Z" transform="translate(0 0)"/><path class="cls-10" d="M326.78,386.89c16.53,5.22,22.68,14.37,20.1,29.91-1.7,10.24-12.8,16.21-29.22,15.7,1.72-8.14,9-14.32,9.23-24.62l-15.37,21c-14.82-14.19-10.68-35.45,8.23-42.3,3.5,4.75,2.38,11.53,7,17Z" transform="translate(0 0)"/><path class="cls-6" d="M311.52,428.89l15.37-21c-.2,10.3-7.51,16.48-9.23,24.62C313.2,435.39,312,432.74,311.52,428.89Z" transform="translate(0 0)"/><path class="cls-6" d="M326.78,386.89v16.66c-4.65-5.44-3.53-12.22-7-17-.23-2.54.48-4.61,3.4-4.46C325.92,382.26,326.48,384.6,326.78,386.89Z" transform="translate(0 0)"/><path class="cls-6" d="M253.39,351.26q18.22-23.75,36.44-47.49c15.62-20.38,15.72-20.53,36-4.79,16.1,12.46,31.88,25.32,49.63,39.46L254.92,353.28Zm39.91-29.79a3.34,3.34,0,0,0-1.94,4c-6,1.23-8,5.6-9.49,12.07l53.34-6.42c3.16-.38,7.86.58,8.63-2.87.9-4-3.33-5.71-6.9-6.78-1.93-2.94-4.23-5.4-7.94-6-.79-1.77-2.21-2.26-4-2-.41-5-3.58-6.27-7.95-6-1.48-4.92-3.8-10.52-9.63-6-4.83,3.74-9.78,8.71-10.1,15.92C294.47,317.32,293.56,319.05,293.3,321.46Z" transform="translate(0 0)"/><path class="cls-7" d="M336.94,321.49c3.56,1.06,7.8,2.75,6.9,6.78-.77,3.45-5.47,2.49-8.63,2.87l-53.34,6.42c1.46-6.47,3.48-10.84,9.49-12.07l-.12-.11c.59,3-4,4.5-1.88,8.61,15-2.07,30.2-4.33,45.43-6.16,6.1-.73,1.11-4.46,2.23-6.45Z" transform="translate(0 0)"/><path class="cls-7" d="M297.31,317.54c.32-7.21,5.26-12.18,10.1-15.92,5.84-4.52,8.15,1.08,9.63,6l.11-.12c-6.34-4.81-10.68-2.44-14.09,3.81a13.35,13.35,0,0,1-5.85,6.13Z" transform="translate(0 0)"/><path class="cls-7" d="M329,315.53c3.72.57,6,3,7.94,6l.09-.11c-4.35.29-7.4-1.17-7.95-6Z" transform="translate(0 0)"/><path class="cls-7" d="M317,307.62c4.37-.31,7.53,1,7.95,6l.1-.12c-3.73-.55-6-3-7.94-6Z" transform="translate(0 0)"/><path class="cls-7" d="M293.3,321.46c.25-2.41,1.17-4.15,4-3.93l-.1-.09c-.21,2.44-1.28,4-4,4Z" transform="translate(0 0)"/><path class="cls-7" d="M291.36,325.49a3.34,3.34,0,0,1,1.94-4l-.06,0c.23,1.77-.18,3.22-2,4Z" transform="translate(0 0)"/><path class="cls-7" d="M325,313.58c1.8-.3,3.22.18,4,2l.08-.1a3.37,3.37,0,0,1-4-2Z" transform="translate(0 0)"/><path class="cls-6" d="M325.09,313.46a3.37,3.37,0,0,0,4,2c.55,4.79,3.59,6.24,7.95,6-1.12,2,3.87,5.72-2.23,6.45-15.23,1.83-30.4,4.1-45.43,6.16-2.1-4.11,2.47-5.65,1.88-8.61,1.81-.74,2.23-2.19,2-4,2.68,0,3.76-1.53,4-4a13.36,13.36,0,0,0,5.85-6.13c3.41-6.26,7.75-8.62,14.09-3.81C319.08,310.44,321.36,312.91,325.09,313.46Z" transform="translate(0 0)"/><path class="cls-4" d="M923.4,524.29c-10.91-1.15-116.3-22.69-127.19-23.94-2.63-.3-2.69-2.43-2.29-4.51.49-2.51,2-2.93,4.36-2.37,10.34,2.5,115.19,25.36,125.54,27.8Z" transform="translate(0 0)"/><polygon class="cls-2" points="688.29 531.72 738.96 498.55 901.09 536.6 896.8 566.1 839.86 543.95 817.65 529.35 799.15 523.47 770.95 512.64 753.74 513.75 732.06 511.05 703.89 534.58 696.22 535.56 688.29 531.72"/><rect class="cls-7" x="670.26" y="557.41" width="224.7" height="10.37" rx="5.19" ry="5.19" transform="translate(134.91 -151.19) rotate(12.07)"/><rect class="cls-7" x="748.82" y="511.49" width="157" height="5.19" rx="2.59" ry="2.59" transform="translate(139.58 -175.67) rotate(13.23)"/></svg>