<svg id="Layer_1" data-name="Layer 1" xmlns="http://www.w3.org/2000/svg" viewBox="0 0 1024 1024"><defs><style>.cls-1{fill:#3669a0;}.cls-2{fill:#f7f5f7;}.cls-3{fill:#fcfcfc;}.cls-4{fill:#9ab516;}.cls-5{fill:#e52a2f;}</style></defs><title>yasabe</title><circle id="_Path_" data-name="&lt;Path&gt;" class="cls-1" cx="512" cy="512" r="512"/><g id="YXnTbI.tif"><path class="cls-2" d="M221.38,499.13c-1.32-42.58-1.23-84.74,19-124.17,42.55-82.89,113.82-125.86,201.35-147C631.24,182.08,788.19,348.53,803.1,487.49c8.47,79-18,148.82-64,211.6-36.92,50.37-82.37,93.21-145.66,103.38-171,27.46-309.53-28.64-369-226.15C217,551.5,222.1,524.88,221.38,499.13ZM502.43,745.36c67.1,3.69,124.82-21.09,169.52-72.16,78.83-90.07,79.72-209,4.68-303.29C612.12,288.85,516,261.82,424.94,296,292.8,345.56,265.23,508.73,294.27,595S415.21,745.36,502.43,745.36Z" transform="translate(0 0)"/></g><g id="YXnTbI.tif-2" data-name="YXnTbI.tif"><path class="cls-3" d="M231.32,497.8c.7,24.8-4.24,50.44,3,74.33C291.54,762.34,425,816.36,589.61,789.91c60.94-9.79,104.71-51.05,140.26-99.55,44.32-60.46,69.79-127.7,61.63-203.77-14.35-133.81-165.5-294.11-348-250C359.24,257,290.61,298.4,249.63,378.22,230.14,416.2,230,456.8,231.32,497.8Z" transform="translate(0 0)"/><path class="cls-4" d="M231.32,497.8c-1.27-41-1.18-81.6,18.31-119.58,41-79.82,109.61-121.2,193.9-141.59,182.48-44.14,333.62,116.15,348,250,8.16,76.07-17.31,143.31-61.63,203.77-35.56,48.5-79.32,89.76-140.26,99.55C425,816.36,291.54,762.34,234.28,572.13,227.08,548.24,232,522.6,231.32,497.8ZM502,734.92c64.61,3.55,120.2-20.31,163.24-69.49,75.92-86.74,76.77-201.27,4.51-292.07C607.6,295.3,515,269.28,427.35,302.17,300.1,349.92,273.55,507.05,301.51,590.12S418,734.92,502,734.92Z" transform="translate(0 0)"/><path class="cls-1" d="M502,734.92c-84,0-172.48-61.67-200.46-144.8s-1.41-240.2,125.84-287.95c87.68-32.9,180.25-6.87,242.37,71.19,72.27,90.8,71.41,205.33-4.51,292.07C622.17,714.61,566.58,738.47,502,734.92Zm25.14-32.44c41.08-11,79.05-28.07,110-58.18,36.49-35.55,64.61-77.35,57.1-129.74-12-83.45-50.06-150.52-136.38-179-5.95-12-17.15-6.42-25.22-5.78-18.22,1.44-37.49-7.15-54.69,4.91-2.29.92-4.49,2.22-6.87,2.71-83.6,17.24-132.79,76.84-132.79,161,0,8.93.81,17.94-.14,26.76-4.94,46.13,13.92,82.87,44,115.72,27.73,30.27,59.94,53,100.23,63.17a37.49,37.49,0,0,0-3.45,1.56c-.37.21-.48.88-.71,1.34C494.63,707,511.76,714.53,527.11,702.48Z" transform="translate(0 0)"/><path class="cls-2" d="M497.4,654c61.66,4.52,102.42-28,129.9-80.71,29.19-56,18-111.83-29.59-155.85C551.94,375.13,489.07,367,439,396.92c-50.43,30.11-73.71,90.78-60.23,159C390.32,614.45,424.36,658.68,497.4,654Z" transform="translate(0 0)"/><path class="cls-5" d="M497.4,654c-73,4.67-107.08-39.56-118.67-98.13-13.49-68.18,9.8-128.84,60.23-159,50.11-29.92,113-21.79,158.75,20.53,47.6,44,58.77,99.89,29.59,155.85C599.82,626,559.06,658.53,497.4,654Z" transform="translate(0 0)"/></g></svg>