<svg id="Layer_1" data-name="Layer 1" xmlns="http://www.w3.org/2000/svg" viewBox="0 0 1024 1024"><defs><style>.cls-1{fill:#f0f2f4;}.cls-2{fill:#facb05;}.cls-3{fill:#231f20;fill-rule:evenodd;}.cls-4{fill:#1a1c1d;}.cls-5{fill:#161819;}.cls-6{fill:#17191a;}.cls-7{fill:#1c1e1f;}.cls-8{fill:#1d1e1f;}.cls-9{fill:#181a1b;}.cls-10{fill:#1b1d1e;}.cls-11{fill:#202222;}.cls-12{fill:#141617;}.cls-13{fill:#232526;}</style></defs><title>yellowpagecity</title><circle id="_Path_" data-name="&lt;Path&gt;" class="cls-1" cx="512" cy="512" r="512"/><path class="cls-2" d="M306.4,260.38l-5.8,164,5.8,208.21,3.22,52.21s41.9,21.92,44.48,21.92H489.47l201.12-6.45,27.07-11.6,4.51-108.29-3.87-316.5L699,242.61H325.1Z" transform="translate(0 0)"/><path class="cls-3" d="M417,534.14l-7.32,13.31h-.22c-6.1,12.2-8.64,17.28-8.64,23.89s6.1,16.26,21.85,16.26c3.56,0,5.59-2,8.64-7.12l18-28.59h0l11-15.13h.48l4.83-7.28h0l50.06-75.55-31-48.28Z" transform="translate(0 0)"/><path class="cls-3" d="M437.26,445.44l-21.92,23.21c-2.82,4.71-13.18,7-16.47,7-14.59,0-20.24-8.94-20.24-15.06s6.58-12,15.24-22.12l26.81-37.34-2.06-10.71h0c-.72-.67-9.15-14.23-9.15-14.23-5.59-9.15-7.12-12.71-7.12-15.76l6.1-62.51a32.08,32.08,0,0,0-7.11-19.31l-5.59-8.13-9.41-10.05H493.67c.41.31,41.76,89.66,60.4,129.45.12.25.17.38.12.46l4.75,10.77h0l64,135.7h-.42l10.93,24.82,12.76,27.54c0,2.54,0,6.1-8.64,6.1-12.71,0-26.94-5.08-33.55-15.76l-8.86-14.69h0l-17.34-28h-.13L574.93,532h0l-77.46-130.9-10.78-12.8Z" transform="translate(0 0)"/><path class="cls-3" d="M667.22,227.72h-307c-63.9,0-74.3,14.91-74.49,69.53L286,671.14c0,32,30.5,43.71,59.47,43.71H680.94c29.48,0,56.42-13.72,56.42-49.3l.9-371.77C738.26,245,718,227.72,667.22,227.72Zm36,438.95c0,14.23-.51,14.23-24.9,15.24H348c-28,0-28,0-28-13.72V644.3c16.77,8.64,23.89,11.18,34.56,11.18,36.59,0,70.14-33.54,105.21-33.54,21.34,0,30,13.72,32.53,33.54h37.61c3-19.31,12.2-33.54,33-33.54,30,0,70.14,33.54,104.19,33.54,13.21,0,21.34-3,36.08-12.2Zm0-64.77c-11.18,11.18-21.35,17.79-35.07,17.79-33.54,0-68.11-32-103.68-32-26.43,0-41.17,10.17-53.37,30.49-12.2-20.33-24.4-30-52.35-30-41.17,0-68.62,30.75-104.19,30.75-14.74,0-24.4-5.85-34.56-17V299c0-30.86,4.82-38.61,38.56-38.61h27.75s106.81-.24,107.33,0h175c32,0,34.56,4.57,34.56,37.1Z" transform="translate(0 0)"/><g id="jKWRMP"><path class="cls-4" d="M447.76,831c2.19-4.39,2.15-8.5,2.19-12.54.18-17.75.47-35.5.2-53.24-.08-5.43,2.36-5.66,6.52-5.67s6.59.27,6.53,5.68c-.18,18.2.2,36.4.41,54.6a27.71,27.71,0,0,0,1.2,8.43c2.4-5.9,2.38-12.09,2.49-18.16.27-15,.46-30,.05-45-.15-5.63,2.53-5.43,6.53-5.5,4.18-.07,6.58.14,6.37,5.59-.89,23.12,1.89,46.43-4,69.26-.51,2-1.22,3.91-1.57,5.91-.85,4.81-2.83,7-8.49,7.16-6.05.13-6.45-3.43-7.62-7.34-.56-1.86,0-4.22-2.46-5.6a35.89,35.89,0,0,0-1.5,5.69c-.54,5.56-3.11,7.59-8.92,7.17-3.92-.28-5.48-1.52-6.59-5.06a135.94,135.94,0,0,1-5.75-41c0-12.29.32-24.59-.18-36.86-.24-5.82,3.11-4.82,6.43-4.81s6.43-1,6.44,4.82c0,20.91-1.34,41.87,1.13,62.74C447.29,828.25,447.5,829.3,447.76,831Z" transform="translate(0 0)"/><path class="cls-5" d="M629.08,796.45c0-11.84-.57-23.71.16-35.5.76-12.4,9.48-17.95,21.4-14.92a12.63,12.63,0,0,1,9.77,9.39c2.78,9.83,1.33,19.92,1.7,29.89.09,2.29-1.37,2.31-3.1,2.52-10.35,1.27-10.84.87-10.85-9.78,0-5.24,0-10.48-.08-15.71,0-2.06-.16-4.56-2.9-4.51-2.26,0-2.47,2.29-2.47,4.16q0,34.85,0,69.69c0,1.82.13,4,2.68,3.89s2.63-2.2,2.65-4c.08-6.83.23-13.67,0-20.5-.1-3.36.63-4.7,4.41-4.72,9.61,0,9.7-.27,9.58,9.07-.1,7.49.68,15-1.53,22.4s-6.53,10.33-14.8,10.5c-8.62.17-13.19-2.93-15.58-10.31-1.65-5.09-1.5-10.35-1.6-15.56-.17-8.65,0-17.31,0-26Z" transform="translate(0 0)"/><path class="cls-6" d="M574.47,840.74c-9.51,4.35-15.23,1.94-15.94-7.71a434.52,434.52,0,0,1,0-64.82c.7-9.25,6.26-11.28,14.94-7.39,2.94,1.32,5.86-1.68,9.27-1.35s4.63,1.22,4.6,4.79c-.21,24.82.1,49.65-.41,74.46-.34,16.31-14.34,24-29,16.57-4.55-2.29-.53-4.91-.31-7.33.29-3.19,1.83-3.11,4.64-2C569.93,848.81,572.17,847.8,574.47,840.74Zm0-40.19c0-8.84,0-17.69,0-26.53,0-1.67.66-4.18-1.83-4.43s-2.35,2.21-2.35,3.94q-.06,27.21,0,54.42c0,1.78-.14,4.26,2.21,4.17s2-2.59,2-4.36Q574.52,814.16,574.5,800.55Z" transform="translate(0 0)"/><path class="cls-7" d="M427.86,800.94c0,12.49.31,22.07-.08,31.62-.46,11.28-6.45,16.53-17,15.66-8.11-.67-11.73-4-12.77-12.36-1.8-14.52-.69-29.12-.86-43.68-.09-7.27-.58-14.58.7-21.82,1.44-8.16,5.63-11.73,14-11.92,9-.2,13.65,3.08,15.16,11.34C429.1,781.06,427.33,792.5,427.86,800.94Zm-13.28,2.31c0-10,0-20,0-30.06,0-1.76.4-4.3-2-4.38s-2.23,2.37-2.23,4.17c0,20,0,40.09.06,60.13,0,1.82-.74,4.9,2.31,4.63,2.76-.25,1.81-3.24,1.82-5.1C414.64,822.83,414.59,813,414.58,803.24Z" transform="translate(0 0)"/><path class="cls-7" d="M522.45,783c-3.32,1-1.75,3.76-1.87,5.73-.3,5-.46,10-2.47,14.7-1.94,4.55-5.42,8.29-10,8.32-7.65.06-7.35,4.35-7.17,9.64.24,7.05-.22,14.13.14,21.18.33,6.51-4.22,4.37-7.38,4.61-3.44.27-6.59.72-6.54-4.84.24-30.29.18-60.58,0-90.88,0-3.92,1.2-5.23,5-4.92,5.43.43,10.93.17,16.33.76,7.08.78,11,5.08,11.44,12.22.29,4.31.28,8.64.59,13,.11,1.5-1.07,3.81,1.86,4.13Q522.45,779.77,522.45,783Zm-21.59-4c0,5-.14,10,.07,14.93.09,2-1.46,5.42,1.46,5.79,3.48.44,4-3.17,4.13-5.83.34-7.9.47-15.81.53-23.72a52.14,52.14,0,0,0-.67-8.08,3.39,3.39,0,0,0-3.83-3.07c-2.51.19-1.62,2.34-1.65,3.7C500.79,768.09,500.86,773.52,500.85,778.94Z" transform="translate(0 0)"/><path class="cls-8" d="M592.54,802.26c0-9.56-.49-19.16.13-28.68.75-11.64,6.19-16,17.32-15,7.13.59,11.17,4.12,12.34,11.36,1.65,10.18.44,20.46.8,30.69.13,3.6-2.3,3.13-4.59,3.23-12.92.57-12.93.59-12.92,13.8,0,5.46,0,10.93.09,16.39,0,1.47-.37,3.7,1.82,3.79,2.67.12,2.31-2.29,2.33-4,.06-5.46.37-11-.08-16.39-.4-4.9,2.23-5.29,5.74-4.77,3,.45,8-2.22,7.62,4.39-.32,6.36,0,12.78-.71,19.08-1,8.2-6.14,12.18-14.54,12.27-8.79.1-13.1-3.46-14.54-12C591.45,825,592.81,813.62,592.54,802.26Zm17.35-20.74h-.09c0-3.38.05-6.75,0-10.13,0-1.4-.57-2.79-2.28-2.66-1.32.1-1.71,1.36-1.72,2.52-.07,6.53-.09,13.05-.12,19.58,0,1.61.64,2.49,2.4,2.36,2-.14,1.82-1.59,1.83-2.89C609.92,787.37,609.89,784.45,609.89,781.52Z" transform="translate(0 0)"/><path class="cls-8" d="M351.43,787.25c0,.68,0,1.36,0,2-.12,4.52,1.37,10.19-.81,13.25-2.43,3.43-8.45,1-12.89,1.17-2.78.12-4,.62-4,3.76.2,8.64.06,17.28.12,25.92,0,1.74-.36,4.35,2,4.4,3.13.05,2.11-2.94,2.15-4.73.15-5.68.17-11.37,0-17.05-.11-4.11,2.85-3.81,5.08-3.29,2.8.66,7.81-2.85,8.13,2.85.38,7,.93,14.11-.52,21.08-1.72,8.3-7,12.1-15.76,11.64-8.41-.44-12.71-3.94-13.39-12.43-1.7-21.33-1.43-42.71-.28-64,.5-9.29,5.22-13.14,13.94-13.37,9.62-.25,14.5,3.54,15.7,13.14.64,5.14.11,10.43.11,15.66Zm-13.35-6H338c0-3.15,0-6.3,0-9.45,0-1.35-.15-3-1.87-3.05s-2.16,1.42-2.18,2.86c-.07,6.3-.08,12.6-.1,18.9,0,1.38.06,2.69,2,2.75s2.23-1.06,2.22-2.56Q338.08,785.94,338.08,781.21Z" transform="translate(0 0)"/><path class="cls-9" d="M722.19,831c3-2.34,2.61-5.31,2.65-8.07.27-18.89.64-37.78.48-56.66,0-5.36,1.37-6.86,6.75-6.85,5.12,0,6.52,1.32,6.36,6.46-.67,21.35,1.25,42.8-2.76,64-1.35,7.16-2.95,14.26-6.5,20.71-3.06,5.56-12.87,8.87-18.48,6.56-2.2-.91-1.32-2.62-1.4-4-.1-1.94-.64-4.27,2.63-4.38,4.75-.16,4.63-2.53,3.14-6.25-4.18-10.45-5.88-21.52-6.25-32.66-.51-15.23-.11-30.5-.54-45.74-.17-6,3.74-4.26,6.76-4.43s6.05-.74,6,4.5c-.12,19.11-.66,38.24.48,57.34C721.72,824.69,722,827.86,722.19,831Z" transform="translate(0 0)"/><path class="cls-4" d="M522.45,783q0-3.2,0-6.39c.39-13.76,5.47-19,17.15-18,6.28.54,10,3.95,11.53,9.84,1.29,4.89,1.22,9.91,1.22,14.93q0,28.34,0,56.68c0,6.73-5.33,10.15-11.27,6.52-1.84-1.13-1.92-1.25-3.65-.22-6,3.59-12.3,1.13-13.63-5.64-2.35-11.91-2-24-.44-36,.76-5.79,4.85-9.34,9.67-11.54,5.43-2.47,7.22-6.13,6.48-11.8-.44-3.36-.09-6.82-.25-10.23-.05-1.06-.39-2.38-1.85-2.42s-1.84,1.14-2.09,2.25a18.68,18.68,0,0,0-.29,2.7C534.2,784.74,534.2,784.74,522.45,783Zm17.13,18.73c-2.63,1.12-3.46,2.2-3.72,3.57-1.91,10.08-.86,20.23-.67,30.36a2.14,2.14,0,0,0,2,2.35c2.24,0,2.38-1.88,2.39-3.38C539.61,823.86,539.58,813.12,539.58,801.69Z" transform="translate(0 0)"/><path class="cls-10" d="M301.06,792.5c3.46-9.22,2.93-18.75,3.54-28.15a80.6,80.6,0,0,0,.1-12.26c-.4-4.53,1.21-5.77,5.66-5.64,8.46.26,8.45,0,8.09,8.48a234.37,234.37,0,0,1-8.6,55c-2.8,9.8-1,20.36-.72,30.55.18,6.21-2.33,6.72-7.5,6.89-5.72.19-7.1-1.93-6.51-7,2.15-18.64-2.83-36.4-6.7-54.33-2.51-11.61-2.35-23.47-2.86-35.28-.18-4.12,1.84-4.91,4.82-4.09s8.5-3.42,8.7,3.74c.26,9.32.27,18.64.62,28C299.89,783.08,300.6,787.79,301.06,792.5Z" transform="translate(0 0)"/><path class="cls-8" d="M688,805.51c0-8.63.16-17.27-.07-25.89-.1-3.77,1.26-7.71-2.33-11.29-1.35-1.35-1.58-6.09.64-8.16s1.83-4.05,1.69-6.15c-.21-3.15.77-4.84,3.93-5.92,9.25-3.16,9.32-3.3,9.43,6.47.05,4.83,5.68,9.44,2.49,13.61-3.43,4.48-2.28,8.81-2.35,13.21-.24,15-.21,30,0,45,.06,4.48-1.28,9.12,2.33,13.42,1.1,1.31,2.4,6.24-1.93,7.93-5,1.95-11.74-.1-12.7-4.13A46.76,46.76,0,0,1,688,833.44C687.9,824.13,688,814.82,688,805.51Z" transform="translate(0 0)"/><path class="cls-11" d="M377.78,797.06c0-15,.35-30.07-.16-45.08-.22-6.51,3.52-5.2,7.26-5.5,4.38-.35,6.38.49,6.34,5.7-.27,29.83-.32,59.66,0,89.48.07,6.32-3.37,5.35-7.24,5.61-4.44.3-6.47-.64-6.34-5.82C378,826.67,377.78,811.86,377.78,797.06Z" transform="translate(0 0)"/><path class="cls-11" d="M357.19,796.37c0-14.8.29-29.61-.15-44.39-.16-5.59,2.47-5.61,6.53-5.51s7.14-.44,7.07,5.72q-.54,44.73,0,89.47c.07,6.32-3.42,5.32-7.27,5.61-4.51.34-6.41-.72-6.28-5.83C357.42,826.43,357.19,811.4,357.19,796.37Z" transform="translate(0 0)"/><path class="cls-12" d="M679.69,803.31c0,12.72-.27,25.46.13,38.17.16,5.17-1.84,5.86-6.28,5.81s-6.91-.35-6.83-6.06q.5-38.17,0-76.34c-.08-5.88,3-5.11,6.74-5.29,4.16-.2,6.59.08,6.39,5.55C679.37,777.85,679.69,790.58,679.69,803.31Z" transform="translate(0 0)"/><path class="cls-13" d="M622.26,863.39c-7.06,4.25-13.24,8.43-20.23,11.12a13,13,0,0,1-9.25.36c-3.84-1.43-6.64-3.94-4.75-8.82,3-7.58,13.66-14.52,21.61-13.88,2,.16,4.62.08,4.56,2.85-.07,3.34-2.54,2.7-5,2.46-6.25-.61-13.4,3.83-15.95,9.44-1.41,3.11-1,4.86,2.9,4.19,8.45-1.45,15.53-6,22.7-10.25,5.85-3.47,11.49-7.2,18.35-8.63,3.44-.72,6.85-.52,8.7,2.09,2.42,3.42,4.28,7.65,1.61,12-3.89,6.26-10,9.21-17,9.81C624.92,876.58,622.05,871.92,622.26,863.39Zm9.87,9.84c4.33-1.73,8.32-4.48,10.45-9.33,1-2.19-1-3.93-1.81-5.52s-3.17-.3-4.62.47c-3.93,2.09-6.83,5.16-7.7,9.69C628,871,628.35,873.11,632.13,873.23Z" transform="translate(0 0)"/><path class="cls-13" d="M661,859.62c-2.25,1.26-3.35,1.9-4.48,2.5-1.57.84-3,4-4.87,1.25-1-1.44.86-3.38,2.65-4.15,4.18-1.8,7.9-7.9,13.08-1.08,1.2,1.58,3.21-.91,4.65-1.68,10.3-5.53,11.34-5,12,6.54,3.52,0,5.26-3.13,7.87-4.62,7.43-4.25,9.5-3.19,9.8,5.43,0,1.13,0,2.27,0,3.74,3.6.07,5.71-2.47,8.25-4.1.74-.47,1.57-1.11,2.41-.33a1.82,1.82,0,0,1-.24,2.94c-3.44,2.57-6.82,5.37-10.61,7.3-2.46,1.25-4.78-.37-5.93-3.07s-.8-5.35-1-8.55c-4.7,1.36-6.86,5.61-10.3,8.14-1.39,1-2.22,3.44-4.31,2.6-2.38-1-2.67-3.42-2.85-5.78-.21-2.63,2-6.58-.5-7.56-3-1.17-5.2,2.66-7.46,4.77q-4.44,4.14-9,8.15c-1.2,1-1.81,3.92-4.13,2.17-2.06-1.55-2.08-3.93-.76-6.14C656.76,865.6,659.66,864.13,661,859.62Z" transform="translate(0 0)"/><path class="cls-9" d="M673.36,756.45c-4.63.89-6.78-.22-6.75-5.8s2.64-5.36,6.63-5.51c4.64-.18,6.78.49,6.69,6.06C679.86,756.62,677.54,757.19,673.36,756.45Z" transform="translate(0 0)"/><path class="cls-11" d="M584.27,870.72c-1.19,2.19-2.27,4.38-4.58,3.93-2.52-.49-4.52-2.3-4.24-5.24a3.4,3.4,0,0,1,3.7-3.24C581.81,866.46,583.15,868.67,584.27,870.72Z" transform="translate(0 0)"/></g></svg>