<svg id="Layer_1" data-name="Layer 1" xmlns="http://www.w3.org/2000/svg" viewBox="0 0 1024 1024"><defs><style>.cls-1{fill:#f0f2f4;}.cls-2,.cls-4{fill:#82b545;}.cls-3{fill:#231f20;}.cls-3,.cls-4,.cls-5{fill-rule:evenodd;}.cls-5{fill:#478543;}</style></defs><title>yellowpagegreen</title><circle id="_Path_" data-name="&lt;Path&gt;" class="cls-1" cx="512" cy="512" r="512"/><path class="cls-2" d="M271.24,702.82,275,764.08s49.17,25.72,52.19,25.72H486.06l236-7.56,31.77-13.62,5.29-127.08L730,690.32s-45,17.35-49,16-76-26-76-26L557,673l-34,27-38-12.33L431,668l-61,24s-56,14-62,10S271.24,702.82,271.24,702.82Z" transform="translate(0 0)"/><path class="cls-3" d="M739.89,743.58c0,16.7-.59,16.7-29.22,17.89H323c-32.8,0-32.8,0-32.8-16.1v-28c19.68,10.14,28,13.12,40.56,13.12,42.94,0,82.3-39.36,123.46-39.36,25,0,35.19,16.1,38.17,39.36h44.13c3.58-22.66,14.31-39.36,38.77-39.36,35.19,0,82.3,39.36,122.27,39.36,15.51,0,25-3.58,42.34-14.31Zm0-76c-13.12,13.12-25,20.87-41.16,20.87-39.36,0-79.92-37.57-121.67-37.57-31,0-48.31,11.93-62.62,35.78-14.31-23.85-28.63-35.19-61.43-35.19-48.31,0-80.52,36.08-122.27,36.08-17.3,0-28.63-6.86-40.56-20l-40-.27,0,53,0,28.53c0,37.57,35.79,51.29,69.78,51.29H713.74c34.59,0,66.2-16.1,66.2-57.85l.06-25,.11-46Z" transform="translate(0 0)"/><path class="cls-3" d="M401,587.28l-8.59,15.62h-.25C385,617.21,382,623.18,382,630.93S389.18,650,407.66,650c4.17,0,6.56-2.39,10.14-8.35L439,608.11h0l12.93-17.76h.56l5.66-8.55h0l58.75-88.66-36.38-56.66Z" transform="translate(0 0)"/><path class="cls-3" d="M424.8,483.21l-25.72,27.23c-3.31,5.52-15.47,8.18-19.33,8.18-17.12,0-23.75-10.49-23.75-17.67s7.72-14.08,17.88-26l31.46-43.81-2.42-12.57h0c-.84-.79-10.73-16.7-10.73-16.7-6.56-10.73-8.35-14.91-8.35-18.49L391,310.05a37.64,37.64,0,0,0-8.35-22.66l-6.56-9.54-11-11.8H491c.49.37,49,105.21,70.88,151.91.14.29.19.45.14.54l5.57,12.64h0l75.15,159.23h-.49l12.83,29.12,15,32.31c0,3,0,7.16-10.14,7.16-14.91,0-31.61-6-39.36-18.49l-10.4-17.23h0L589.8,590.35h-.15l-3.31-5.59h0l-90.9-153.6-12.65-15Z" transform="translate(0 0)"/><path class="cls-4" d="M499.13,263.67H364s-79.85-5.83-79.85,77.3v159H341l-79.85,97.71-89.06-97.71H225.8v-156S210.45,209.71,365.54,209.71H499.13L473,236Z" transform="translate(0 0)"/><path class="cls-5" d="M617.37,207V156L514.49,240.59l102.88,75.84v-54h59.5s62.19-8.63,62.19,69V699s4.61,55.78-58.73,55.78H341.74s-52.4,8.75-52.4-54.14V612.6l-28.22,28.71L228.88,612.6v94.07s-6.91,105,102.5,105H684.94S795.5,820.42,795.5,704.48V327.11s8.06-117.4-108.26-117.4Z" transform="translate(0 0)"/></svg>