<?xml version="1.0" encoding="utf-8"?>
<!-- Generator: Adobe Illustrator 19.2.1, SVG Export Plug-In . SVG Version: 6.00 Build 0)  -->
<svg version="1.1" xmlns="http://www.w3.org/2000/svg" xmlns:xlink="http://www.w3.org/1999/xlink" x="0px" y="0px"
	 viewBox="0 0 1024 1024" enable-background="new 0 0 1024 1024" xml:space="preserve">
<g id="Layer_1">
	<circle id="XMLID_1_" fill="#1E617B" cx="512" cy="512" r="512"/>
	<defs>
		<filter id="Adobe_OpacityMaskFilter" filterUnits="userSpaceOnUse" x="164" y="191.6" width="731.3" height="870.9">
			
				<feColorMatrix  type="matrix" values="-1 0 0 0 1  0 -1 0 0 1  0 0 -1 0 1  0 0 0 1 0" color-interpolation-filters="sRGB" result="source"/>
		</filter>
	</defs>
	<mask maskUnits="userSpaceOnUse" x="164" y="191.6" width="731.3" height="870.9" id="XMLID_5_">
		<g id="XMLID_24_" filter="url(#Adobe_OpacityMaskFilter)">
			<ellipse id="XMLID_37_" cx="515.1" cy="501.8" rx="330.4" ry="330.4"/>
		</g>
	</mask>
	<g id="XMLID_14_" mask="url(#XMLID_5_)">
		<rect id="XMLID_69_" x="551.6" y="327.4" fill="#FFFFFF" width="89.3" height="80.5"/>
		<ellipse id="XMLID_68_" fill="#FFFFFF" cx="382.4" cy="844.1" rx="218.4" ry="218.4"/>
		<polygon id="XMLID_67_" fill="#FFFFFF" points="551.3,276.7 551.3,316 641.3,316 557.4,191.6 480.1,276.7 		"/>
		<g id="XMLID_58_">
			<path id="XMLID_61_" fill="#FFFFFF" d="M679.8,593.3c15.7,0,30.9,1.6,44,4.5V420.8H553.1v207.5
				C585.9,605.8,638.2,593.3,679.8,593.3z M619,433.9h39.3v39.3H619V433.9z M619,486.3h39.3v39.3H619V486.3z M566.6,433.9h39.3v39.3
				h-39.3V433.9z M566.6,486.3h39.3v39.3h-39.3V486.3z"/>
		</g>
		<g id="XMLID_54_">
			<path id="XMLID_56_" fill="#FFFFFF" d="M799,632.3V521l-82-52.4v133.9C758,609.2,767,619.3,799,632.3z"/>
		</g>
		<g id="XMLID_51_">
			<path id="XMLID_52_" fill="#FFFFFF" d="M676.9,619.4c-49.1,0-94.2,16.4-130.7,43.7c49.4,44.8,80.7,109.2,80.7,181
				c0,68-28,129.6-73,174c35,23.9,77.4,38,123,38c120.6,0,218.4-97.8,218.4-218.4C895.3,717.2,797.5,619.4,676.9,619.4z"/>
		</g>
		<g id="XMLID_49_">
			<path id="XMLID_50_" fill="#FFFFFF" d="M278,610.6V459.9l-80,65.5v126.1C214,633.5,256,619.4,278,610.6z"/>
		</g>
		<g id="XMLID_15_">
			<path id="XMLID_16_" fill="#FFFFFF" d="M377,599.6c6.2,0,19.4,0.5,19.4,0.9v-63.1c0-18.1,15.8-32.7,32.7-32.7
				s32.7,14.7,32.7,32.7V614c26.2,10,56.2,24.9,78.6,43.9v-368H396.4v-52.4h-39.3v52.4h-39.3v317C344,602.3,356.9,599.6,377,599.6z
				 M471.3,316h52.4v39.3h-52.4V316z M471.3,368.4h52.4v39.3h-52.4V368.4z M471.3,420.8h52.4v39.3h-52.4V420.8z M405.8,316h52.4
				v39.3h-52.4V316z M405.8,368.4h52.4v39.3h-52.4V368.4z M405.8,420.8h52.4v39.3h-52.4V420.8z M340.3,316h52.4v39.3h-52.4V316z
				 M340.3,368.4h52.4v39.3h-52.4V368.4z M340.3,420.8h52.4v39.3h-52.4V420.8z"/>
		</g>
	</g>
</g>
<g id="Layer_2">
</g>
</svg>
