<?xml version="1.0" encoding="utf-8"?>
<!-- Generator: Adobe Illustrator 19.2.1, SVG Export Plug-In . SVG Version: 6.00 Build 0)  -->
<svg version="1.1" id="Layer_1" xmlns="http://www.w3.org/2000/svg" xmlns:xlink="http://www.w3.org/1999/xlink" x="0px" y="0px"
	 viewBox="0 0 1024 1024" enable-background="new 0 0 1024 1024" xml:space="preserve">
<circle id="XMLID_1_" fill="#2C6496" cx="512" cy="512" r="512"/>
<g id="XMLID_10_">
	<path id="XMLID_14_" fill="#FFFFFF" d="M793.1,534.3c0,0-17.6,34.2-27.8,50.8c-41.6-64.9-129-171.9-163.4-187.9
		c-8.1-4.5-11.6,1-17.1,2.1c0,0,122.5,113.7,169.1,200.7c0,0-24.3,38-43,53.4c-85.1-114-180.4-233.8-295.9-330.2
		C617.8,254.3,737.6,413.3,793.1,534.3z"/>
	<path id="XMLID_4_" fill="#FFFFFF" d="M697.3,666.5C484.6,863.8,257.8,480,221.7,412.9c0,0,35.5-25.1,71.4-41.9
		c0,0,138.9,186.4,210.3,231c0,0,17.3,2,19.4-7.1c0,0-110.2-122.7-205.8-235.2c0,0,31.4-17.2,78.7-30.6
		C499.7,428.6,623.1,549.9,697.3,666.5z"/>
</g>
</svg>
