<?xml version="1.0" encoding="utf-8"?>
<!-- Generator: Adobe Illustrator 19.2.1, SVG Export Plug-In . SVG Version: 6.00 Build 0)  -->
<svg version="1.1" id="Layer_1" xmlns="http://www.w3.org/2000/svg" xmlns:xlink="http://www.w3.org/1999/xlink" x="0px" y="0px"
	 viewBox="0 0 1024 1024" enable-background="new 0 0 1024 1024" xml:space="preserve">
<circle id="XMLID_1_" fill="#343566" cx="511.7" cy="512" r="512"/>
<g id="XMLID_28_">
	<path id="XMLID_45_" fill="#FFFFFF" d="M357.2,557.6c18.4-14.7,25.9-30.5,18.3-50.6c-7.6-20-23.9-27.2-43.8-27.6
		c-21-0.5-42-0.5-63-0.6c-14-0.1-22.9,6.7-23.1,20.9c-0.5,42-0.6,84.1-0.1,126.1c0.2,15,9.2,22.6,24.6,22.3
		c19.3-0.3,38.7,0.1,58-0.3c23.8-0.4,43.1-9,51.5-32.9C388,591.1,379.5,572.3,357.2,557.6z M283.1,512.5l0.1-3.2l3.6-0.1l34.9,0.1
		c5.1,0.5,10.5,3.2,14.3,6.8c7.5,6.9,5.6,19.1-2.7,24.4c-10.9,7-50.2,4.6-50.2,4.6V512.5z M339.8,608.3c-6.6,8.3-16.3,8.9-25.8,9.2
		c-0.1,0-30.6,0.1-30.6,0.1l-0.1-42.6h37.6c9.1,1.6,17.3,5.2,20.4,11.3C344.8,593.1,344.7,602.1,339.8,608.3z"/>
	<path id="XMLID_42_" fill="#FFFFFF" d="M643.9,547.2c0-8.5,0.1-17.5-9.3-21.7c-10-4.4-17.9,0-24.7,8.6
		c-29.6-17.5-52.7-16.8-70.6,1.3c-20.3,20.4-23.6,60-6.8,84.2c8.6,12.3,20.5,19.3,35.5,21.6c15.2,2.3,28.2-4.2,42-11.9
		c-3.7,35.9-16.7,43.1-46.8,28.5c-1.5-0.7-3-1.5-4.4-2.4c-9.4-5.3-18-5.1-23.5,5.3c-5.7,10.7,0.6,17.4,9.1,22.6
		c17.5,10.8,36.9,11,56.1,7.6c27.9-5,42.3-21.9,43.1-50.5C644.5,609.3,644,578.2,643.9,547.2z M594.3,608.7
		c-16.3,8.2-34.6-3.8-37.4-20.8c-2.5-14.8,4.9-33.8,21.1-37c1-0.2,2-0.2,2.9-0.1C608.6,543.7,621.3,595.1,594.3,608.7z"/>
	<path id="XMLID_39_" fill="#FFFFFF" d="M508.8,594.2c8.1-44.5-15-73.8-54.9-73.4c-27,0.3-49.3,15.7-58.3,40.2
		c-10,27.3-3,59.3,16.8,76.6c17.6,15.4,51.5,19,73.7,8c14.3-7.1,20.4-18.2,14-27.5c-8.6-12.4-18.4-7.9-27.9-0.4
		c-1.3,1-2.7,2.1-4.2,2.7c-18.9,7.9-31.8,0.3-37.5-22.9C456.2,593.8,482.3,598.8,508.8,594.2z M430.8,570.1
		c0.3-7.8,6.7-16.3,13.4-19c18.8-7.5,28.4,4,30.2,7.3c1.4,2.4,2.1,5.3,2.5,8.1c0.3,1.5,0.8,2.9,0.5,3.4
		C477.1,570.4,430.8,570,430.8,570.1z"/>
	<path id="XMLID_17_" fill="#FFFFFF" d="M819.7,549.9c-0.2,30.6-0.4,61.2-0.6,91.9c-21.6,13.2-30.8,9.2-31.8-14.6
		c-0.7-16.8,0.2-33.6-0.3-50.3c-0.4-12.2-2.7-24.1-18.3-25.5c-12.4-1.1-20.9,8.4-21.6,25.1c-0.8,16.7-0.1,33.6-0.4,50.3
		c-0.2,11.9-3.7,22.7-17.7,22.9c-14.3,0.3-17.6-10.2-17.5-22.4c0-26.8-0.1-53.7,0-80.5c0-9.2-0.4-18.9,11-22.9
		c10.7-3.7,17.8,1,23,9.7C785.2,513.1,803.7,517.2,819.7,549.9z"/>
	<path id="XMLID_16_" fill="#FFFFFF" d="M197.4,636.7c0-33.8,0-67.5,0-101.3c4.8-10.8,12.8-15.1,24.2-11.1c10.9,3.9,11,13.5,11,22.9
		c0.1,25.9,0,51.8,0,77.8c0,9.4-0.6,18.8-11.2,23C209.6,652.5,202.3,647,197.4,636.7z"/>
	<path id="XMLID_15_" fill="#FFFFFF" d="M698.3,586.5c0,15.1,0.2,30.1-0.1,45.2c-0.2,10.9-6.3,17.7-16.9,17.9
		c-10.7,0.2-17.4-6.8-17.6-17.4c-0.5-30.9-0.6-61.9,0.1-92.8c0.2-10.5,7.2-17.1,18.1-16.4c10.7,0.7,16.4,7.2,16.4,18.3
		c0,15.1,0,30.1,0,45.2C698.3,586.5,698.3,586.5,698.3,586.5z"/>
	<path id="XMLID_14_" fill="#FFFFFF" d="M681.1,509.9c-10.6-1.5-17.8-7.4-17.4-17.8c0.3-10,7-17,17.8-17
		c11.1-0.1,16.8,6.8,16.8,17.4C698.3,503.5,691.1,508.4,681.1,509.9z"/>
	<path id="XMLID_13_" fill="#FFFFFF" d="M232.6,492.6c-2.3,9.9-7.5,17.5-18.2,16.8c-10-0.6-17.1-6.6-16.8-17.6
		c0.3-10.9,7.4-16.7,17.7-16.6C226.1,475.2,230.9,482.8,232.6,492.6z"/>
	<path id="XMLID_29_" fill="#FFFFFF" d="M812.5,409.3c0,0,0,1.4,0,4h-9.3v9.7l-25,0.2l-0.2,18.9l-23.8-0.2L754,454l-26.6-0.5
		l0.4-59.6l-46.9-0.4v30.7h-57.5l-0.2,43.5h-16.6v-63.1l-21.3,0l-0.2-34.8h-36.4l-0.2,43.8l-18.1,0.2l0-57.8l-26.6,0l0.1,43.5
		l-28.2-0.1l0,39.4l-15.5-0.3l0.2-86.8l-0.2-22.2h-25.2l0.1,8.7l0.1,30.9l-9.9-0.1v61.3l-9.9-0.1v11.1l-20.6-0.1l0.1-12h-9.7
		l-8.1-0.1l-0.1-14.8l-12.4-0.2l0,15.3l-10.9,0v-5.2h-28.2V454l0,0l-36.8-0.1l-5.6-0.1l-5.4-0.1l-0.1,10.7h6.1
		c16.9,0,33.7,0,50.6,0.1l0,0c10.4-0.2,18.9,5.2,27.9,9.2c19.4,8.6,29.8,22.5,28,44.4c-0.5,5.7-0.2,11.6-0.2,17.4
		c1.6,1.8,3.2,1.8,4.8,0c11.2-21.2,31.7-26,52.7-28.3c28.9-3.1,52.5,10.5,73.7,28.3c22.2-29.6,48.8-36.5,75.4-24.8
		c5.2,2.3,9.9,4.8,16.5,2c14.6-6.3,28.7-3.7,43.7,9.8c-1.8-22.2-12.6-43.4,9-55.5c9.8-5.5,22.7-4.9,33.6,2c19.1,12.1,13.6,28.8,5,47
		c16.5-5.8,29.2-10.2,41.5-0.4c3,2.4,5.8,3,8.9,0.5c19.5-15.9,58.7-0.2,58.7-0.2l0,0c0,0,0,0,0,0c-1.1,0.2,10.5,9.7,10.5,9.7
		c0-38.7,0-77.4,0-116.1H812.5z"/>
</g>
</svg>
