<?xml version="1.0" encoding="utf-8"?>
<!-- Generator: Adobe Illustrator 19.2.1, SVG Export Plug-In . SVG Version: 6.00 Build 0)  -->
<svg version="1.1" id="Layer_1" xmlns="http://www.w3.org/2000/svg" xmlns:xlink="http://www.w3.org/1999/xlink" x="0px" y="0px"
	 viewBox="0 0 1024 1024" enable-background="new 0 0 1024 1024" xml:space="preserve">
<circle id="XMLID_1_" fill="#174A5B" cx="512" cy="512" r="512"/>
<g>
	<path fill="#F05132" d="M536,602.2c-0.8,5.9-1.7,9.7-1.7,13.4c-0.1,40-0.3,80,0.1,120c0.1,8.9-2.8,11.2-11.3,11
		c-22.6-0.5-22.6-0.1-22.6-22.8c0-110.5,0-220.9,0-331.4c0-13.4,0-13.4,13-13.4c20.7,0,20.7,0,20.7,20.8c0,5.2-0.2,10.4,0.1,15.5
		c0.2,2.8,1.3,5.6,2.1,8.4c1.1,0.6,2.3,1.3,3.4,1.9c3.5-4.4,6.7-9.2,10.6-13.2c19.4-20.3,42.6-33.2,70.6-38.1
		c62.8-11.1,113.2,9.4,151.4,59.5c20.7,27.2,26.5,58.9,23.4,92.8c-4.4,49.2-30.6,84.2-71.6,108.2c-31.7,18.5-66.7,22.4-103.3,15.6
		c-31.6-5.9-56.8-22-79.3-43.7C540.6,605.8,539.5,605,536,602.2z M647.1,623.8c15.5,0.9,29.6-2.8,43.8-8.2
		c51.1-19.4,85-79.4,66.6-134.6c-16-48.1-54.1-73.4-96.6-78.7c-35.7-4.5-67.7,5.8-94.4,30.6c-36.8,34.1-45.8,89-21.7,132.6
		C567,605.3,603,621.9,647.1,623.8z"/>
	<path fill="#FFFFFF" d="M391.6,521.4c0-40.3,0.2-80.5-0.2-120.8c-0.1-8.3,2.7-11.2,10.9-11c16.7,0.4,33.3,0.3,50,0.1
		c6.6-0.1,9.1,2.5,9.1,9.2c-0.1,81.9-0.1,163.9,0,245.8c0,6.8-2.4,9.1-9.1,9c-17.2-0.3-34.5-0.3-51.7,0c-7.5,0.2-9.2-3.1-9.2-9.9
		C391.7,603,391.6,562.2,391.6,521.4z"/>
	<path fill="#FFFFFF" d="M427.3,280.9c23.9-2.6,44.2,22.7,43.4,41.7c-1,23.2-19.5,42-43.5,42.4c-23.7,0.3-45.4-20.2-44.5-43.5
		C383.6,299.2,402.1,279.1,427.3,280.9z"/>
</g>
<polygon fill="#22C8F3" points="227.1,567.6 352.3,647.9 352.3,567.6 "/>
</svg>
