<?xml version="1.0" encoding="utf-8"?>
<!-- Generator: Adobe Illustrator 19.2.1, SVG Export Plug-In . SVG Version: 6.00 Build 0)  -->
<svg version="1.1" id="Layer_1" xmlns="http://www.w3.org/2000/svg" xmlns:xlink="http://www.w3.org/1999/xlink" x="0px" y="0px"
	 viewBox="0 0 1024 1024" enable-background="new 0 0 1024 1024" xml:space="preserve">
<circle id="XMLID_1_" fill="#8B8E90" cx="512" cy="512" r="512"/>
<path id="XMLID_15_" fill="#FFFFFF" d="M253.1,616c22.2-0.9,22.2-0.9,22.2,20.9c0,40.4,0.3,80.8-0.2,121.2
	c-0.2,14.9,5.4,25.5,21.6,23.3c8.8-1.2,6.2,5.9,6,10.1c-0.2,4.4,3.3,10.9-6.2,11.4c-19.6,1-35-4.5-43.5-23.5
	C253.1,724.9,253.1,670.5,253.1,616z"/>
<path id="XMLID_17_" fill="#FFFFFF" d="M429.9,765.4c-20.1,33.1-49.2,46.2-81.1,37.5c-28.4-7.8-49.5-35.9-49.7-66.2
	c-0.2-31.9,20.2-60.2,49.6-68.2c27.4-7.5,60.8,0.7,80.9,36.9c6.1-9.2,12-18.1,20.6-25c22.6-18,54.9-19.3,79-3.2
	c5.9,4,6.7,7.6,1.9,12.7c-3.6,3.8-3.9,12.7-13.4,5.8c-16-11.6-33.6-12.1-50.4-1.3c-16.4,10.6-24.2,26.5-22.2,45.9
	c2.2,20.5,13.4,35.2,33.3,41.9c29,9.8,61.1-13.9,61.8-45.3c0.8-36.5,22.6-63.2,57.4-69.9c17.5-3.4,33.6,0.8,48.4,10.4
	c2.7,1.8,5.4,3.6,8.3,5.5c3-5.4-3.3-15.5,9.4-14.7c16.9,1,13.7-0.7,13.8,13.9c0.2,26.9,0,53.8,0.1,80.7c0,8.5,1,15.8,11.8,19.1
	c7.6,2.3,2.9,10.9,3.2,16.6c0.3,5.4-4.8,4.6-8.3,4.2c-9.8-1-19.2-3.3-23.9-13.4c-2.3-4.9-4.4-3-7.4-0.7
	c-35.1,26.2-71.3,22.2-99-11.3c-5.6-6.8-6.7-0.7-9,1.9c-28,33.3-74.3,35.3-103.1,4.4C437.2,778.4,433.8,772.4,429.9,765.4z
	 M367,783.9c26.1,0.1,47.2-20.8,47.4-47.1c0.3-27.9-20.3-49.6-47.1-49.6c-26,0-46.7,21.1-46.8,47.7
	C320.5,762.6,340.6,783.8,367,783.9z M561.8,735.5c-0.1,27.3,20.5,48.4,47,48.4c25.9,0,46.8-21.3,47-47.7
	c0.2-27-20.6-48.8-46.8-49.1C582.7,687,561.8,708.3,561.8,735.5z"/>
<path id="XMLID_11_" fill="#FFFFFF" d="M706.6,704.4c0-22.2,0.6-44.5-0.3-66.7c-0.4-9.8,4.6-9,11.2-9.4c7.8-0.5,9.8,2.1,9.8,9.8
	c-0.4,41.1-0.2,82.2-0.2,123.2c0,17.4,2.6,20.3,20.1,21.4c6.5,0.4,6,4.3,5.5,8.1c-0.6,4.4,3.5,11-5.6,12.1
	c-25.8,2.9-40.3-9.6-40.5-35.5C706.5,746.4,706.6,725.4,706.6,704.4z"/>
<path id="XMLID_23_" fill="#BAD33E" d="M687.4,219.2c-117.4,0-234.8,0-352.2,0c-42.3,19.7-77,50-78.8,104.7
	c-2.9,88.6-0.8,177.3-0.8,273.2c72.2-91.3,161.6-110.6,258.2-108.4c49.9,1.1,99.8,1.1,149.6-0.1c48.8-1.2,81.1-25.3,94.1-67.3
	C784.7,334.3,758.6,259.2,687.4,219.2z M377.4,401.3c-26.1,0-47.2-21.1-47.2-47.2c0-26.1,21.1-47.2,47.2-47.2s47.2,21.1,47.2,47.2
	C424.6,380.2,403.5,401.3,377.4,401.3z M508.1,401.3c-26.1,0-47.2-21.1-47.2-47.2c0-26.1,21.1-47.2,47.2-47.2s47.2,21.1,47.2,47.2
	C555.3,380.2,534.1,401.3,508.1,401.3z M639.7,401.3c-26.1,0-47.2-21.1-47.2-47.2c0-26.1,21.1-47.2,47.2-47.2S687,328,687,354.1
	C687,380.2,665.8,401.3,639.7,401.3z"/>
</svg>
