<?xml version="1.0" encoding="utf-8"?>
<!-- Generator: Adobe Illustrator 19.2.1, SVG Export Plug-In . SVG Version: 6.00 Build 0)  -->
<svg version="1.1" id="Layer_1" xmlns="http://www.w3.org/2000/svg" xmlns:xlink="http://www.w3.org/1999/xlink" x="0px" y="0px"
	 viewBox="0 0 1024 1024" enable-background="new 0 0 1024 1024" xml:space="preserve">
<circle id="XMLID_1_" fill="#33A3D8" cx="512" cy="512" r="512"/>
<g id="XMLID_4_">
	<path id="XMLID_15_" fill="#D3E8F3" d="M511.3,481.6c90.6,0,181.2,0,271.8,0c19.9,0,32.4,9,36.1,25.5c3.7,16.5-6.3,33.2-22.7,37.3
		c-4,1-8.3,1.5-12.5,1.5c-181.5,0.1-363.1,0.1-544.6,0c-20.6,0-34.7-12-35.7-29.6c-1.1-18.8,12.3-33.6,31.7-34.6
		c7.7-0.4,15.4-0.1,23.2-0.1C342.8,481.6,427.1,481.6,511.3,481.6z"/>
	<path id="XMLID_14_" fill="#D3E8F3" d="M511.2,468.7c-87,0-174.1,0.1-261.1,0c-24.5,0-40.4-22-31.6-43.6
		c4.8-11.6,13.5-18.5,26.2-19.8c3.5-0.4,7-0.4,10.5-0.4c170.9,0,341.9,0,512.8,0c6,0,11.9-0.2,17.7,1.8c14.6,5.1,23.1,19.4,21,34.9
		c-2.2,15.6-14.9,27-31.2,27.2c-30.2,0.2-60.4,0.1-90.6,0.1C627.1,468.7,569.1,468.7,511.2,468.7z"/>
	<path id="XMLID_13_" fill="#87D0E9" d="M511.6,622.9c-86.7,0-173.4,0-260.1,0c-21.7,0-35.9-13.4-35.5-32.9
		c0.4-16.1,12.7-29.4,28.8-30.9c4.2-0.4,8.4-0.3,12.6-0.3c169.5,0,339,0,508.5,0c3.9,0,7.7-0.1,11.6,0.2
		c17.2,1.3,29.9,15.1,29.7,32.2c-0.2,17.1-13.1,31-30.4,31.5c-17.2,0.5-34.4,0.2-51.6,0.2C654.1,622.9,582.9,622.9,511.6,622.9z"/>
	<path id="XMLID_12_" fill="#D3E8F3" d="M512.1,327.5c74.1,0,148.2-0.1,222.2,0.1c27,0.1,42.9,25.8,30.1,48
		c-4.8,8.3-11.9,13.8-21.5,15.3c-5.5,0.9-11.2,1.4-16.7,1.4c-142.9,0.1-285.8,0.1-428.7,0c-5.2,0-10.5-0.4-15.7-1.2
		c-16.2-2.6-27.8-16.5-27.3-32.4c0.5-15.7,13.1-29.3,29.1-31c3.8-0.4,7.7-0.2,11.6-0.2C367.5,327.5,439.8,327.5,512.1,327.5z"/>
	<path id="XMLID_11_" fill="#87D0E9" d="M512.1,700.4c-72.3,0-144.7,0-217,0c-25.2,0-40.8-12.5-40.7-32.5c0.1-20,15.7-32.4,41-32.4
		c144,0,287.9,0,431.9,0c4.2,0,8.5,0,12.6,0.6c18.2,2.7,29.6,16.3,28.8,34.1c-0.8,16.4-14.5,29.6-32.1,30.1
		c-14.7,0.4-29.5,0.1-44.2,0.1C632.2,700.4,572.1,700.4,512.1,700.4z"/>
	<path id="XMLID_10_" fill="#D3E8F3" d="M511.3,314.9c-48.7,0-97.5,0.2-146.2-0.1c-17.4-0.1-30.4-11.3-32.9-26.9
		c-2.3-14.9,5.6-29.3,19.4-34.9c6.6-2.7,13.6-3,20.7-3c60.7,0,121.3,0,182,0c32.3,0,64.5,0,96.8,0c6.7,0,13.4,0.3,19.7,2.6
		c13.3,4.7,22.6,19.7,20.9,33.1c-2,15.9-13.9,27.9-30,28.9c-12.9,0.8-25.9,0.4-38.9,0.4C585.7,315,548.5,315,511.3,314.9
		C511.3,314.9,511.3,314.9,511.3,314.9z"/>
	<path id="XMLID_5_" fill="#87D0E9" d="M511.2,776.9c-48.8,0-97.5,0-146.3,0c-13.1,0-23.1-5.4-29.2-17c-5.8-10.9-5.1-21.8,1.4-32
		c7-11.1,17.7-15,30.6-15c90.9,0.2,181.7,0.1,272.6,0.1c6.3,0,12.6-0.1,18.9,0c18.6,0.4,32.2,13.8,32.4,31.7
		c0.2,17.9-13.2,31.9-31.9,32C610.1,777.1,560.6,776.9,511.2,776.9z"/>
</g>
</svg>
