<svg id="Layer_1" data-name="Layer 1" xmlns="http://www.w3.org/2000/svg" viewBox="0 0 1024 1024"><defs><style>.cls-1{fill:#f0f2f4;}.cls-2{fill:#fd0c0c;}.cls-3{fill:#575757;}</style></defs><title>n49</title><circle id="_Path_" data-name="&lt;Path&gt;" class="cls-1" cx="512" cy="512" r="512"/><path class="cls-2" d="M787.78,507.18c-10.49,20.2-25.84,22.55-41,22.76-40.15.55-80.41,3.29-120.44-1.68-27.52-3.41-38.34-14.4-43.2-41.25a86.35,86.35,0,0,1-1.17-10.56c-3.17-57.13,15.62-77.93,73.1-79.46,29.54-.79,59.12-.23,88.68-.08a116,116,0,0,1,39.93,7.24c19.65,7.29,31.69,21.13,32.11,42.34.82,41.36,1.41,82.77.4,124.12-.58,23.62-15.44,40.59-40.8,44.69-51.6,8.34-103.68,7.06-155.36,0-17.37-2.36-29.82-13.84-34.12-32-1-4.43-.53-10.44-7.7-9.07-6,1.14-3.64,6.54-3.82,10.21a160.42,160.42,0,0,0,0,21.27c.81,9.8-.91,14.68-13,14.85-13.11.18-12.27-6.57-12.31-15.36-.15-31.36-.31-31.35-31.49-31.36-47.3,0-94.6.23-141.9-.28-6.62-.07-18.12,1.3-19.24-9.7-1.15-11.28-6.29-20.47,6.43-30.17,23.5-17.92,46.6-36.37,69.88-54.57,32.13-25.12,64.7-49.7,96.2-75.6,13-10.66,26.83-6.28,40.38-6.16,7.77.07,4.75,8.25,4.78,12.92.23,40.8.6,81.6-.16,122.38-.23,12.52,1.88,19,16.07,16.61,13.91-2.36,23.34-.05,21.84,18.41-1.15,14.1,8,23.11,22.48,24.84,41.83,5,83.79,4.25,125.62.93,17.68-1.4,27.23-13.34,27.73-31.22C788.14,545.84,787.78,529.41,787.78,507.18ZM706.6,425c0-.33-6.6-.26-6.6-.6-18.28,0-36.6-.74-54.84.17-26.94,1.35-34.28,9.33-35.2,35.84-.2,5.89,0,11.79.11,17.69.35,14.5,7.55,23.48,22.06,25.22,42.91,5.17,85.94,4.4,128.92,1.11,16.67-1.27,25.23-11.39,26.12-27.94.38-7.06.74-14.16.47-21.22-.74-20-7.39-28.21-27.53-29.59C740.15,424.37,726.64,425,706.6,425Zm-157.4-5.72-165.28,130c55.13,0,105.18-.2,155.23.18,9.54.07,10.19-4.58,10.15-12C549.08,499.62,549.2,461.8,549.2,419.31Z" transform="translate(0 0)"/><path class="cls-3" d="M264.23,451.65h-63.4v165h60.74v-89.6s-.89-26.61,50.57-26.61,45.24,26.61,45.24,26.61l53.23-39.92s-7.1-35.48-92.26-35.48c0,0-39-1.77-54.11,21.29Z" transform="translate(0 0)"/><rect class="cls-3" x="359.15" y="582.94" width="57.66" height="33.71"/><path class="cls-3" d="M852.42,396.37a19.51,19.51,0,1,0,19.51,19.51A19.51,19.51,0,0,0,852.42,396.37Zm.2,32.65a13.14,13.14,0,1,1,13.14-13.14A13.14,13.14,0,0,1,852.63,429Z" transform="translate(0 0)"/></svg>