<svg id="Layer_1" data-name="Layer 1" xmlns="http://www.w3.org/2000/svg" viewBox="0 0 1024 1024"><defs><style>.cls-1{fill:#f3f3f3;}.cls-2{fill:#0f3e73;}.cls-3{fill:#b1d81e;}</style></defs><title>pointcom</title><circle id="_Path_" data-name="&lt;Path&gt;" class="cls-1" cx="512" cy="512" r="512"/><polygon class="cls-1" points="512.67 561.91 466.7 468.77 363.92 453.84 438.29 381.35 420.74 278.98 512.67 327.31 604.6 278.98 587.04 381.35 661.41 453.84 558.63 468.77 512.67 561.91"/><path class="cls-2" d="M522.54,291.26c-50.85,0-96.5,24-128.54,62.18V295.5H300.26V806.6H391V616.07l0-3.35c32.14,40.27,79.08,65.8,131.52,65.8,96.87,0,175.41-86.69,175.41-193.63S619.42,291.26,522.54,291.26Zm-9.07,322.16c-64.3,0-116.43-57.55-116.43-128.53s52.13-128.53,116.43-128.53,116.43,57.55,116.43,128.53S577.78,613.42,513.48,613.42Z" transform="translate(0.17 -1)"/><polygon class="cls-3" points="599.45 220.41 750.66 380.69 750.66 220.41 599.45 220.41"/></svg>