<?xml version="1.0" encoding="utf-8"?>
<!-- Generator: Adobe Illustrator 21.0.0, SVG Export Plug-In . SVG Version: 6.00 Build 0)  -->
<svg version="1.1" id="Layer_1" xmlns="http://www.w3.org/2000/svg" xmlns:xlink="http://www.w3.org/1999/xlink" x="0px" y="0px"
	 viewBox="0 0 1024 1024" enable-background="new 0 0 1024 1024" xml:space="preserve">
<circle id="XMLID_1_" fill="#0068AB" cx="512" cy="512" r="512"/>
<path id="XMLID_12_" fill="#1AB6E9" d="M512,1024C229.2,1024,0,794.8,0,512S229.2,0,512,0V1024z"/>
<g>
	<polygon fill="#F7F8F9" points="301.5,694.6 325.9,669.6 291.3,663.6 274.6,631.8 257.7,663.6 223.1,669.6 247.3,694.5 
		242.9,730.3 274.4,714 305.9,730.3 	"/>
	<polygon fill="#F7F8F9" points="420.1,693.9 444.5,668.9 409.9,662.9 393.1,631 376.3,662.9 341.7,668.9 365.9,693.8 361.5,729.6 
		393,713.3 424.5,729.6 	"/>
	<polygon fill="#F7F8F9" points="538.7,693.2 563,668.1 528.4,662.2 511.7,630.3 494.9,662.2 460.2,668.1 484.5,693.1 480.1,728.9 
		511.6,712.5 543.1,728.9 	"/>
	<polygon fill="#F7F8F9" points="657.3,692.5 681.6,667.4 647,661.5 630.3,629.6 613.4,661.5 578.8,667.4 603.1,692.4 598.7,728.1 
		630.2,711.8 661.7,728.1 	"/>
	<polygon fill="#F7F8F9" points="775.9,691.7 800.2,666.7 765.6,660.7 748.9,628.9 732,660.7 697.4,666.7 721.7,691.6 717.3,727.4 
		748.8,711.1 780.2,727.4 	"/>
</g>
<g>
	<path fill="#F7F8F9" d="M230.2,293.5H387c32.3,0,57.7,7.5,76.4,22.4c18.6,15,27.9,34.4,27.9,58.4c0,25.8-10.3,47-31,63.5
		c-20.7,16.5-49.1,24.7-85.3,24.7c-12.6,0-25.5-0.8-38.8-2.5v87.2c0,13.8,2.8,23.7,8.3,29.8c5.5,6.1,15.5,10.5,30,13v8.9H230.2V590
		c15.5-3.1,25.8-7.7,31-13.9c5.2-6.2,7.8-17,7.8-32.5V344.2c0-13.9-2.5-23.5-7.4-28.8c-4.9-5.3-15.4-9.6-31.4-13V293.5z M362,310.8
		h-25.8v131c7.8,2.4,15.3,3.6,22.4,3.6c18.7,0,33.3-6,43.9-18c10.5-12,15.8-28.8,15.8-50.4c0-19.7-5.2-35.7-15.6-47.9
		C392.5,316.9,378.9,310.8,362,310.8z"/>
	<path fill="#F7F8F9" d="M511.7,598.9V590c25.8-2,38.8-15,38.8-39V344.2c0-14.1-2.7-23.9-8-29.3c-5.4-5.4-15.6-9.6-30.7-12.5v-8.9
		H657c38.1,0,67.3,6.7,87.8,20.1c20.5,13.4,30.7,32.3,30.7,56.6c0,17.5-5.3,32.6-16,45.1c-10.7,12.6-25.9,21.8-45.8,27.5v1
		c7.1,1.7,14.9,7.6,23.2,17.7c8.3,10.1,20.4,30,36.2,59.5c15.5,28.7,26.8,46.9,33.8,54.5c7.1,7.6,16.7,12.4,28.9,14.3v8.9h-88.1
		c-11.5-13.7-26.4-38.4-44.4-74.2c-12.5-24.6-21.7-41-27.7-49.2c-6-8.2-12.3-13.9-18.9-17.2c-6.5-3.3-19.6-5-39.1-5v93.8
		c0,13.4,3,23.4,8.9,30c5.9,6.5,16.1,10.8,30.3,12.9v8.9H511.7z M638.7,310.8h-20.9V436c5.3,0.3,10.2,0.5,14.8,0.5
		c24.3,0,42-5.2,53.2-15.7c11.1-10.5,16.7-27,16.7-49.6C702.4,331,681.2,310.8,638.7,310.8z"/>
</g>
</svg>
