<svg id="Layer_1" data-name="Layer 1" xmlns="http://www.w3.org/2000/svg" viewBox="0 0 1024 1024"><defs><style>.cls-1{fill:#f3f3f3;}.cls-2{fill:none;}.cls-3{fill:#cfe0e8;}.cls-4{fill:#f46101;}</style></defs><title>showmelocal</title><polygon class="cls-1" points="512.67 561.91 466.7 468.77 363.92 453.84 438.29 381.35 420.74 278.98 512.67 327.31 604.6 278.98 587.04 381.35 661.41 453.84 558.63 468.77 512.67 561.91"/><path class="cls-2" d="M34.29,705.13h2.82q-1.44-3.55-2.82-7.12Z" transform="translate(0.17 -1)"/><path class="cls-1" d="M34.29,698q1.38,3.57,2.82,7.12H114.7V634.18l30.74-26,40.2,17.74v53.21h43.75l13-16.55L259,677.93V542h22.47l9.46-66.22,13,63.85h11.82L324,510v182.1h27.2V511.21h44.93l14.19,13v175L428,731.14V644.82L447,624.72v-27.2l27.2,4.73V700.4l36.66,13V475.73H653.89V673.2l36.66-65V506.48l13-10.64V465.09h15.37V414.25l17.15,17.15v34.88H761.5V523l8.28,4.73V545.5L798.15,549l13,37.84V700.4h28.38v-201h11.82V422.52h31.93v80.41h18.92v41.39h17.74v40.2h42.57v107.6h29.1A510.89,510.89,0,0,0,1023.83,513c0-282.77-229.23-512-512-512S-.17,230.23-.17,513A511.65,511.65,0,0,0,24.25,669.66h10Z" transform="translate(0.17 -1)"/><path class="cls-1" d="M511.83,1025c167.14,0,315.57-80.1,409-204h-818C196.26,944.91,344.69,1025,511.83,1025Z" transform="translate(0.17 -1)"/><path class="cls-3" d="M962.51,692.12V584.52H919.94v-40.2H902.21V502.93H883.29V422.52H851.36v76.86H839.54v201H811.16V586.88l-13-37.84-28.38-3.55V527.76L761.5,523V466.27H736.07V431.39l-17.15-17.15v50.85H703.56v30.74l-13,10.64V608.17l-36.66,65V475.73H510.82V713.41l-36.66-13V602.26L447,597.53v27.2L428,644.82v86.32l-17.74-31.93v-175l-14.19-13H351.19V692.12H324V510l-8.28,29.56H303.89l-13-63.85L281.42,542H259v136L242.4,662.56l-13,16.55H185.64V625.9l-40.2-17.74-30.74,26v70.95H37.11A511.26,511.26,0,0,0,102.81,821h818a511,511,0,0,0,70.76-128.89Z" transform="translate(0.17 -1)"/><path class="cls-3" d="M34.29,669.66h-10Q28.86,684,34.29,698Z" transform="translate(0.17 -1)"/><path class="cls-4" d="M653.67,345.16A114.68,114.68,0,0,0,641,297.39a130,130,0,0,0-38.49-45.62,145.78,145.78,0,0,0-56.89-26,154.47,154.47,0,0,0-26.75-3.49,10.33,10.33,0,0,1-1.25-.21H506.67a13.68,13.68,0,0,1-1.39.21c-34,1.73-63.69,12.94-88.86,33.82a126.35,126.35,0,0,0-39.78,57.15,112.59,112.59,0,0,0-5.41,23.85c-.31,2.74-.54,5.49-.83,8.23a10.3,10.3,0,0,1-.29,1.27V355a11.37,11.37,0,0,1,.48,1.89,152.23,152.23,0,0,0,5.13,26.73,480.86,480.86,0,0,0,15.58,46.68c8.46,22.24,17.86,44.16,27.64,65.95,14.49,32.28,29.91,64.19,45.79,95.91q22.64,45.2,46.6,89.82c.21.39.44.77.8,1.39.35-.6.62-1,.85-1.47,6.5-12.25,13.06-24.47,19.47-36.76,22.15-42.48,43.57-85.27,63.65-128.61,10.83-23.38,21.24-46.91,30.83-70.74,5.7-14.17,11.09-28.44,15.85-42.9a287,287,0,0,0,8.67-31.28,86,86,0,0,0,2.2-15.47,6.22,6.22,0,0,1,.24-1.14v-8.41A11.31,11.31,0,0,1,653.67,345.16ZM512,469.42a105.5,105.5,0,1,1,105.5-105.5A105.5,105.5,0,0,1,512,469.42Z" transform="translate(0.17 -1)"/><path class="cls-4" d="M512,288.84a75.09,75.09,0,1,0,75.09,75.09A75.09,75.09,0,0,0,512,288.84Zm0,118a42.93,42.93,0,1,1,42.93-42.93A42.93,42.93,0,0,1,512,406.85Z" transform="translate(0.17 -1)"/><circle class="cls-4" cx="512.17" cy="362.92" r="16.71"/></svg>