<?xml version="1.0" encoding="utf-8"?>
<!-- Generator: Adobe Illustrator 19.2.1, SVG Export Plug-In . SVG Version: 6.00 Build 0)  -->
<svg version="1.1" id="Layer_1" xmlns="http://www.w3.org/2000/svg" xmlns:xlink="http://www.w3.org/1999/xlink" x="0px" y="0px"
	 viewBox="0 0 1024 1024" enable-background="new 0 0 1024 1024" xml:space="preserve">
<circle id="XMLID_1_" fill="#3481CC" cx="512" cy="512" r="512"/>
<g>
	<g>
		<path fill="#FFFFFF" d="M228.9,417.7c13,0,26.1,0,39.1,0c0.1,0,0.2,0,0.5,0.1c0,12.2,0,24.5,0,36.9c12.8,0,25.5,0,38.2,0
			c0,9.3,0,18.5,0,27.9c-12.7,0-25.4,0-38.2,0c0,0.6,0,1,0,1.4c0,15.7,0,31.3,0,47c0,4.1,0,8.2,0.3,12.2c0.4,4.8,1.9,9.2,6.1,12.2
			c2.4,1.7,5.2,2.5,8,2.8c7,1,13.2-0.7,19.6-3.2c1.5-0.6,4.1-2.4,4.1-0.6c0,0.6,0.1,1,0.1,1.4c0,8.5,0,17,0,25.5
			c0,1.1-0.4,1.4-1.3,1.7c-8.7,2.1-17.5,3.2-26.5,3.2c-5.9,0-11.8,0-17.6-0.9c-5.6-0.9-11-2.4-16-5.3c-8-4.6-12.4-11.7-14.5-20.5
			c-0.9-3.7-1.3-6.5-1.9-10.3c-0.1-0.4,0-1.3,0-2.3C228.9,504,228.9,460.8,228.9,417.7z"/>
		<path fill="#FFFFFF" d="M500.8,577.6c0,18,0,35.8,0,53.8c-13.2,0-26.2,0-39.4,0c0-58.8,0-117.6,0-176.5c13.1,0,26.2,0,39.4,0
			c0,4.4,0,8.8,0,13.5c1.2-1,2.1-1.7,3-2.5c5.2-4.2,10.6-7.9,16.7-10.7c7.6-3.5,15.7-4.4,23.9-3.7c8,0.7,15.3,3.4,21.6,8.6
			c5.8,4.8,9.9,11,13,17.8c3.3,7.3,5.4,15,6.2,23c0.6,6,1.1,12.1,1,18.2c0,12.1-1.9,23.9-7.1,35c-5.3,11.3-13,20.6-24.1,26.8
			c-6.6,3.7-13.8,5.3-21.4,5.6c-11.3,0.4-21.7-2.6-31.3-8.2c-0.3-0.2-0.7-0.4-1-0.5C501.2,577.6,501.1,577.6,500.8,577.6z
			 M500.8,521.9C500.8,521.9,500.8,521.9,500.8,521.9c0,10.2,0,20.3,0,30.5c0,2,0,2,1.9,2.6c6.6,2.1,13.3,2.3,20.1,1.4
			c8.6-1.2,14.8-5.7,18.5-13.6c2.6-5.4,3.6-11.1,4.1-17c0.6-8,0.5-16-1.2-23.9c-0.7-3-1.6-6-3-8.7c-3.8-7.5-10.4-10.4-18.4-10.6
			c-7.6-0.2-14.4,2.2-20.8,6.2c-0.8,0.5-1.1,1-1.1,2C500.8,501.2,500.8,511.6,500.8,521.9z"/>
		<path fill="#FFFFFF" d="M381.8,588c-10.1,0-19.9-1.3-29.2-5.2c-15.5-6.5-25.8-18-31.7-33.6c-2.5-6.6-3.8-13.5-4.4-20.5
			c-0.8-8.7-0.5-17.4,0.9-26.1c2.4-14,8-26.4,18.5-36.2c7.9-7.4,17.4-11.8,27.9-13.9c13.8-2.7,27.5-2.6,41.1,1.3
			c18.5,5.4,30.9,17.6,37.6,35.6c2.8,7.4,4.1,15.1,4.6,22.9c0.5,9,0.2,18-1.6,26.8c-3.2,15.2-10.3,28.1-23,37.4
			c-7.2,5.3-15.3,8.4-24,10C393,587.6,387.4,588,381.8,588z M407.1,520.9c-0.3-4.7-0.4-8.5-0.7-12.3c-0.5-5.4-1.6-10.7-3.8-15.7
			c-2.2-4.9-5.3-9-10.2-11.4c-3.9-1.9-8.1-2.3-12.4-2.1c-8.2,0.4-14.3,4.2-17.8,11.6c-1.5,3.1-2.7,6.5-3.5,9.9
			c-2,8.3-2.1,16.7-1.7,25.1c0.3,6.6,1.3,13.1,3.9,19.2c2.2,5.3,5.4,9.7,10.9,12c5.7,2.4,11.6,2.8,17.6,1c5.4-1.6,9.5-4.8,12.2-9.8
			c2.3-4.3,4-8.8,4.5-13.7C406.5,529.9,406.8,524.9,407.1,520.9z"/>
		<path fill="#FFFFFF" d="M656.2,454.7c0.5,0,0.8,0,1,0c14.7,0,29.5,0,44.2,0c0.8,0,1.2,0.3,1.6,0.9c7.3,11.1,14.6,22.3,21.9,33.4
			c0.4,0.6,0.8,1.2,1.3,2c0.6-0.9,1.1-1.6,1.6-2.4c7.2-11,14.4-22,21.6-33c0.4-0.6,0.8-0.9,1.6-0.9c14.4,0,28.9,0,43.3,0
			c0.3,0,0.6,0,1,0c-0.3,0.4-0.5,0.7-0.7,1c-14.8,20.4-29.7,40.9-44.5,61.3c-0.6,0.8-0.7,1.3,0,2.2c14.9,21,29.8,42,44.7,63
			c0.3,0.5,0.6,1,1.1,1.7c-0.6,0-1,0-1.4,0c-14.5,0-29,0-43.5,0c-1,0-1.6-0.4-2.1-1.2c-7.5-11.6-15.1-23.3-22.7-34.9
			c-0.2-0.3-0.4-0.6-0.7-1c-0.3,0.4-0.6,0.8-0.8,1.1c-7.8,11.6-15.7,23.3-23.5,34.9c-0.5,0.7-1,1-1.8,1c-14.3,0-28.5,0-42.8,0
			c-0.3,0-0.7,0-1.2,0c0.3-0.5,0.6-0.9,0.8-1.3c15-20.7,30.1-41.5,45.1-62.2c0.6-0.8,0.6-1.3,0-2.1c-14.9-20.8-29.7-41.6-44.6-62.5
			C656.7,455.5,656.5,455.2,656.2,454.7z"/>
		<path fill="#FFFFFF" d="M601.6,454.8c13.3,0,26.4,0,39.6,0c0,0.4,0,0.9,0,1.3c0,42.2,0,84.3,0,126.5c0,1.2-0.4,1.4-1.5,1.4
			c-12.1,0-24.2,0-36.3,0c-1.7,0-1.7,0-1.7-1.7c0-38.3,0-76.6-0.1-114.9C601.6,463.1,601.6,459,601.6,454.8z"/>
	</g>
	
		<linearGradient id="SVGID_1_" gradientUnits="userSpaceOnUse" x1="400.7416" y1="3534.1992" x2="442.687" y2="3534.1992" gradientTransform="matrix(4.489700e-11 1 -1 4.489700e-11 4155.8008 -7.0749)">
		<stop  offset="0" style="stop-color:#FF6A00"/>
		<stop  offset="1" style="stop-color:#FF9901"/>
	</linearGradient>
	<circle fill="url(#SVGID_1_)" cx="621.6" cy="414.6" r="21"/>
</g>
</svg>
