<svg id="Layer_1" data-name="Layer 1" xmlns="http://www.w3.org/2000/svg" viewBox="0 0 1024 1024"><defs><style>.cls-1{fill:#f0f2f4;}.cls-2{fill:#466c48;}.cls-3{fill:#66c080;}.cls-4{fill:#3c8b4f;}.cls-5{fill:#7de4a4;}.cls-6{fill:#119ad2;}.cls-7{fill:#909090;}</style></defs><title>uscity</title><circle id="_Path_" data-name="&lt;Path&gt;" class="cls-1" cx="512" cy="512" r="512"/><polygon class="cls-2" points="144.24 494.82 144.24 455.37 153.12 449.45 162.49 452.9 162.49 472.13 166.93 472.13 166.93 433.18 171.86 428.25 183.2 428.25 183.2 470.65 186.16 456.85 186.16 441.07 191.09 436.63 200.46 436.63 200.46 458.32 213.77 458.32 213.77 491.36 213.77 508.62 176.3 518.49 154.11 518.49 144.24 500.24 144.24 494.82"/><polygon class="cls-3" points="146.22 494.82 146.22 455.37 155.09 449.45 164.46 452.9 164.46 472.13 168.9 472.13 168.9 433.18 173.83 428.25 185.17 428.25 185.17 470.65 188.13 456.85 188.13 441.07 193.06 436.63 202.43 436.63 202.43 458.32 215.75 458.32 215.75 491.36 215.75 508.62 178.27 518.49 156.08 518.49 146.22 500.24 146.22 494.82"/><polygon class="cls-4" points="158.05 505.66 158.05 492.35 168.9 492.35 173.34 486.43 173.34 472.13 191.58 472.13 191.58 494.82 195.53 494.82 195.53 468.68 210.32 468.68 210.32 514.05 160.52 525.39 158.05 505.66"/><polygon class="cls-5" points="160.03 505.66 160.03 492.35 170.87 492.35 175.31 486.43 175.31 472.13 193.56 472.13 193.56 494.82 197.5 494.82 197.5 468.68 212.3 468.68 212.3 514.05 162.49 525.39 160.03 505.66"/><path class="cls-6" d="M246.43,457.24a47.75,47.75,0,0,0-5.92-20.91,58,58,0,0,0-18-20A70.25,70.25,0,0,0,196,405a76.68,76.68,0,0,0-12.49-1.53,5.12,5.12,0,0,1-.58-.09H177.8c-.22,0-.43.08-.65.09-15.87.76-29.73,5.66-41.49,14.8a55.41,55.41,0,0,0-18.57,25,46.67,46.67,0,0,0-2.53,10.44c-.15,1.2-.25,2.4-.39,3.6a4.27,4.27,0,0,1-.14.56v3.68a4.73,4.73,0,0,1,.23.83,62.92,62.92,0,0,0,2.4,11.7,201.39,201.39,0,0,0,7.27,20.43c4,9.73,8.34,19.33,12.9,28.86,6.77,14.13,14,28.09,21.38,42Q168.79,585.1,180,604.63c.1.17.21.34.37.61.16-.26.29-.45.4-.64,3-5.36,6.1-10.71,9.09-16.09,10.34-18.59,20.34-37.32,29.71-56.28,5.06-10.23,9.92-20.53,14.39-31,2.66-6.2,5.18-12.45,7.4-18.77a119.47,119.47,0,0,0,4-13.69,35.45,35.45,0,0,0,1-6.77,2.57,2.57,0,0,1,.11-.5v-3.68A4.67,4.67,0,0,1,246.43,457.24Zm-66.14,54.38c-27.2,0-49.25-20.67-49.25-46.17s22.05-46.17,49.25-46.17,49.25,20.67,49.25,46.17S207.49,511.62,180.29,511.62Z" transform="translate(0 0)"/><path d="M335.85,430.61v90.23c0,34.15,15.15,48.62,35.5,48.62,22.61,0,37.09-14.92,37.09-48.62V430.61h19.9v88.87c0,46.81-24.65,66-57.66,66-31.21,0-54.73-17.86-54.73-65.13V430.61Z" transform="translate(0 0)"/><path d="M459.77,559.05A69.72,69.72,0,0,0,495,569c20.13,0,31.89-10.63,31.89-26,0-14.25-8.14-22.39-28.72-30.3C473.34,503.88,458,491,458,469.5c0-23.74,19.67-41.38,49.3-41.38,15.6,0,26.91,3.62,33.69,7.46l-5.43,16.06a60.71,60.71,0,0,0-28.95-7.24c-20.8,0-28.72,12.44-28.72,22.84,0,14.25,9.27,21.26,30.3,29.4,25.78,9.95,38.9,22.39,38.9,44.78,0,23.52-17.41,43.87-53.37,43.87-14.7,0-30.75-4.3-38.89-9.72Z" transform="translate(0 0)"/><path class="cls-7" d="M680.47,578c-7.24,3.62-21.71,7.24-40.25,7.24-43,0-75.3-27.14-75.3-77.11,0-47.72,32.34-80.05,79.6-80.05,19,0,31,4.07,36.18,6.78L675.95,451c-7.46-3.62-18.09-6.33-30.75-6.33-35.73,0-59.47,22.84-59.47,62.87,0,37.31,21.48,61.28,58.57,61.28,12,0,24.2-2.49,32.11-6.33Z" transform="translate(0 0)"/><path class="cls-7" d="M725.92,442.82c.23,6.78-4.75,12.21-12.66,12.21a11.83,11.83,0,0,1-12-12.21,12.13,12.13,0,0,1,12.44-12.44C721.17,430.38,725.92,435.81,725.92,442.82ZM703.76,583V473.57h19.9V583Z" transform="translate(0 0)"/><path class="cls-7" d="M780.64,442.14v31.43h28.49v15.15H780.64v59c0,13.57,3.84,21.26,14.92,21.26a44.25,44.25,0,0,0,11.53-1.36l.91,14.92c-3.84,1.58-10,2.71-17.64,2.71-9.27,0-16.73-2.94-21.48-8.37-5.65-5.88-7.69-15.6-7.69-28.49v-59.7h-17V473.57h17V447.34Z" transform="translate(0 0)"/><path class="cls-7" d="M840.79,473.57l24,64.68c2.49,7.24,5.2,15.83,7,22.39h.45c2-6.56,4.3-14.93,7-22.84l21.71-64.22h21l-29.85,78c-14.25,37.54-24,56.76-37.54,68.52-9.72,8.59-19.45,12-24.42,12.89l-5-16.73a52.65,52.65,0,0,0,17.41-9.72,60.35,60.35,0,0,0,16.73-22.16c.91-2,1.58-3.62,1.58-4.75a17.34,17.34,0,0,0-1.36-5.2L819.08,473.57Z" transform="translate(0 0)"/></svg>