<svg id="Layer_1" data-name="Layer 1" xmlns="http://www.w3.org/2000/svg" viewBox="0 0 1024 1024"><defs><style>.cls-1{fill:#f0f2f4;}.cls-2{fill:#ee2a31;stroke:#fff;stroke-miterlimit:10;stroke-width:4.7px;}.cls-3{fill:#1d204b;}.cls-4{fill:#fff;}</style></defs><title>voteforthebest</title><circle id="_Path_" data-name="&lt;Path&gt;" class="cls-1" cx="512" cy="512" r="512"/><path class="cls-2" d="M216.39,541.53l-57.94,17.23,29,40.72-18,73.5s57.94-37.48,114.32-29.65L260.24,533.7Z" transform="translate(0 0)"/><path class="cls-2" d="M811.52,541.53l57.94,17.23-29,40.72,18,73.5s-57.94-37.48-114.32-29.65L767.67,533.7Z" transform="translate(0 0)"/><circle class="cls-3" cx="513.95" cy="511.95" r="284.24"/><circle class="cls-4" cx="513.95" cy="511.95" r="253.06"/><circle class="cls-3" cx="513.95" cy="511.95" r="221.99"/><rect class="cls-4" x="362.15" y="585.38" width="7.83" height="109.21"/><rect class="cls-4" x="411.45" y="585.38" width="7.83" height="146.62"/><rect class="cls-4" x="460.74" y="585.38" width="7.83" height="158.17"/><rect class="cls-4" x="510.04" y="585.38" width="7.83" height="158.17"/><rect class="cls-4" x="559.33" y="585.38" width="7.83" height="158.17"/><rect class="cls-4" x="608.63" y="585.38" width="7.83" height="146.62"/><rect class="cls-4" x="657.93" y="585.38" width="7.83" height="109.21"/><path class="cls-2" d="M211.71,521.17l7.83,98.66s358.62-54.81,582.57,0l14.09-98.66S523.35,439.74,211.71,521.17Z" transform="translate(0 0)"/><polygon class="cls-4" points="368.02 411.76 374.87 425.62 390.17 427.84 379.09 438.63 381.71 453.87 368.02 446.68 354.34 453.87 356.95 438.63 345.88 427.84 361.18 425.62 368.02 411.76"/><polygon class="cls-4" points="659.88 411.76 666.73 425.62 682.02 427.84 670.96 438.63 673.57 453.87 659.88 446.68 646.2 453.87 648.81 438.63 637.74 427.84 653.04 425.62 659.88 411.76"/><polygon class="cls-4" points="445.83 407.06 478.72 449.17 503.77 449.17 582.08 331.68 558.59 331.68 494.38 423.41 466.18 390.42 445.83 407.06"/><path class="cls-4" d="M278.67,569.72q2.05-12.75,4.22-25.5A5,5,0,0,0,283,543c-.12-.89-.84-1.18-2.25-1.18l-3.22.06-.7-5q9.21-1.3,18.42-2.5l.66,5-2.08.53c-1.69.42-2.32.76-2.81,3.17q-3.9,19.82-7.5,39.65l-7.66,1.1q-9.66-17.92-19.62-35.73c-1.21-2.16-2.57-2.21-4.31-2.13l-2,.06-.8-5q9.95-1.58,19.91-3l.73,5-3.11.85c-1.29.39-1.84.8-1.71,1.62a4.33,4.33,0,0,0,.53,1.29q6.09,11.53,12.07,23.1l1.2,3.27Q278.68,571.41,278.67,569.72Z" transform="translate(0 0)"/><path class="cls-4" d="M323.83,578.21c-14.43,1.69-21.12-7.46-22.91-21.2-1.58-12.12,3.42-24.52,20.53-26.5,14.91-1.69,21.5,7.73,22.89,21.49C345.56,564.2,340.39,576.31,323.83,578.21Zm-12-37.56c-2.24,2.54-2.58,10.11-1.9,15.61,1.29,10.36,6.72,16,15.46,15,3.56-.41,6.23-1.22,7.86-3.15,2.15-2.57,2.66-10.07,2.07-15.58-1.1-10.37-6.55-16.15-15.49-15.12C316.19,537.86,313.48,538.77,311.83,540.66Z" transform="translate(0 0)"/><path class="cls-4" d="M370.22,532.76l2.71,31.7c.14,1.6.45,2.16,2.09,2.28l3.43.3.42,5.07q-9.36.77-18.7,1.65l-.48-5.07,3.32-.89c1.6-.41,1.81-1,1.66-2.61l-2.87-31.69-6.83.63c-1.52.14-2.23.47-2.27,2.09q0,2.2,0,4.4l-5.54.54-1.73-12.58q20-2,40.12-3.53.25,6.34.5,12.69l-5.55.43-.81-4.33c-.33-1.59-1.08-1.79-2.67-1.66Z" transform="translate(0 0)"/><path class="cls-4" d="M392.93,571l-.38-5.14,3.08-.8c1.6-.44,1.83-1,1.71-2.58l-2.14-30.26c-.11-1.61-.43-2.36-2.11-2.43l-3.21-.15-.36-4.88q17.55-1.29,35.11-2.22.1,6.38.21,12.76l-5.56.3-.7-4.15c-.29-1.6-1-1.81-2.63-1.72q-6.21.36-12.41.77l.8,12.21q7-.46,13.9-.85l.38,6.69q-6.93.4-13.85.85l.92,14q6.12-.4,12.23-.76c1.56-.09,2.33-.39,2.37-2l.2-4.53,5.68-.31q.57,6.52,1.15,13Q410.13,569.74,392.93,571Z" transform="translate(0 0)"/><path class="cls-4" d="M460,553.85q.29-4.18.68-8.57t.82-8.6q.43-4.21.85-8t.77-6.64q.35-2.88.59-4.63a12.94,12.94,0,0,1,.35-2,16.79,16.79,0,0,1,4.78-1.46,15.35,15.35,0,0,1,3.85-.18l-.89,4.56q-.55,2.83-1.19,6.39t-1.28,7.67q-.64,4.11-1.17,8.34a6.61,6.61,0,0,1,1.84,1,10.25,10.25,0,0,1,1.42,1.14,42.22,42.22,0,0,0,5.13-3.12,23.67,23.67,0,0,0,4.17-3.66l1.26,1.38a49.8,49.8,0,0,1-4.32,4.08,28,28,0,0,1-5.06,3.38,16.08,16.08,0,0,1,1.08,3.75,44.9,44.9,0,0,1,.57,4.91q.17,2.65.08,5.52t-.44,5.59a48.55,48.55,0,0,1-.93,5.08,21.5,21.5,0,0,1-1.36,4,2.67,2.67,0,0,1-1.4.69,7.26,7.26,0,0,1-2.32.17,9.45,9.45,0,0,1-2.63-.6,5.75,5.75,0,0,1-2.33-1.62,8.06,8.06,0,0,1-1.7-3.26,26.06,26.06,0,0,1-.89-4.66q-.27-2.57-.33-5.36T460,553.85Zm9.29-7.36a7.82,7.82,0,0,1-1.9.57q-.39,3.24-.75,6.35t-.65,5.86q-.29,2.75-.51,5t-.33,4a3.65,3.65,0,0,0,.09,1.43c.11.33.27.44.46.33a2.47,2.47,0,0,0,.68-1,15.25,15.25,0,0,0,.82-2.53q.61-2.42,1.07-4.88t.74-4.74q.28-2.27.41-4.26t.15-3.5c0-.49,0-1-.09-1.43A12.13,12.13,0,0,0,469.29,546.49Z" transform="translate(0 0)"/><path class="cls-4" d="M494.6,555.28a4.45,4.45,0,0,1-1.38,1.79A11.24,11.24,0,0,1,491,558.5a14,14,0,0,1-2.39.92,7.73,7.73,0,0,1-1.81.34,11,11,0,0,1-3.78-.72,10.05,10.05,0,0,1-3.23-2,9.86,9.86,0,0,1-2.26-3.08,8.92,8.92,0,0,1-.8-4.1,45,45,0,0,1,.87-5.13q.61-2.67,1.28-5t1.34-3.94a10.59,10.59,0,0,1,1-2.13,8.63,8.63,0,0,1,3.09-.71,14.51,14.51,0,0,1,2.74.14,4.67,4.67,0,0,1,2.14-.45,14.87,14.87,0,0,1,2.65.2,14.26,14.26,0,0,1,2.34.57c.68.23,1.06.46,1.13.66a5.5,5.5,0,0,1,.34,1.56q.17,1.3.32,2.78t.24,2.76a8.48,8.48,0,0,1,0,1.48,17.69,17.69,0,0,0,4.42-3.22,15.06,15.06,0,0,0,3.2-4.45l1.45,1.29A9,9,0,0,1,503.7,539a27.77,27.77,0,0,1-5.21,4.7,10.47,10.47,0,0,1-2.25,1.25q-.18,3.18-.55,5.74A24.51,24.51,0,0,1,494.6,555.28Zm-5.27-9.36a4.93,4.93,0,0,1-2.76-1.65,6.62,6.62,0,0,1-1.41-3.08q-.61,2-1.2,4.24a40.44,40.44,0,0,0-.91,4.29,15.49,15.49,0,0,0-.17,3.6,2.72,2.72,0,0,0,1,2.17,2,2,0,0,0,1.17.19,3.09,3.09,0,0,0,1.37-.49,4.29,4.29,0,0,0,1.25-1.27,6.35,6.35,0,0,0,.87-2.1q.25-1.15.47-2.64T489.33,545.92ZM487,539.13a5.76,5.76,0,0,0,.15,1.2,6.81,6.81,0,0,0,.42,1.24,4.34,4.34,0,0,0,.74,1.13,3,3,0,0,0,1,.77q0-.94-.11-2.16t-.22-2.26a8,8,0,0,0-.62-2.2c-.22-.4-.43-.55-.65-.46s-.39.39-.55.89A6.21,6.21,0,0,0,487,539.13Z" transform="translate(0 0)"/><path class="cls-4" d="M513.63,547.51a64.56,64.56,0,0,0-.37,7.63,14.79,14.79,0,0,0,1,5.6,7.65,7.65,0,0,1-2-.05,16.11,16.11,0,0,1-2.29-.49,19.63,19.63,0,0,1-2.24-.8,10.77,10.77,0,0,1-1.77-.93,8.91,8.91,0,0,1-.25-2.24q0-1.57.06-3.62t.35-4.46q.25-2.4.56-4.75l.1-.94a3.62,3.62,0,0,0-.71-2.84,11.55,11.55,0,0,0-2.2-2q-1.29-.93-2.63-1.81a5.72,5.72,0,0,1-2-2.12,4.7,4.7,0,0,1-.07-2.14,22.61,22.61,0,0,1,.54-2.4c.22-.8.44-1.57.63-2.3a4.1,4.1,0,0,0,.12-1.88,13.86,13.86,0,0,1,2.05.69q1.19.49,2.35,1t2.07,1.06a5,5,0,0,1,1.19.83c-.29.8-.51,1.47-.69,2s-.32,1-.42,1.38-.18.72-.24,1a4.94,4.94,0,0,0-.08.86,2,2,0,0,0,.67,1.3,9.74,9.74,0,0,0,1.5,1.11q.88.54,1.9,1.06a12.66,12.66,0,0,1,1.85,1.14,6.62,6.62,0,0,1,1.36,1.35,2.3,2.3,0,0,1,.43,1.67Z" transform="translate(0 0)"/><path class="cls-4" d="M550.63,539.15q-.84,2-2,4.55T546.22,549q-1.33,2.76-2.61,5a27.68,27.68,0,0,1-2.47,3.74q-1.18,1.47-2.08,1.45a8.07,8.07,0,0,1-1.53-.28,16.75,16.75,0,0,1-2.34-.79,11.08,11.08,0,0,1-2.23-1.23,2.54,2.54,0,0,1-1.15-1.6,34.28,34.28,0,0,1,0-3.62q.1-2.16.32-4.69t.54-5.36q.32-2.84.68-5.7a10.43,10.43,0,0,1-2.24-.29,5.73,5.73,0,0,1,0-1.33q.06-.6.23-1.59l2.47.08.91-6.16q.44-3,.85-5.41t.7-4.08q.29-1.66.41-2.29a6.93,6.93,0,0,1,1.63-.58q1.09-.27,2.31-.46t2.36-.25a12.17,12.17,0,0,1,1.73,0q-.58,2.13-1.05,4.31t-.92,4.54q-.44,2.36-.86,5T541,533l2.62,0-.26,2.76c-.39.06-.82.11-1.28.13l-1.55.08q-.72,5.1-1.44,10.19c-.08.41-.16,1-.24,1.79s-.15,1.6-.2,2.45a21.9,21.9,0,0,0,0,2.4,4,4,0,0,0,.37,1.67.63.63,0,0,0,.92.28,5.68,5.68,0,0,0,1.7-1.87,77.44,77.44,0,0,0,4.77-8.23,80.25,80.25,0,0,0,3.81-8.91l1.59.5Q551.48,537.14,550.63,539.15Z" transform="translate(0 0)"/><path class="cls-4" d="M558.25,555.81q.55-4.94,1.07-8.05t.83-5.14a11.39,11.39,0,0,0,.22-2.24,2.15,2.15,0,0,0-.24-1.08.44.44,0,0,0-.56-.17,1.5,1.5,0,0,0-.68.58,10.23,10.23,0,0,0-1.23,2.16q-.62,1.39-1.2,3.1t-1.13,3.62q-.55,1.91-1,3.73t-.85,3.42q-.38,1.61-.67,2.69A13.13,13.13,0,0,1,550,559q-1.77.22-3.15.3a35.09,35.09,0,0,1,.11-4.06q.18-2.6.49-5.85t.75-6.94q.45-3.69,1-7.38t1-7.09q.5-3.4.94-6.13t.75-4.52a14.65,14.65,0,0,1,.48-2.21,6.91,6.91,0,0,1,1.64-.56q1.09-.26,2.34-.44t2.47-.25a10.82,10.82,0,0,1,2.14.06q-.54,2-1.31,5.15t-1.64,7.07q-.88,3.89-1.74,8.24t-1.49,8.62a27.78,27.78,0,0,1,1.37-3.77,29.16,29.16,0,0,1,1.6-3.09,18.47,18.47,0,0,1,1.53-2.2,4.94,4.94,0,0,1,1.16-1.12,3.4,3.4,0,0,1,2,0,14.88,14.88,0,0,1,2.71.89,14,14,0,0,1,2.37,1.3q1,.71,1,1.23a11.74,11.74,0,0,1-.26,2.26q-.29,1.63-.68,3.71l-.8,4.25q-.42,2.18-.68,3.89a21.16,21.16,0,0,0-.36,3.72c0,.82.16,1.29.41,1.42s.57,0,1-.52a15.8,15.8,0,0,0,1.47-2,15.32,15.32,0,0,0,1-1.84l1.4-2.9q.77-1.62,1.58-3.39t1.51-3.41c.47-1.09.87-2.07,1.2-2.93s.56-1.51.69-2l1.69.53q-.24.77-1,2.75t-1.74,4.5q-1,2.52-2.21,5.27t-2.43,5a25.73,25.73,0,0,1-2.37,3.75q-1.16,1.48-2.05,1.45a8.4,8.4,0,0,1-2.1-.43,15.94,15.94,0,0,1-2.56-1,13.42,13.42,0,0,1-2.13-1.31C558.47,556.61,558.2,556.19,558.25,555.81Z" transform="translate(0 0)"/><path class="cls-4" d="M593.19,554.61a18.58,18.58,0,0,1-4.39,4.39,11.1,11.1,0,0,1-5.26,2,10.4,10.4,0,0,1-3.47-.33,15.42,15.42,0,0,1-3.28-1.25,12.18,12.18,0,0,1-2.58-1.77,4.46,4.46,0,0,1-1.36-1.92,10,10,0,0,1-.46-2.81,36,36,0,0,1,0-3.67q.12-2,.41-4t.67-3.89a31.65,31.65,0,0,1,.84-3.23,8.32,8.32,0,0,1,.9-2.05,4.42,4.42,0,0,1,1.47-1.33,11,11,0,0,1,2.07-.94,14,14,0,0,1,2.3-.56,11,11,0,0,1,2.15-.15,9.44,9.44,0,0,1,3.41.64,12.49,12.49,0,0,1,2.65,1.42,8.52,8.52,0,0,1,1.75,1.62,2.8,2.8,0,0,1,.67,1.23,8.73,8.73,0,0,1,0,2.74,30.39,30.39,0,0,1-.62,3.65,28.63,28.63,0,0,1-1,3.42,4.45,4.45,0,0,1-1.18,2,6.57,6.57,0,0,1-1.85.88,22.85,22.85,0,0,1-2.55.67q-1.37.28-2.75.46c-.93.12-1.78.2-2.56.23v.36a4,4,0,0,0,.59,2.48,3.72,3.72,0,0,0,1.74,1.4,6,6,0,0,0,2.45.39,8.29,8.29,0,0,0,2.7-.56,9.22,9.22,0,0,0,2.56-1.5,8,8,0,0,0,2-2.36Zm-8.37-15.24a5.1,5.1,0,0,0-.22-2.3q-.34-.8-.9-.87a1.49,1.49,0,0,0-1.2.55,4.29,4.29,0,0,0-1,1.92q-.25.82-.54,2.12t-.57,2.82q-.28,1.53-.52,3.13t-.41,3.06a3.88,3.88,0,0,0,2.18-1.43,10.91,10.91,0,0,0,1.6-2.72,20.49,20.49,0,0,0,1-3.24A28.51,28.51,0,0,0,584.83,539.37Z" transform="translate(0 0)"/><path class="cls-4" d="M622,531.76c.1-1.61-.13-2.14-1.77-2.56l-3.15-.78.31-5.08q9.06.55,18.12,1.21c9.59.69,15.85,3,15.13,11.63-.53,6.42-5.2,10.17-8.35,10.71,5.94,1,10.43,4.26,9.83,11.45-.74,8.73-7.58,13.37-17.74,12.63q-9.91-.73-19.83-1.33l.31-5.08,3.16-.38c1.65-.22,1.94-.72,2-2.32Zm7.63,11.87,3.82.27c1.91.14,3.88.28,5.26-.45,2.19-1,2.72-3.48,2.92-6.11.38-4.94-3.2-6.13-7.78-6.45l-3.32-.23Zm-1.42,20.43,6,.43c5.52.4,8.69-1.67,9.09-6.74s-3.34-7-8.39-7.41l-5.77-.41Z" transform="translate(0 0)"/><path class="cls-4" d="M656.68,572.75l.45-5.13,3.17-.3c1.65-.18,2-.67,2.1-2.27l2.72-30.21c.14-1.6-.05-2.4-1.69-2.74l-3.15-.66.42-4.88q17.53,1.53,35,3.42l-1.83,12.63-5.54-.59q0-2.11,0-4.21c0-1.62-.73-2-2.32-2.12q-6.19-.63-12.38-1.22l-1.16,12.18q6.94.66,13.87,1.38l-.69,6.66q-6.91-.71-13.82-1.37l-1.33,14q6.1.58,12.21,1.21c1.56.16,2.36,0,2.66-1.6l.92-4.44,5.67.6q-.47,6.52-1,13Q673.86,574.24,656.68,572.75Z" transform="translate(0 0)"/><path class="cls-4" d="M706.25,570.3a14.78,14.78,0,0,0,7.61,2.85c4.34.53,8.23-1.12,8.74-5.14.42-3.32-.61-5.08-5.84-7.8l-7.62-3.9c-5.06-2.61-8.4-7.19-7.64-14,.79-7.1,6.67-11.58,17.5-10.27a67.65,67.65,0,0,1,14.31,3.56L731,546l-6.39-.82q-.18-2.59-.35-5.17a19.5,19.5,0,0,0-7-2.16c-4.17-.51-6.55.91-7,4.68-.39,3.33,1.13,5.71,5.21,7.76l5.34,2.6c6,2.95,11.41,6.53,10.3,14.89-1.06,7.92-7.92,12.7-19.52,11.29-6.58-.79-9.72-2.45-14.07-4.62q1-5.43,2-10.86l6.51.75Q706.16,567.34,706.25,570.3Z" transform="translate(0 0)"/><path class="cls-4" d="M762.13,545l-4.68,31.47c-.24,1.59-.06,2.2,1.51,2.7l3.27,1.08-.76,5q-9.3-1.41-18.61-2.72l.71-5,3.44-.1c1.65,0,2-.56,2.22-2.15l4.52-31.49-6.8-1c-1.52-.21-2.28-.06-2.7,1.51l-1.06,4.28-5.53-.75q.61-6.32,1.22-12.64,20,2.68,39.92,5.84l-2.44,12.46-5.51-.86.21-4.4c0-1.62-.64-2-2.22-2.23Z" transform="translate(0 0)"/></svg>