<?xml version="1.0" encoding="utf-8"?>
<!-- Generator: Adobe Illustrator 19.2.1, SVG Export Plug-In . SVG Version: 6.00 Build 0)  -->
<svg version="1.1" id="Layer_1" xmlns="http://www.w3.org/2000/svg" xmlns:xlink="http://www.w3.org/1999/xlink" x="0px" y="0px"
	 viewBox="0 0 1024 1024" enable-background="new 0 0 1024 1024" xml:space="preserve">
<circle id="XMLID_1_" fill="#D9272E" cx="512" cy="512" r="512"/>
<g id="XMLID_29_">
	<path id="XMLID_53_" fill="#FFFFFF" d="M815.9,609.4L815.9,609.4C815.9,609.4,815.9,609.4,815.9,609.4L815.9,609.4z M584.7,459.8
		C584.7,459.8,584.7,459.8,584.7,459.8c0.1,0,0.2,0,0.2,0L584.7,459.8z M850.7,521.8c-4.5-3.4-5.2-3.9-32.2-12.8
		c23.4-5.7,24.4-6.4,28.5-9.1c9.4-6.4,14.4-16.9,13.7-28.3l-0.1-1.2c-1.9-18.3-25.5-52.9-41.4-60.7c-10.5-5-22.1-4.3-31.3,1.9
		c-4.3,2.9-4.9,3.3-22.6,27.5c-1.7-28.3-5.1-78.2-5.9-82.9l-0.2-1.1l-0.3-1.1c-3-11-11.6-19.2-23-22.1c-19-4.7-69.3,9.4-82.8,23.3
		c-7.9,8.3-11,19.4-8.2,29.8l0.6,2.1l0.9,1.9c1.3,2.7,4.7,8.3,33.9,54.1l10.7,16.9c-26.1-10.7-27.1-10.7-32.6-10.8
		c-10.3-0.5-20.6,5.1-26.8,14.8l-0.1,0.2c-3.2,5.2-5.2,12.2-6.4,19.5c-8.4-11.3-21.1-20.4-40.3-24.2c-13.6-2.7-26.4-1.1-38.4,3.8
		c-11-7-26.2-7.8-38.8-0.6c-3.9,2.2-6.8,4.9-9.2,7.7v-15.5l-1.2-9.2l-0.4-1.7c-2.5-10-10.1-18.5-20.2-22.6l-0.1-0.1
		c-11.1-4.5-23.6-3.4-34.1,2.9c-11.3,6.7-17,17.7-17,32.8v31.7c-4-6.2-9-11.7-14.9-16.1c-15.8-12-37-16-61.3-11.7
		c-14.1,2.4-25.9,8.6-35.2,17.6c-0.2-0.3-0.3-0.6-0.5-0.9c-4.7-8.5-12.4-14.3-22.3-16.9c-16.4-4.5-37.3,1.1-45.9,30.5
		c0,0-1.4,4.8-3.3,11.3c-3.8-6.9-13.5-25.8-13.9-26.4c-8.8-13.4-26.4-19.1-42.2-12.9c-15.3,5.7-24.1,19.1-24.1,34.9
		c0,5,0.9,10.1,2.7,15.4l0.4,1.3c0,0,31.3,63.8,40.4,82.2c-14.5,3.8-24.9,14.7-26.6,29.6c-0.2,1.4-0.3,2.8-0.3,4.3
		c0,9.5,3.9,18.5,11.2,25.2c11,10.1,28,13.4,47.9,9.4c21.7-4.3,34.2-17.4,43-45.1l13.3-41.8c4.3,17.6,12.2,29.1,19.7,36.5
		c10.8,10.7,30.5,22.4,63.1,18c24.2-3.4,41-14.3,50.1-27l0.6,3.1c2.6,9.1,9.6,17.2,19,21.5c9.9,4.5,21.3,4.5,31.3-0.2
		c5.2-2.3,9.7-5.9,13.1-10.3v13.2c0,21.8,12.6,31.1,20.1,34.7c9.8,4.9,21.5,5.3,31.8,0.9c9.7-4.2,16.8-12.2,19.7-21.8l0.4-1.5l1.3-9
		c0,0,0-3.5,0-3.9c13.1,1.3,26.8-0.8,38.9-7c5.3-2.8,10-6.1,14.1-9.9h8.9c4.8,2.5,10.3,4.1,16.2,4.1c5.9,0,11.4-1.6,16.2-4.1h25.7
		c17,9.6,41.9,16.8,55.2,14.5c11.5-2,20.5-9.4,24.3-19.8l0.2-0.5c1.6-4.7,1.9-5.6,2-32.2c14.6,23.6,15.3,24.2,19.4,27.4
		c8.8,6.9,20.4,8.4,31,4.1c17.2-6.9,43.4-40.2,46-58.5c0.2-1.6,0.3-3.2,0.3-4.8C862.2,536.6,858.1,527.7,850.7,521.8z"/>
	<g id="XMLID_46_">
		<g id="XMLID_47_">
			<path id="XMLID_24_" fill="#D9272E" d="M650.3,476.2c-4.2,6.6-5.9,27.6-4.5,41.5c0.5,4.6,1.3,8.4,2.6,10.7c1.7,3.2,4.4,5,7.6,5.1
				c2,0.1,3.3-0.2,41.7-12.6c0,0,17.1-5.4,17.1-5.5c4.2-1.1,7.1-5,7.4-10c0.3-5.1-2.4-9.6-6.7-11.3l-12-4.9
				c-41.2-17-43.1-17.7-45.2-17.7C655.1,471.5,652.3,473.1,650.3,476.2z"/>
			<path id="XMLID_23_" fill="#D9272E" d="M742.5,602.9c0.7-1.9,0.8-3.3,0.9-43.6c0,0,0.1-17.8,0.1-18c0.3-4.4-2.6-8.3-7.2-10.1
				c-4.8-1.8-9.9-0.7-12.8,2.9c0,0-8.4,10-8.4,10c-28.9,33.9-30.1,35.5-30.8,37.5c-0.4,1.2-0.6,2.4-0.5,3.7c0.2,1.8,1,3.6,2.3,5.2
				c6.7,8,38.8,19.8,49.1,18C738.8,607.9,741.4,605.9,742.5,602.9z"/>
			<path id="XMLID_22_" fill="#D9272E" d="M807.7,588.8c9.7-3.8,30.8-30.7,32.3-41.1c0.5-3.6-0.6-6.7-3.1-8.7
				c-1.6-1.2-2.9-1.7-41.2-14.3c0,0-16.8-5.6-17-5.7c-4.1-1.6-8.7-0.1-11.8,3.8c-3.2,3.9-3.7,9.2-1.1,13.1l6.8,11
				c22.8,37,24.5,39.6,26.2,40.9C801.1,589.9,804.3,590.2,807.7,588.8L807.7,588.8z"/>
			<path id="XMLID_21_" fill="#D9272E" d="M787.9,493.7c43.6-10.6,45.3-11.1,47-12.2c2.6-1.8,4-4.8,3.7-8.4c0-0.1,0-0.2,0-0.4
				c-1.1-10.7-19.9-38.5-29.1-43c-3.3-1.6-6.6-1.5-9.3,0.4c-1.7,1.1-2.9,2.7-26.2,34.7c0,0-10.6,14.4-10.7,14.5
				c-2.8,3.4-2.8,8.2-0.1,12.4c2.8,4.3,7.6,6.4,11.9,5.2c0,0-0.2,0.3-0.2,0.4C777,496.3,780.9,495.3,787.9,493.7z"/>
			<path id="XMLID_20_" fill="#D9272E" d="M744.1,457.7L744.1,457.7c-0.8-17.3-5.9-94.2-6.6-97.7c-0.9-3.2-3.4-5.5-7-6.5
				c-11.1-2.8-53.6,9.2-61.5,17.3c-2.5,2.6-3.5,5.9-2.7,8.8c1.2,2.6,53.9,85.4,53.9,85.4c7.8,12.6,14.1,10.7,16.2,10
				C738.5,474.4,744.8,472.4,744.1,457.7z"/>
		</g>
	</g>
	<g id="XMLID_36_">
		<g id="XMLID_37_">
			<path id="XMLID_18_" fill="#D9272E" d="M204.5,640c5.5,5.1,15.9,6.5,28.5,4c11.8-2.3,19.2-7.6,26.3-30.1l35.2-110.6
				c1.8-5.9,1.7-11-0.4-14.8c-1.7-3-4.5-5.1-8.5-6.2c-6.3-1.7-14.1-1.6-19,15.3l-18.5,62.7c0,0-37.6-71.1-37.7-71.1
				c-2.4-4.8-9.3-8.1-16.4-5.3c-9.2,3.5-12.3,11.8-8.6,22.5c0,0,45.8,93.1,45.9,93.4c0,0,1.2,3.3,1.2,3.8c0,0,0.4,2.5,0.4,2.6
				c-0.1,3.6-1.3,6.6-3.4,8.6c-2.1,2-5.1,3-8.5,2.9c0,0-7.1-0.1-7.7-0.1c-7.3,0.9-11.9,5.1-12.7,11.6
				C200.1,633.5,201.5,637.2,204.5,640z"/>
			<path id="XMLID_42_" fill="#D9272E" d="M414.9,526.6c-1.6-16-7.7-28.4-17.9-36.1c-10.8-8.2-26-10.8-44-7.6
				c-22.6,3.9-36.2,20.1-39.3,46.8c-3.8,31.9,1.4,56,15.2,69.6c10.4,10.3,25.8,14.4,44.6,11.9c26.7-3.8,38.7-18.5,38.7-27.7
				c0-6.8-4.1-12.2-10.2-13c-3.5-0.7-6.4,0-12.9,5.8c-9.3,8.1-20.2,11.4-29.8,9c-7.3-1.9-13-6.9-15.6-13.8c0,0-1.2-4.6-1.1-4.1
				c-0.8-4.1-1.1-8.2,1.4-9.9l0.7-0.5h58.7c5.4,0,8.2-0.7,9.8-2.4C416.6,551.1,416.3,540.9,414.9,526.6z M384.8,535.1h-49
				c-1.3-1-2-2.6-1-7.5c0.6-2.6,1.3-4.9,3.3-8.1c0.6-1,1.3-2,1.9-3c3.6-4.5,8.4-7.4,14-8.7c17.2-4.2,29.2,4.5,31.2,19.5
				C386.1,533.8,385.5,535.1,384.8,535.1z"/>
			<path id="XMLID_14_" fill="#D9272E" d="M468.2,442.1c-4.7-1.9-9.9-1.4-14.5,1.4c-4.4,2.6-6.3,6.6-6.3,13.8v140c0,0,0.8,5,0.8,5.2
				c1,3.5,3.6,6.4,7.2,8.1c4,1.8,8.6,1.8,12.7-0.1c5.1-2.2,8.2-7.3,8.2-13.7V456.5c0,0-0.9-6.8-0.9-6.9
				C474.5,446.4,471.8,443.6,468.2,442.1z"/>
			<path id="XMLID_38_" fill="#D9272E" d="M580.5,481.5c-13-2.6-24.1-0.4-34.8,6.8c0,0-1.2,1-1.7,1.2l-0.9,0.5l-2.9,1.3l-0.8-3.3
				l-0.7-1.2l-0.2-0.7l-0.1-0.2c0,0-0.7-1-0.8-1.1c-3.1-4.8-11.4-7-18.9-2.7c-3.7,2.1-5.8,5-5.8,13.8v137.4c0,7.5,2.4,12.2,7.5,14.7
				c4.4,2.2,9.3,2.4,13.5,0.6c3.6-1.6,6.2-4.3,7.2-7.7l0.9-5.9v-23.8l-0.2-3.8l0.1-1.1l0.1-0.5l1.4-4.5l4.3,2.9c0,0,1.1,0.7,1.5,1.2
				l1.3,0.9c0,0,1.5,0.9,1.5,0.9c0,0,1.4,0.7,1.4,0.7c11.6,5.4,27,4.8,39.4-1.6c15.6-8.1,23.3-22.6,25.1-46.9
				C621.5,510.5,610.3,487.3,580.5,481.5z M579,584.3c-19.4,0-22.5-17.2-23.1-30.2c0,0-0.3-7.6-0.3-7.6s0.2-5.6,0.2-5.9
				c1.2-22.5,5.9-31.3,17.8-33.8c8-1.8,14.1-0.9,18.6,2.7c6.9,5.5,9.9,17.2,9.6,36.7C601.7,569.1,597.7,584.3,579,584.3z"/>
		</g>
	</g>
	<g id="XMLID_30_">
		<path id="XMLID_31_" fill="#D9272E" d="M642.4,587.5c4.4,0,8.2,3.5,8.2,8c0,4.7-3.7,8.1-8.2,8.1c-4.4,0-8.1-3.5-8.1-8
			C634.3,590.9,638,587.5,642.4,587.5z M642.4,602.4c3.8,0,6.8-3,6.8-6.9c0-3.9-3-6.9-6.8-6.9c-3.8,0-6.8,3-6.8,6.9
			C635.6,599.5,638.6,602.4,642.4,602.4z M639.4,590.9h3.4c2.2,0,3.3,0.8,3.3,2.7c0,1.7-1.1,2.4-2.5,2.5l2.7,4.1h-1.4l-2.6-4h-1.7v4
			h-1.3V590.9z M640.7,595.1h1.6c1.3,0,2.5-0.1,2.5-1.5c0-1.3-1.1-1.5-2.1-1.5h-2V595.1z"/>
	</g>
</g>
</svg>
